%TF.GenerationSoftware,Altium Limited,Altium Designer,22.9.1 (49)*%
G04 Layer_Color=16711935*
%FSLAX45Y45*%
%MOMM*%
%TF.SameCoordinates,4BB515F2-1930-42CC-84AD-66DDC1B42358*%
%TF.FilePolarity,Positive*%
%TF.FileFunction,Other,Mechanical_13*%
%TF.Part,Single*%
G01*
G75*
%TA.AperFunction,NonConductor*%
%ADD35C,0.10000*%
D35*
X5467785Y8396000D02*
G03*
X5467785Y8396000I-50000J0D01*
G01*
X4958200Y8876000D02*
G03*
X4958200Y8876000I-50000J0D01*
G01*
X6295438Y7425100D02*
G03*
X6295438Y7425100I-50000J0D01*
G01*
X4982788D02*
G03*
X4982788Y7425100I-50000J0D01*
G01*
X3683700D02*
G03*
X3683700Y7425100I-50000J0D01*
G01*
X5327782Y8305998D02*
X7297786D01*
X5327782Y8966002D02*
X7297786D01*
X5327782Y8305998D02*
Y8966002D01*
X7297786Y8305998D02*
Y8966002D01*
X3028198D02*
X4998202D01*
X3028198Y8305998D02*
X4998202D01*
Y8966002D01*
X3028198Y8305998D02*
Y8966002D01*
X6155441Y5515102D02*
Y7515098D01*
X6840438Y5515102D02*
Y7515098D01*
X6155441D02*
X6840438D01*
X6155441Y5515102D02*
X6840438D01*
X4842789D02*
Y7515098D01*
X5527787Y5515102D02*
Y7515098D01*
X4842789D02*
X5527787D01*
X4842789Y5515102D02*
X5527787D01*
X3543701D02*
Y7515098D01*
X4228699Y5515102D02*
Y7515098D01*
X3543701D02*
X4228699D01*
X3543701Y5515102D02*
X4228699D01*
X7122450Y11782923D02*
X7362449D01*
Y11152922D02*
Y11782923D01*
X7122450Y11152922D02*
Y11782923D01*
Y11152922D02*
X7362449D01*
X3093705Y11788602D02*
X3333704D01*
Y11158601D02*
Y11788602D01*
X3093705Y11158601D02*
Y11788602D01*
Y11158601D02*
X3333704D01*
X6768800Y11788602D02*
X7008800D01*
Y11158601D02*
Y11788602D01*
X6768800Y11158601D02*
Y11788602D01*
Y11158601D02*
X7008800D01*
X3488294Y11788602D02*
X3728293D01*
Y11158601D02*
Y11788602D01*
X3488294Y11158601D02*
Y11788602D01*
Y11158601D02*
X3728293D01*
X6418661Y11788602D02*
X6658661D01*
Y11158601D02*
Y11788602D01*
X6418661Y11158601D02*
Y11788602D01*
Y11158601D02*
X6658661D01*
X3876192Y11788602D02*
X4116192D01*
Y11158601D02*
Y11788602D01*
X3876192Y11158601D02*
Y11788602D01*
Y11158601D02*
X4116192D01*
X6083432Y11788602D02*
X6323432D01*
Y11158601D02*
Y11788602D01*
X6083432Y11158601D02*
Y11788602D01*
Y11158601D02*
X6323432D01*
X4233789Y11788602D02*
X4473788D01*
Y11158601D02*
Y11788602D01*
X4233789Y11158601D02*
Y11788602D01*
Y11158601D02*
X4473788D01*
X5724860Y11788602D02*
X5964860D01*
Y11158601D02*
Y11788602D01*
X5724860Y11158601D02*
Y11788602D01*
Y11158601D02*
X5964860D01*
X4636882Y11788602D02*
X4876881D01*
Y11158601D02*
Y11788602D01*
X4636882Y11158601D02*
Y11788602D01*
Y11158601D02*
X4876881D01*
X5382311Y11788602D02*
X5622310D01*
Y11158601D02*
Y11788602D01*
X5382311Y11158601D02*
Y11788602D01*
Y11158601D02*
X5622310D01*
X5017389Y11788602D02*
X5257389D01*
Y11158601D02*
Y11788602D01*
X5017389Y11158601D02*
Y11788602D01*
Y11158601D02*
X5257389D01*
X4296288Y4976993D02*
X6074288D01*
Y4468993D02*
Y4976993D01*
X4296288Y4468993D02*
X6074288D01*
X4296288D02*
Y4976993D01*
X4294856Y10423708D02*
X6072856D01*
Y9915708D02*
Y10423708D01*
X4294856Y9915708D02*
X6072856D01*
X4294856D02*
Y10423708D01*
%TF.MD5,9a3d58a07e76ab230ea4e03c810a4e33*%
M02*
