%TF.GenerationSoftware,Altium Limited,Altium Designer,22.9.1 (49)*%
G04 Layer_Color=32768*
%FSLAX45Y45*%
%MOMM*%
%TF.SameCoordinates,4BB515F2-1930-42CC-84AD-66DDC1B42358*%
%TF.FilePolarity,Positive*%
%TF.FileFunction,Other,Mechanical_15*%
%TF.Part,Single*%
G01*
G75*
%TA.AperFunction,NonConductor*%
%ADD35C,0.10000*%
%ADD37C,0.05000*%
D35*
X6312784Y8586003D02*
Y8686002D01*
X6262787Y8636000D02*
X6362786D01*
X4013200Y8585998D02*
Y8685997D01*
X3963198Y8636000D02*
X4063197D01*
X6447942Y6515100D02*
X6547942D01*
X6497940Y6465103D02*
Y6565102D01*
X5135291Y6515100D02*
X5235291D01*
X5185288Y6465103D02*
Y6565102D01*
X3836203Y6515100D02*
X3936202D01*
X3886200Y6465103D02*
Y6565102D01*
X7242449Y11417925D02*
Y11517925D01*
X7192452Y11467922D02*
X7292452D01*
X3213705Y11423604D02*
Y11523604D01*
X3163707Y11473602D02*
X3263707D01*
X6888800Y11423604D02*
Y11523604D01*
X6838803Y11473602D02*
X6938802D01*
X3608294Y11423604D02*
Y11523604D01*
X3558296Y11473602D02*
X3658296D01*
X6538661Y11423604D02*
Y11523604D01*
X6488664Y11473602D02*
X6588663D01*
X3996192Y11423604D02*
Y11523604D01*
X3946195Y11473602D02*
X4046195D01*
X6203432Y11423604D02*
Y11523604D01*
X6153434Y11473602D02*
X6253434D01*
X4353789Y11423604D02*
Y11523604D01*
X4303791Y11473602D02*
X4403791D01*
X5844860Y11423604D02*
Y11523604D01*
X5794863Y11473602D02*
X5894862D01*
X4756882Y11423604D02*
Y11523604D01*
X4706884Y11473602D02*
X4806884D01*
X5502311Y11423604D02*
Y11523604D01*
X5452313Y11473602D02*
X5552313D01*
X5137389Y11423604D02*
Y11523604D01*
X5087391Y11473602D02*
X5187391D01*
D37*
X5302783Y8151002D02*
X7322784D01*
X5302783Y9120998D02*
X7322784D01*
X5302783Y8151002D02*
Y9120998D01*
X7322784Y8151002D02*
Y9120998D01*
X3003199D02*
X5023201D01*
X3003199Y8151002D02*
X5023201D01*
Y9120998D01*
X3003199Y8151002D02*
Y9120998D01*
X6017941Y5490098D02*
Y7540102D01*
X6977939Y5490098D02*
Y7540102D01*
X6017941D02*
X6977939D01*
X6017941Y5490098D02*
X6977939D01*
X4705289D02*
Y7540102D01*
X5665287Y5490098D02*
Y7540102D01*
X4705289D02*
X5665287D01*
X4705289Y5490098D02*
X5665287D01*
X3406201D02*
Y7540102D01*
X4366199Y5490098D02*
Y7540102D01*
X3406201D02*
X4366199D01*
X3406201Y5490098D02*
X4366199D01*
X7112447Y10940420D02*
X7372452D01*
Y11995424D01*
X7112447Y10940420D02*
Y11995424D01*
X7372452D01*
X3083702Y10946100D02*
X3343707D01*
Y12001104D01*
X3083702Y10946100D02*
Y12001104D01*
X3343707D01*
X6758798Y10946100D02*
X7018802D01*
Y12001104D01*
X6758798Y10946100D02*
Y12001104D01*
X7018802D01*
X3478291Y10946100D02*
X3738296D01*
Y12001104D01*
X3478291Y10946100D02*
Y12001104D01*
X3738296D01*
X6408659Y10946100D02*
X6668663D01*
Y12001104D01*
X6408659Y10946100D02*
Y12001104D01*
X6668663D01*
X3866190Y10946100D02*
X4126194D01*
Y12001104D01*
X3866190Y10946100D02*
Y12001104D01*
X4126194D01*
X6073430Y10946100D02*
X6333434D01*
Y12001104D01*
X6073430Y10946100D02*
Y12001104D01*
X6333434D01*
X4223786Y10946100D02*
X4483791D01*
Y12001104D01*
X4223786Y10946100D02*
Y12001104D01*
X4483791D01*
X5714858Y10946100D02*
X5974862D01*
Y12001104D01*
X5714858Y10946100D02*
Y12001104D01*
X5974862D01*
X4626879Y10946100D02*
X4886884D01*
Y12001104D01*
X4626879Y10946100D02*
Y12001104D01*
X4886884D01*
X5372308Y10946100D02*
X5632313D01*
Y12001104D01*
X5372308Y10946100D02*
Y12001104D01*
X5632313D01*
X5007386Y10946100D02*
X5267391D01*
Y12001104D01*
X5007386Y10946100D02*
Y12001104D01*
X5267391D01*
X4261287Y4441490D02*
Y5004491D01*
Y4441490D02*
X6109289D01*
Y5004491D01*
X4261287D02*
X6109289D01*
X5185288Y4672990D02*
Y4772990D01*
X5135291Y4722993D02*
X5235291D01*
X4259854Y9888210D02*
Y10451211D01*
Y9888210D02*
X6107857D01*
Y10451211D01*
X4259854D02*
X6107857D01*
X5183856Y10119711D02*
Y10219710D01*
X5133858Y10169708D02*
X5233858D01*
%TF.MD5,9e58c0d0fdd0f7c768f773dd72a45053*%
M02*
