G04*
G04 #@! TF.GenerationSoftware,Altium Limited,Altium Designer,22.9.1 (49)*
G04*
G04 Layer_Color=65535*
%FSLAX44Y44*%
%MOMM*%
G71*
G04*
G04 #@! TF.SameCoordinates,73C1D453-A157-4A54-B1A5-12706931D713*
G04*
G04*
G04 #@! TF.FilePolarity,Positive*
G04*
G01*
G75*
%ADD10C,0.2000*%
%ADD11C,0.2500*%
%ADD12C,0.6000*%
%ADD13C,0.1524*%
%ADD14C,0.2540*%
%ADD15C,1.2000*%
%ADD16C,0.1500*%
%ADD17C,0.1000*%
%ADD18C,0.0500*%
D10*
X742368Y488465D02*
G03*
X695392Y485099I-22278J-18565D01*
G01*
X696398Y486624D02*
G03*
X742476Y451465I23692J-16724D01*
G01*
X741098Y1030755D02*
G03*
X694122Y1027389I-22278J-18565D01*
G01*
X695128Y1028914D02*
G03*
X741206Y993755I23692J-16724D01*
G01*
X741610Y869950D02*
G03*
X741610Y857250I0J-6350D01*
G01*
X499820Y869950D02*
G03*
X499820Y857250I0J-6350D01*
G01*
X643444Y751510D02*
G03*
X656144Y751510I6350J0D01*
G01*
X512179D02*
G03*
X524879Y751510I6350J0D01*
G01*
X382270D02*
G03*
X394970Y751510I6350J0D01*
G01*
X742950Y452120D02*
Y487680D01*
X649670Y502670D02*
X673670D01*
Y439670D02*
Y502670D01*
X649670Y439670D02*
Y502670D01*
Y439670D02*
X673670D01*
X741680Y994410D02*
Y1029970D01*
X649670Y1043690D02*
X673670D01*
Y980690D02*
Y1043690D01*
X649670Y980690D02*
Y1043690D01*
Y980690D02*
X673670D01*
X544609Y890100D02*
X741610D01*
X544609Y837100D02*
X741610D01*
Y869950D02*
Y890100D01*
Y837100D02*
Y857250D01*
X544609Y837100D02*
Y890100D01*
X302820D02*
X499820D01*
X302820Y837100D02*
X499820D01*
Y869950D02*
Y890100D01*
Y837100D02*
Y857250D01*
X302820Y837100D02*
Y890100D01*
X622794Y551510D02*
Y751510D01*
X676794Y551510D02*
Y751510D01*
X622794D02*
X643444D01*
X656144D02*
X676794D01*
X622794Y551510D02*
X676794D01*
X491529D02*
Y751510D01*
X545529Y551510D02*
Y751510D01*
X491529D02*
X512179D01*
X524879D02*
X545529D01*
X491529Y551510D02*
X545529D01*
X361620D02*
Y751510D01*
X415620Y551510D02*
Y751510D01*
X361620D02*
X382270D01*
X394970D02*
X415620D01*
X361620Y551510D02*
X415620D01*
X711561Y1115860D02*
X735561D01*
X711561D02*
Y1178860D01*
X735561Y1115860D02*
Y1178860D01*
X711561D02*
X735561D01*
X309370Y1115860D02*
X333370D01*
X309370D02*
Y1178860D01*
X333370Y1115860D02*
Y1178860D01*
X309370D02*
X333370D01*
X676880Y1115860D02*
X700880D01*
X676880D02*
Y1178860D01*
X700880Y1115860D02*
Y1178860D01*
X676880D02*
X700880D01*
X348829Y1115860D02*
X372829D01*
X348829D02*
Y1178860D01*
X372829Y1115860D02*
Y1178860D01*
X348829D02*
X372829D01*
X641866Y1115860D02*
X665866D01*
X641866D02*
Y1178860D01*
X665866Y1115860D02*
Y1178860D01*
X641866D02*
X665866D01*
X387619Y1115860D02*
X411619D01*
X387619D02*
Y1178860D01*
X411619Y1115860D02*
Y1178860D01*
X387619D02*
X411619D01*
X608343Y1115860D02*
X632343D01*
X608343D02*
Y1178860D01*
X632343Y1115860D02*
Y1178860D01*
X608343D02*
X632343D01*
X423379Y1115860D02*
X447379D01*
X423379D02*
Y1178860D01*
X447379Y1115860D02*
Y1178860D01*
X423379D02*
X447379D01*
X572486Y1115860D02*
X596486D01*
X572486D02*
Y1178860D01*
X596486Y1115860D02*
Y1178860D01*
X572486D02*
X596486D01*
X463688Y1115860D02*
X487688D01*
X463688D02*
Y1178860D01*
X487688Y1115860D02*
Y1178860D01*
X463688D02*
X487688D01*
X538231Y1115860D02*
X562231D01*
X538231D02*
Y1178860D01*
X562231Y1115860D02*
Y1178860D01*
X538231D02*
X562231D01*
X501739Y1115860D02*
X525739D01*
X501739D02*
Y1178860D01*
X525739Y1115860D02*
Y1178860D01*
X501739D02*
X525739D01*
X608929Y446149D02*
Y498449D01*
X428129D02*
X608929D01*
X428129Y446149D02*
X608929D01*
X428129D02*
Y498449D01*
X608786Y990821D02*
Y1043121D01*
X427985D02*
X608786D01*
X427985Y990821D02*
X608786D01*
X427985D02*
Y1043121D01*
X688340Y501650D02*
X748030D01*
Y438150D02*
Y501650D01*
X688340Y438150D02*
X748030D01*
X688340D02*
Y501650D01*
X687070Y1043940D02*
X746760D01*
Y980440D02*
Y1043940D01*
X687070Y980440D02*
X746760D01*
X687070D02*
Y1043940D01*
X746760Y487680D02*
G03*
X746255Y451440I-26526J-17754D01*
G01*
X745490Y1029970D02*
G03*
X744985Y993730I-26526J-17754D01*
G01*
X746760Y452120D02*
Y487680D01*
X717550Y469900D02*
X722630D01*
X720090Y467360D02*
Y472440D01*
X745490Y994410D02*
Y1029970D01*
X716280Y1012190D02*
X721360D01*
X718820Y1009650D02*
Y1014730D01*
D11*
X733560Y901700D02*
G03*
X733560Y901700I-1250J0D01*
G01*
X491770D02*
G03*
X491770Y901700I-1250J0D01*
G01*
X612944Y752910D02*
G03*
X612944Y752910I-1250J0D01*
G01*
X481679D02*
G03*
X481679Y752910I-1250J0D01*
G01*
X351770D02*
G03*
X351770Y752910I-1250J0D01*
G01*
D12*
X734610Y880100D02*
G03*
X734610Y880100I-3000J0D01*
G01*
X492820D02*
G03*
X492820Y880100I-3000J0D01*
G01*
X635794Y741510D02*
G03*
X635794Y741510I-3000J0D01*
G01*
X504529D02*
G03*
X504529Y741510I-3000J0D01*
G01*
X374620D02*
G03*
X374620Y741510I-3000J0D01*
G01*
D13*
X750570Y473708D02*
Y466090D01*
Y468629D01*
X755648Y473708D01*
X751840Y469899D01*
X755648Y466090D01*
X749300Y1015997D02*
Y1008380D01*
Y1010919D01*
X754378Y1015997D01*
X750570Y1012189D01*
X754378Y1008380D01*
X612029Y481299D02*
X615414D01*
X613722D01*
Y491456D01*
X612029Y489763D01*
X625571Y481299D02*
Y491456D01*
X620493Y486377D01*
X627264D01*
X612029Y454299D02*
X615414D01*
X613722D01*
Y464456D01*
X612029Y462763D01*
X620493D02*
X622186Y464456D01*
X625571D01*
X627264Y462763D01*
Y461070D01*
X625571Y459377D01*
X623878D01*
X625571D01*
X627264Y457685D01*
Y455992D01*
X625571Y454299D01*
X622186D01*
X620493Y455992D01*
X424800Y481299D02*
X418029D01*
X424800Y488070D01*
Y489763D01*
X423107Y491456D01*
X419722D01*
X418029Y489763D01*
X421029Y454299D02*
X424414D01*
X422722D01*
Y464456D01*
X421029Y462763D01*
X611886Y1025971D02*
X615271D01*
X613578D01*
Y1036128D01*
X611886Y1034435D01*
X625428Y1025971D02*
Y1036128D01*
X620350Y1031049D01*
X627121D01*
X611886Y998971D02*
X615271D01*
X613578D01*
Y1009128D01*
X611886Y1007435D01*
X620350D02*
X622042Y1009128D01*
X625428D01*
X627121Y1007435D01*
Y1005742D01*
X625428Y1004049D01*
X623735D01*
X625428D01*
X627121Y1002356D01*
Y1000664D01*
X625428Y998971D01*
X622042D01*
X620350Y1000664D01*
X424657Y1025971D02*
X417886D01*
X424657Y1032742D01*
Y1034435D01*
X422964Y1036128D01*
X419578D01*
X417886Y1034435D01*
X420886Y998971D02*
X424271D01*
X422578D01*
Y1009128D01*
X420886Y1007435D01*
X720090Y477518D02*
Y469900D01*
X725168D01*
X732786Y477518D02*
X727708D01*
Y469900D01*
X732786D01*
X727708Y473709D02*
X730247D01*
X735325Y477518D02*
Y469900D01*
X739134D01*
X740403Y471170D01*
Y476248D01*
X739134Y477518D01*
X735325D01*
X742943Y469900D02*
X745482D01*
X744212D01*
Y477518D01*
X742943Y476248D01*
X750570Y473708D02*
Y466090D01*
Y468629D01*
X755648Y473708D01*
X751840Y469899D01*
X755648Y466090D01*
X718820Y1019808D02*
Y1012190D01*
X723898D01*
X731516Y1019808D02*
X726438D01*
Y1012190D01*
X731516D01*
X726438Y1015999D02*
X728977D01*
X734055Y1019808D02*
Y1012190D01*
X737864D01*
X739133Y1013460D01*
Y1018538D01*
X737864Y1019808D01*
X734055D01*
X746751Y1012190D02*
X741673D01*
X746751Y1017268D01*
Y1018538D01*
X745481Y1019808D01*
X742942D01*
X741673Y1018538D01*
X749300Y1015997D02*
Y1008380D01*
Y1010919D01*
X754378Y1015997D01*
X750570Y1012189D01*
X754378Y1008380D01*
D14*
X651002Y1072896D02*
Y1088131D01*
X658620D01*
X661159Y1085592D01*
Y1080514D01*
X658620Y1077974D01*
X651002D01*
X656080D02*
X661159Y1072896D01*
X666237D02*
X671315D01*
X668776D01*
Y1088131D01*
X666237Y1085592D01*
X686551Y1072896D02*
Y1088131D01*
X678933Y1080514D01*
X689090D01*
X651002Y531876D02*
Y547111D01*
X658620D01*
X661159Y544572D01*
Y539493D01*
X658620Y536954D01*
X651002D01*
X656080D02*
X661159Y531876D01*
X666237D02*
X671315D01*
X668776D01*
Y547111D01*
X666237Y544572D01*
X678933D02*
X681472Y547111D01*
X686551D01*
X689090Y544572D01*
Y542033D01*
X686551Y539493D01*
X684011D01*
X686551D01*
X689090Y536954D01*
Y534415D01*
X686551Y531876D01*
X681472D01*
X678933Y534415D01*
X688594Y1068065D02*
Y1052830D01*
X698751D01*
X713986Y1068065D02*
X703829D01*
Y1052830D01*
X713986D01*
X703829Y1060447D02*
X708907D01*
X719064Y1068065D02*
Y1052830D01*
X726682D01*
X729221Y1055369D01*
Y1065526D01*
X726682Y1068065D01*
X719064D01*
X744456Y1052830D02*
X734299D01*
X744456Y1062987D01*
Y1065526D01*
X741917Y1068065D01*
X736838D01*
X734299Y1065526D01*
X689864Y525775D02*
Y510540D01*
X700021D01*
X715256Y525775D02*
X705099D01*
Y510540D01*
X715256D01*
X705099Y518158D02*
X710177D01*
X720334Y525775D02*
Y510540D01*
X727952D01*
X730491Y513079D01*
Y523236D01*
X727952Y525775D01*
X720334D01*
X735569Y510540D02*
X740648D01*
X738108D01*
Y525775D01*
X735569Y523236D01*
X544322Y935223D02*
Y922527D01*
X546861Y919988D01*
X551940D01*
X554479Y922527D01*
Y935223D01*
X569714D02*
X559557D01*
Y927606D01*
X564635Y930145D01*
X567175D01*
X569714Y927606D01*
Y922527D01*
X567175Y919988D01*
X562096D01*
X559557Y922527D01*
X302514Y935223D02*
Y922527D01*
X305053Y919988D01*
X310131D01*
X312671Y922527D01*
Y935223D01*
X325367Y919988D02*
Y935223D01*
X317749Y927606D01*
X327906D01*
X604012Y778251D02*
Y765555D01*
X606551Y763016D01*
X611629D01*
X614169Y765555D01*
Y778251D01*
X619247Y775712D02*
X621786Y778251D01*
X626865D01*
X629404Y775712D01*
Y773173D01*
X626865Y770633D01*
X624325D01*
X626865D01*
X629404Y768094D01*
Y765555D01*
X626865Y763016D01*
X621786D01*
X619247Y765555D01*
X472694Y778251D02*
Y765555D01*
X475233Y763016D01*
X480312D01*
X482851Y765555D01*
Y778251D01*
X498086Y763016D02*
X487929D01*
X498086Y773173D01*
Y775712D01*
X495547Y778251D01*
X490468D01*
X487929Y775712D01*
X342900Y778251D02*
Y765555D01*
X345439Y763016D01*
X350518D01*
X353057Y765555D01*
Y778251D01*
X358135Y763016D02*
X363213D01*
X360674D01*
Y778251D01*
X358135Y775712D01*
X712724Y1208024D02*
Y1223259D01*
X720341D01*
X722881Y1220720D01*
Y1215641D01*
X720341Y1213102D01*
X712724D01*
X717802D02*
X722881Y1208024D01*
X727959D02*
X733037D01*
X730498D01*
Y1223259D01*
X727959Y1220720D01*
X750812Y1208024D02*
X740655D01*
X750812Y1218181D01*
Y1220720D01*
X748272Y1223259D01*
X743194D01*
X740655Y1220720D01*
X310642Y1208024D02*
Y1223259D01*
X318260D01*
X320799Y1220720D01*
Y1215641D01*
X318260Y1213102D01*
X310642D01*
X315720D02*
X320799Y1208024D01*
X325877D02*
X330955D01*
X328416D01*
Y1223259D01*
X325877Y1220720D01*
X338573Y1208024D02*
X343651D01*
X341112D01*
Y1223259D01*
X338573Y1220720D01*
X678180Y1208024D02*
Y1223259D01*
X685798D01*
X688337Y1220720D01*
Y1215641D01*
X685798Y1213102D01*
X678180D01*
X683258D02*
X688337Y1208024D01*
X693415D02*
X698493D01*
X695954D01*
Y1223259D01*
X693415Y1220720D01*
X706111D02*
X708650Y1223259D01*
X713728D01*
X716268Y1220720D01*
Y1210563D01*
X713728Y1208024D01*
X708650D01*
X706111Y1210563D01*
Y1220720D01*
X350012Y1208024D02*
Y1223259D01*
X357630D01*
X360169Y1220720D01*
Y1215641D01*
X357630Y1213102D01*
X350012D01*
X355090D02*
X360169Y1208024D01*
X365247Y1210563D02*
X367786Y1208024D01*
X372865D01*
X375404Y1210563D01*
Y1220720D01*
X372865Y1223259D01*
X367786D01*
X365247Y1220720D01*
Y1218181D01*
X367786Y1215641D01*
X375404D01*
X643128Y1208024D02*
Y1223259D01*
X650745D01*
X653285Y1220720D01*
Y1215641D01*
X650745Y1213102D01*
X643128D01*
X648206D02*
X653285Y1208024D01*
X658363Y1220720D02*
X660902Y1223259D01*
X665981D01*
X668520Y1220720D01*
Y1218181D01*
X665981Y1215641D01*
X668520Y1213102D01*
Y1210563D01*
X665981Y1208024D01*
X660902D01*
X658363Y1210563D01*
Y1213102D01*
X660902Y1215641D01*
X658363Y1218181D01*
Y1220720D01*
X660902Y1215641D02*
X665981D01*
X388874Y1208024D02*
Y1223259D01*
X396492D01*
X399031Y1220720D01*
Y1215641D01*
X396492Y1213102D01*
X388874D01*
X393952D02*
X399031Y1208024D01*
X404109Y1223259D02*
X414266D01*
Y1220720D01*
X404109Y1210563D01*
Y1208024D01*
X609600D02*
Y1223259D01*
X617217D01*
X619757Y1220720D01*
Y1215641D01*
X617217Y1213102D01*
X609600D01*
X614678D02*
X619757Y1208024D01*
X634992Y1223259D02*
X629913Y1220720D01*
X624835Y1215641D01*
Y1210563D01*
X627374Y1208024D01*
X632453D01*
X634992Y1210563D01*
Y1213102D01*
X632453Y1215641D01*
X624835D01*
X424688Y1208024D02*
Y1223259D01*
X432305D01*
X434845Y1220720D01*
Y1215641D01*
X432305Y1213102D01*
X424688D01*
X429766D02*
X434845Y1208024D01*
X450080Y1223259D02*
X439923D01*
Y1215641D01*
X445001Y1218181D01*
X447541D01*
X450080Y1215641D01*
Y1210563D01*
X447541Y1208024D01*
X442462D01*
X439923Y1210563D01*
X573786Y1208024D02*
Y1223259D01*
X581404D01*
X583943Y1220720D01*
Y1215641D01*
X581404Y1213102D01*
X573786D01*
X578864D02*
X583943Y1208024D01*
X596639D02*
Y1223259D01*
X589021Y1215641D01*
X599178D01*
X465074Y1208024D02*
Y1223259D01*
X472691D01*
X475231Y1220720D01*
Y1215641D01*
X472691Y1213102D01*
X465074D01*
X470152D02*
X475231Y1208024D01*
X480309Y1220720D02*
X482848Y1223259D01*
X487927D01*
X490466Y1220720D01*
Y1218181D01*
X487927Y1215641D01*
X485387D01*
X487927D01*
X490466Y1213102D01*
Y1210563D01*
X487927Y1208024D01*
X482848D01*
X480309Y1210563D01*
X539496Y1208024D02*
Y1223259D01*
X547113D01*
X549653Y1220720D01*
Y1215641D01*
X547113Y1213102D01*
X539496D01*
X544574D02*
X549653Y1208024D01*
X564888D02*
X554731D01*
X564888Y1218181D01*
Y1220720D01*
X562349Y1223259D01*
X557270D01*
X554731Y1220720D01*
X502920Y1208024D02*
Y1223259D01*
X510537D01*
X513077Y1220720D01*
Y1215641D01*
X510537Y1213102D01*
X502920D01*
X507998D02*
X513077Y1208024D01*
X518155D02*
X523233D01*
X520694D01*
Y1223259D01*
X518155Y1220720D01*
X419100Y508254D02*
Y523489D01*
X426717D01*
X429257Y520950D01*
Y515872D01*
X426717Y513332D01*
X419100D01*
X444492Y508254D02*
X434335D01*
X444492Y518411D01*
Y520950D01*
X441953Y523489D01*
X436874D01*
X434335Y520950D01*
X418846Y1053084D02*
Y1068319D01*
X426464D01*
X429003Y1065780D01*
Y1060702D01*
X426464Y1058162D01*
X418846D01*
X434081Y1053084D02*
X439159D01*
X436620D01*
Y1068319D01*
X434081Y1065780D01*
D15*
X271056Y400050D02*
Y1244600D01*
Y400050D02*
X772160D01*
Y1244600D01*
X271056D02*
X772160D01*
D16*
X650026Y894080D02*
X640029D01*
X638030Y892081D01*
Y888082D01*
X640029Y886083D01*
X650026D01*
Y874087D02*
Y882084D01*
X644028D01*
X646027Y878085D01*
Y876086D01*
X644028Y874087D01*
X640029D01*
X638030Y876086D01*
Y880085D01*
X640029Y882084D01*
X408236Y894080D02*
X398239D01*
X396240Y892081D01*
Y888082D01*
X398239Y886083D01*
X408236D01*
X396240Y876086D02*
X408236D01*
X402238Y882084D01*
Y874087D01*
D17*
X737610Y887600D02*
G03*
X737610Y887600I-5000J0D01*
G01*
X495820D02*
G03*
X495820Y887600I-5000J0D01*
G01*
X629544Y742510D02*
G03*
X629544Y742510I-5000J0D01*
G01*
X498279D02*
G03*
X498279Y742510I-5000J0D01*
G01*
X368370D02*
G03*
X368370Y742510I-5000J0D01*
G01*
X649670Y439670D02*
X673670D01*
X649670D02*
Y502670D01*
X673670Y439670D02*
Y502670D01*
X649670D02*
X673670D01*
X649670Y980690D02*
X673670D01*
X649670D02*
Y1043690D01*
X673670Y980690D02*
Y1043690D01*
X649670D02*
X673670D01*
X544609Y896600D02*
X741610D01*
X544609Y830600D02*
X741610D01*
Y896600D01*
X544609Y830600D02*
Y896600D01*
X302820D02*
X499820D01*
X302820Y830600D02*
X499820D01*
Y896600D01*
X302820Y830600D02*
Y896600D01*
X615544Y551510D02*
Y751510D01*
X684044Y551510D02*
Y751510D01*
X615544D02*
X684044D01*
X615544Y551510D02*
X684044D01*
X484279D02*
Y751510D01*
X552779Y551510D02*
Y751510D01*
X484279D02*
X552779D01*
X484279Y551510D02*
X552779D01*
X354370D02*
Y751510D01*
X422870Y551510D02*
Y751510D01*
X354370D02*
X422870D01*
X354370Y551510D02*
X422870D01*
X711561Y1178860D02*
X735561D01*
Y1115860D02*
Y1178860D01*
X711561Y1115860D02*
Y1178860D01*
Y1115860D02*
X735561D01*
X309370Y1178860D02*
X333370D01*
Y1115860D02*
Y1178860D01*
X309370Y1115860D02*
Y1178860D01*
Y1115860D02*
X333370D01*
X676880Y1178860D02*
X700880D01*
Y1115860D02*
Y1178860D01*
X676880Y1115860D02*
Y1178860D01*
Y1115860D02*
X700880D01*
X348829Y1178860D02*
X372829D01*
Y1115860D02*
Y1178860D01*
X348829Y1115860D02*
Y1178860D01*
Y1115860D02*
X372829D01*
X641866Y1178860D02*
X665866D01*
Y1115860D02*
Y1178860D01*
X641866Y1115860D02*
Y1178860D01*
Y1115860D02*
X665866D01*
X387619Y1178860D02*
X411619D01*
Y1115860D02*
Y1178860D01*
X387619Y1115860D02*
Y1178860D01*
Y1115860D02*
X411619D01*
X608343Y1178860D02*
X632343D01*
Y1115860D02*
Y1178860D01*
X608343Y1115860D02*
Y1178860D01*
Y1115860D02*
X632343D01*
X423379Y1178860D02*
X447379D01*
Y1115860D02*
Y1178860D01*
X423379Y1115860D02*
Y1178860D01*
Y1115860D02*
X447379D01*
X572486Y1178860D02*
X596486D01*
Y1115860D02*
Y1178860D01*
X572486Y1115860D02*
Y1178860D01*
Y1115860D02*
X596486D01*
X463688Y1178860D02*
X487688D01*
Y1115860D02*
Y1178860D01*
X463688Y1115860D02*
Y1178860D01*
Y1115860D02*
X487688D01*
X538231Y1178860D02*
X562231D01*
Y1115860D02*
Y1178860D01*
X538231Y1115860D02*
Y1178860D01*
Y1115860D02*
X562231D01*
X501739Y1178860D02*
X525739D01*
Y1115860D02*
Y1178860D01*
X501739Y1115860D02*
Y1178860D01*
Y1115860D02*
X525739D01*
X429629Y497699D02*
X607429D01*
Y446899D02*
Y497699D01*
X429629Y446899D02*
X607429D01*
X429629D02*
Y497699D01*
X429486Y1042371D02*
X607286D01*
Y991571D02*
Y1042371D01*
X429486Y991571D02*
X607286D01*
X429486D02*
Y1042371D01*
X656670Y471170D02*
X666670D01*
X661670Y466170D02*
Y476170D01*
X656670Y1012190D02*
X666670D01*
X661670Y1007190D02*
Y1017190D01*
X643110Y858600D02*
Y868600D01*
X638110Y863600D02*
X648109D01*
X401320Y858600D02*
Y868600D01*
X396320Y863600D02*
X406320D01*
X644794Y651510D02*
X654794D01*
X649794Y646510D02*
Y656510D01*
X513529Y651510D02*
X523529D01*
X518529Y646510D02*
Y656510D01*
X383620Y651510D02*
X393620D01*
X388620Y646510D02*
Y656510D01*
X723561Y1142360D02*
Y1152360D01*
X718561Y1147360D02*
X728561D01*
X321371Y1142360D02*
Y1152360D01*
X316371Y1147360D02*
X326371D01*
X688880Y1142360D02*
Y1152360D01*
X683880Y1147360D02*
X693880D01*
X360829Y1142360D02*
Y1152360D01*
X355830Y1147360D02*
X365830D01*
X653866Y1142360D02*
Y1152360D01*
X648866Y1147360D02*
X658866D01*
X399619Y1142360D02*
Y1152360D01*
X394619Y1147360D02*
X404619D01*
X620343Y1142360D02*
Y1152360D01*
X615343Y1147360D02*
X625343D01*
X435379Y1142360D02*
Y1152360D01*
X430379Y1147360D02*
X440379D01*
X584486Y1142360D02*
Y1152360D01*
X579486Y1147360D02*
X589486D01*
X475688Y1142360D02*
Y1152360D01*
X470688Y1147360D02*
X480688D01*
X550231Y1142360D02*
Y1152360D01*
X545231Y1147360D02*
X555231D01*
X513739Y1142360D02*
Y1152360D01*
X508739Y1147360D02*
X518739D01*
D18*
X648670Y523920D02*
X674670D01*
X648670Y418420D02*
Y523920D01*
X674670Y418420D02*
Y523920D01*
X648670Y418420D02*
X674670D01*
X648670Y1064940D02*
X674670D01*
X648670Y959440D02*
Y1064940D01*
X674670Y959440D02*
Y1064940D01*
X648670Y959440D02*
X674670D01*
X542110Y912100D02*
X744110D01*
X542110Y815100D02*
X744110D01*
Y912100D01*
X542110Y815100D02*
Y912100D01*
X300320D02*
X502320D01*
X300320Y815100D02*
X502320D01*
Y912100D01*
X300320Y815100D02*
Y912100D01*
X601794Y549010D02*
Y754010D01*
X697794Y549010D02*
Y754010D01*
X601794D02*
X697794D01*
X601794Y549010D02*
X697794D01*
X470529D02*
Y754010D01*
X566529Y549010D02*
Y754010D01*
X470529D02*
X566529D01*
X470529Y549010D02*
X566529D01*
X340620D02*
Y754010D01*
X436620Y549010D02*
Y754010D01*
X340620D02*
X436620D01*
X340620Y549010D02*
X436620D01*
X710560Y1094610D02*
X736561D01*
Y1200110D01*
X710560Y1094610D02*
Y1200110D01*
X736561D01*
X308370Y1094610D02*
X334371D01*
Y1200110D01*
X308370Y1094610D02*
Y1200110D01*
X334371D01*
X675880Y1094610D02*
X701880D01*
Y1200110D01*
X675880Y1094610D02*
Y1200110D01*
X701880D01*
X347829Y1094610D02*
X373830D01*
Y1200110D01*
X347829Y1094610D02*
Y1200110D01*
X373830D01*
X640866Y1094610D02*
X666866D01*
Y1200110D01*
X640866Y1094610D02*
Y1200110D01*
X666866D01*
X386619Y1094610D02*
X412619D01*
Y1200110D01*
X386619Y1094610D02*
Y1200110D01*
X412619D01*
X607343Y1094610D02*
X633343D01*
Y1200110D01*
X607343Y1094610D02*
Y1200110D01*
X633343D01*
X422379Y1094610D02*
X448379D01*
Y1200110D01*
X422379Y1094610D02*
Y1200110D01*
X448379D01*
X571486Y1094610D02*
X597486D01*
Y1200110D01*
X571486Y1094610D02*
Y1200110D01*
X597486D01*
X462688Y1094610D02*
X488688D01*
Y1200110D01*
X462688Y1094610D02*
Y1200110D01*
X488688D01*
X537231Y1094610D02*
X563231D01*
Y1200110D01*
X537231Y1094610D02*
Y1200110D01*
X563231D01*
X500739Y1094610D02*
X526739D01*
Y1200110D01*
X500739Y1094610D02*
Y1200110D01*
X526739D01*
X426129Y444149D02*
Y500449D01*
Y444149D02*
X610929D01*
Y500449D01*
X426129D02*
X610929D01*
X518529Y467299D02*
Y477299D01*
X513529Y472299D02*
X523529D01*
X425985Y988821D02*
Y1045121D01*
Y988821D02*
X610786D01*
Y1045121D01*
X425985D02*
X610786D01*
X518386Y1011971D02*
Y1021971D01*
X513386Y1016971D02*
X523386D01*
M02*
