G04*
G04 #@! TF.GenerationSoftware,Altium Limited,Altium Designer,22.9.1 (49)*
G04*
G04 Layer_Color=128*
%FSLAX44Y44*%
%MOMM*%
G71*
G04*
G04 #@! TF.SameCoordinates,73C1D453-A157-4A54-B1A5-12706931D713*
G04*
G04*
G04 #@! TF.FilePolarity,Positive*
G04*
G01*
G75*
%ADD10C,0.2000*%
%ADD13C,0.1524*%
%ADD15C,1.2000*%
%ADD16C,0.1500*%
%ADD17C,0.1000*%
%ADD18C,0.0500*%
%ADD38C,0.0508*%
D10*
X688340Y501650D02*
X748030D01*
Y438150D02*
Y501650D01*
X688340Y438150D02*
X748030D01*
X688340D02*
Y501650D01*
X687070Y1043940D02*
X746760D01*
Y980440D02*
Y1043940D01*
X687070Y980440D02*
X746760D01*
X687070D02*
Y1043940D01*
X746760Y487680D02*
G03*
X746255Y451440I-26526J-17754D01*
G01*
X745490Y1029970D02*
G03*
X744985Y993730I-26526J-17754D01*
G01*
X746760Y452120D02*
Y487680D01*
X717550Y469900D02*
X722630D01*
X720090Y467360D02*
Y472440D01*
X745490Y994410D02*
Y1029970D01*
X716280Y1012190D02*
X721360D01*
X718820Y1009650D02*
Y1014730D01*
D13*
X720090Y477518D02*
Y469900D01*
X725168D01*
X732786Y477518D02*
X727708D01*
Y469900D01*
X732786D01*
X727708Y473709D02*
X730247D01*
X735325Y477518D02*
Y469900D01*
X739134D01*
X740403Y471170D01*
Y476248D01*
X739134Y477518D01*
X735325D01*
X742943Y469900D02*
X745482D01*
X744212D01*
Y477518D01*
X742943Y476248D01*
X750570Y473708D02*
Y466090D01*
Y468629D01*
X755648Y473708D01*
X751840Y469899D01*
X755648Y466090D01*
X718820Y1019808D02*
Y1012190D01*
X723898D01*
X731516Y1019808D02*
X726438D01*
Y1012190D01*
X731516D01*
X726438Y1015999D02*
X728977D01*
X734055Y1019808D02*
Y1012190D01*
X737864D01*
X739133Y1013460D01*
Y1018538D01*
X737864Y1019808D01*
X734055D01*
X746751Y1012190D02*
X741673D01*
X746751Y1017268D01*
Y1018538D01*
X745481Y1019808D01*
X742942D01*
X741673Y1018538D01*
X749300Y1015997D02*
Y1008380D01*
Y1010919D01*
X754378Y1015997D01*
X750570Y1012189D01*
X754378Y1008380D01*
D15*
X271056Y400050D02*
Y1244600D01*
Y400050D02*
X772160D01*
Y1244600D01*
X271056D02*
X772160D01*
D16*
X650026Y894080D02*
X640029D01*
X638030Y892081D01*
Y888082D01*
X640029Y886083D01*
X650026D01*
Y874087D02*
Y882084D01*
X644028D01*
X646027Y878085D01*
Y876086D01*
X644028Y874087D01*
X640029D01*
X638030Y876086D01*
Y880085D01*
X640029Y882084D01*
X408236Y894080D02*
X398239D01*
X396240Y892081D01*
Y888082D01*
X398239Y886083D01*
X408236D01*
X396240Y876086D02*
X408236D01*
X402238Y882084D01*
Y874087D01*
D17*
X737610Y887600D02*
G03*
X737610Y887600I-5000J0D01*
G01*
X495820D02*
G03*
X495820Y887600I-5000J0D01*
G01*
X629544Y742510D02*
G03*
X629544Y742510I-5000J0D01*
G01*
X498279D02*
G03*
X498279Y742510I-5000J0D01*
G01*
X368370D02*
G03*
X368370Y742510I-5000J0D01*
G01*
X649670Y439670D02*
X673670D01*
X649670D02*
Y502670D01*
X673670Y439670D02*
Y502670D01*
X649670D02*
X673670D01*
X649670Y980690D02*
X673670D01*
X649670D02*
Y1043690D01*
X673670Y980690D02*
Y1043690D01*
X649670D02*
X673670D01*
X544609Y896600D02*
X741610D01*
X544609Y830600D02*
X741610D01*
Y896600D01*
X544609Y830600D02*
Y896600D01*
X302820D02*
X499820D01*
X302820Y830600D02*
X499820D01*
Y896600D01*
X302820Y830600D02*
Y896600D01*
X615544Y551510D02*
Y751510D01*
X684044Y551510D02*
Y751510D01*
X615544D02*
X684044D01*
X615544Y551510D02*
X684044D01*
X484279D02*
Y751510D01*
X552779Y551510D02*
Y751510D01*
X484279D02*
X552779D01*
X484279Y551510D02*
X552779D01*
X354370D02*
Y751510D01*
X422870Y551510D02*
Y751510D01*
X354370D02*
X422870D01*
X354370Y551510D02*
X422870D01*
X711561Y1178860D02*
X735561D01*
Y1115860D02*
Y1178860D01*
X711561Y1115860D02*
Y1178860D01*
Y1115860D02*
X735561D01*
X309370Y1178860D02*
X333370D01*
Y1115860D02*
Y1178860D01*
X309370Y1115860D02*
Y1178860D01*
Y1115860D02*
X333370D01*
X676880Y1178860D02*
X700880D01*
Y1115860D02*
Y1178860D01*
X676880Y1115860D02*
Y1178860D01*
Y1115860D02*
X700880D01*
X348829Y1178860D02*
X372829D01*
Y1115860D02*
Y1178860D01*
X348829Y1115860D02*
Y1178860D01*
Y1115860D02*
X372829D01*
X641866Y1178860D02*
X665866D01*
Y1115860D02*
Y1178860D01*
X641866Y1115860D02*
Y1178860D01*
Y1115860D02*
X665866D01*
X387619Y1178860D02*
X411619D01*
Y1115860D02*
Y1178860D01*
X387619Y1115860D02*
Y1178860D01*
Y1115860D02*
X411619D01*
X608343Y1178860D02*
X632343D01*
Y1115860D02*
Y1178860D01*
X608343Y1115860D02*
Y1178860D01*
Y1115860D02*
X632343D01*
X423379Y1178860D02*
X447379D01*
Y1115860D02*
Y1178860D01*
X423379Y1115860D02*
Y1178860D01*
Y1115860D02*
X447379D01*
X572486Y1178860D02*
X596486D01*
Y1115860D02*
Y1178860D01*
X572486Y1115860D02*
Y1178860D01*
Y1115860D02*
X596486D01*
X463688Y1178860D02*
X487688D01*
Y1115860D02*
Y1178860D01*
X463688Y1115860D02*
Y1178860D01*
Y1115860D02*
X487688D01*
X538231Y1178860D02*
X562231D01*
Y1115860D02*
Y1178860D01*
X538231Y1115860D02*
Y1178860D01*
Y1115860D02*
X562231D01*
X501739Y1178860D02*
X525739D01*
Y1115860D02*
Y1178860D01*
X501739Y1115860D02*
Y1178860D01*
Y1115860D02*
X525739D01*
X429629Y497699D02*
X607429D01*
Y446899D02*
Y497699D01*
X429629Y446899D02*
X607429D01*
X429629D02*
Y497699D01*
X429486Y1042371D02*
X607286D01*
Y991571D02*
Y1042371D01*
X429486Y991571D02*
X607286D01*
X429486D02*
Y1042371D01*
X656670Y471170D02*
X666670D01*
X661670Y466170D02*
Y476170D01*
X656670Y1012190D02*
X666670D01*
X661670Y1007190D02*
Y1017190D01*
X643110Y858600D02*
Y868600D01*
X638110Y863600D02*
X648109D01*
X401320Y858600D02*
Y868600D01*
X396320Y863600D02*
X406320D01*
X644794Y651510D02*
X654794D01*
X649794Y646510D02*
Y656510D01*
X513529Y651510D02*
X523529D01*
X518529Y646510D02*
Y656510D01*
X383620Y651510D02*
X393620D01*
X388620Y646510D02*
Y656510D01*
X723561Y1142360D02*
Y1152360D01*
X718561Y1147360D02*
X728561D01*
X321371Y1142360D02*
Y1152360D01*
X316371Y1147360D02*
X326371D01*
X688880Y1142360D02*
Y1152360D01*
X683880Y1147360D02*
X693880D01*
X360829Y1142360D02*
Y1152360D01*
X355830Y1147360D02*
X365830D01*
X653866Y1142360D02*
Y1152360D01*
X648866Y1147360D02*
X658866D01*
X399619Y1142360D02*
Y1152360D01*
X394619Y1147360D02*
X404619D01*
X620343Y1142360D02*
Y1152360D01*
X615343Y1147360D02*
X625343D01*
X435379Y1142360D02*
Y1152360D01*
X430379Y1147360D02*
X440379D01*
X584486Y1142360D02*
Y1152360D01*
X579486Y1147360D02*
X589486D01*
X475688Y1142360D02*
Y1152360D01*
X470688Y1147360D02*
X480688D01*
X550231Y1142360D02*
Y1152360D01*
X545231Y1147360D02*
X555231D01*
X513739Y1142360D02*
Y1152360D01*
X508739Y1147360D02*
X518739D01*
D18*
X648670Y523920D02*
X674670D01*
X648670Y418420D02*
Y523920D01*
X674670Y418420D02*
Y523920D01*
X648670Y418420D02*
X674670D01*
X648670Y1064940D02*
X674670D01*
X648670Y959440D02*
Y1064940D01*
X674670Y959440D02*
Y1064940D01*
X648670Y959440D02*
X674670D01*
X542110Y912100D02*
X744110D01*
X542110Y815100D02*
X744110D01*
Y912100D01*
X542110Y815100D02*
Y912100D01*
X300320D02*
X502320D01*
X300320Y815100D02*
X502320D01*
Y912100D01*
X300320Y815100D02*
Y912100D01*
X601794Y549010D02*
Y754010D01*
X697794Y549010D02*
Y754010D01*
X601794D02*
X697794D01*
X601794Y549010D02*
X697794D01*
X470529D02*
Y754010D01*
X566529Y549010D02*
Y754010D01*
X470529D02*
X566529D01*
X470529Y549010D02*
X566529D01*
X340620D02*
Y754010D01*
X436620Y549010D02*
Y754010D01*
X340620D02*
X436620D01*
X340620Y549010D02*
X436620D01*
X710560Y1094610D02*
X736561D01*
Y1200110D01*
X710560Y1094610D02*
Y1200110D01*
X736561D01*
X308370Y1094610D02*
X334371D01*
Y1200110D01*
X308370Y1094610D02*
Y1200110D01*
X334371D01*
X675880Y1094610D02*
X701880D01*
Y1200110D01*
X675880Y1094610D02*
Y1200110D01*
X701880D01*
X347829Y1094610D02*
X373830D01*
Y1200110D01*
X347829Y1094610D02*
Y1200110D01*
X373830D01*
X640866Y1094610D02*
X666866D01*
Y1200110D01*
X640866Y1094610D02*
Y1200110D01*
X666866D01*
X386619Y1094610D02*
X412619D01*
Y1200110D01*
X386619Y1094610D02*
Y1200110D01*
X412619D01*
X607343Y1094610D02*
X633343D01*
Y1200110D01*
X607343Y1094610D02*
Y1200110D01*
X633343D01*
X422379Y1094610D02*
X448379D01*
Y1200110D01*
X422379Y1094610D02*
Y1200110D01*
X448379D01*
X571486Y1094610D02*
X597486D01*
Y1200110D01*
X571486Y1094610D02*
Y1200110D01*
X597486D01*
X462688Y1094610D02*
X488688D01*
Y1200110D01*
X462688Y1094610D02*
Y1200110D01*
X488688D01*
X537231Y1094610D02*
X563231D01*
Y1200110D01*
X537231Y1094610D02*
Y1200110D01*
X563231D01*
X500739Y1094610D02*
X526739D01*
Y1200110D01*
X500739Y1094610D02*
Y1200110D01*
X526739D01*
X426129Y444149D02*
Y500449D01*
Y444149D02*
X610929D01*
Y500449D01*
X426129D02*
X610929D01*
X518529Y467299D02*
Y477299D01*
X513529Y472299D02*
X523529D01*
X425985Y988821D02*
Y1045121D01*
Y988821D02*
X610786D01*
Y1045121D01*
X425985D02*
X610786D01*
X518386Y1011971D02*
Y1021971D01*
X513386Y1016971D02*
X523386D01*
D38*
X727790Y469900D02*
X737790D01*
X732790Y464900D02*
Y474900D01*
X702390Y469900D02*
X712390D01*
X707390Y464900D02*
Y474900D01*
X657420Y426170D02*
X665920D01*
X661670Y421920D02*
Y430420D01*
X657420Y516170D02*
X665920D01*
X661670Y511920D02*
Y520420D01*
X726520Y1012190D02*
X736520D01*
X731520Y1007190D02*
Y1017190D01*
X701120Y1012190D02*
X711120D01*
X706120Y1007190D02*
Y1017190D01*
X657420Y967190D02*
X665920D01*
X661670Y962940D02*
Y971440D01*
X657420Y1057190D02*
X665920D01*
X661670Y1052940D02*
Y1061440D01*
X714810Y901700D02*
X723810D01*
X719310Y897200D02*
Y906200D01*
X689410Y901700D02*
X698410D01*
X693910Y897200D02*
Y906200D01*
X664010Y901700D02*
X673010D01*
X668510Y897200D02*
Y906200D01*
X638610Y901700D02*
X647610D01*
X643110Y897200D02*
Y906200D01*
X613210Y901700D02*
X622210D01*
X617710Y897200D02*
Y906200D01*
X587810Y901700D02*
X596810D01*
X592310Y897200D02*
Y906200D01*
X562410Y901700D02*
X571410D01*
X566910Y897200D02*
Y906200D01*
X714810Y825500D02*
X723810D01*
X719310Y821000D02*
Y830000D01*
X689410Y825500D02*
X698410D01*
X693910Y821000D02*
Y830000D01*
X664010Y825500D02*
X673010D01*
X668510Y821000D02*
Y830000D01*
X638610Y825500D02*
X647610D01*
X643110Y821000D02*
Y830000D01*
X613210Y825500D02*
X622210D01*
X617710Y821000D02*
Y830000D01*
X587810Y825500D02*
X596810D01*
X592310Y821000D02*
Y830000D01*
X562410Y825500D02*
X571410D01*
X566910Y821000D02*
Y830000D01*
X473020Y901700D02*
X482020D01*
X477520Y897200D02*
Y906200D01*
X447620Y901700D02*
X456620D01*
X452120Y897200D02*
Y906200D01*
X422220Y901700D02*
X431220D01*
X426720Y897200D02*
Y906200D01*
X396820Y901700D02*
X405820D01*
X401320Y897200D02*
Y906200D01*
X371420Y901700D02*
X380420D01*
X375920Y897200D02*
Y906200D01*
X346020Y901700D02*
X355020D01*
X350520Y897200D02*
Y906200D01*
X320620Y901700D02*
X329620D01*
X325120Y897200D02*
Y906200D01*
X473020Y825500D02*
X482020D01*
X477520Y821000D02*
Y830000D01*
X447620Y825500D02*
X456620D01*
X452120Y821000D02*
Y830000D01*
X422220Y825500D02*
X431220D01*
X426720Y821000D02*
Y830000D01*
X396820Y825500D02*
X405820D01*
X401320Y821000D02*
Y830000D01*
X371420Y825500D02*
X380420D01*
X375920Y821000D02*
Y830000D01*
X346020Y825500D02*
X355020D01*
X350520Y821000D02*
Y830000D01*
X320620Y825500D02*
X329620D01*
X325120Y821000D02*
Y830000D01*
X607694Y740410D02*
X615694D01*
X611694Y736410D02*
Y744410D01*
X607694Y715010D02*
X615694D01*
X611694Y711010D02*
Y719010D01*
X607694Y689610D02*
X615694D01*
X611694Y685610D02*
Y693610D01*
X607694Y664210D02*
X615694D01*
X611694Y660210D02*
Y668210D01*
X607694Y638810D02*
X615694D01*
X611694Y634810D02*
Y642810D01*
X607694Y613410D02*
X615694D01*
X611694Y609410D02*
Y617410D01*
X607694Y588010D02*
X615694D01*
X611694Y584010D02*
Y592010D01*
X607694Y562610D02*
X615694D01*
X611694Y558610D02*
Y566610D01*
X683894Y740410D02*
X691894D01*
X687894Y736410D02*
Y744410D01*
X683894Y715010D02*
X691894D01*
X687894Y711010D02*
Y719010D01*
X683894Y689610D02*
X691894D01*
X687894Y685610D02*
Y693610D01*
X683894Y664210D02*
X691894D01*
X687894Y660210D02*
Y668210D01*
X683894Y638810D02*
X691894D01*
X687894Y634810D02*
Y642810D01*
X683894Y613410D02*
X691894D01*
X687894Y609410D02*
Y617410D01*
X683894Y588010D02*
X691894D01*
X687894Y584010D02*
Y592010D01*
X683894Y562610D02*
X691894D01*
X687894Y558610D02*
Y566610D01*
X476429Y740410D02*
X484429D01*
X480429Y736410D02*
Y744410D01*
X476429Y715010D02*
X484429D01*
X480429Y711010D02*
Y719010D01*
X476429Y689610D02*
X484429D01*
X480429Y685610D02*
Y693610D01*
X476429Y664210D02*
X484429D01*
X480429Y660210D02*
Y668210D01*
X476429Y638810D02*
X484429D01*
X480429Y634810D02*
Y642810D01*
X476429Y613410D02*
X484429D01*
X480429Y609410D02*
Y617410D01*
X476429Y588010D02*
X484429D01*
X480429Y584010D02*
Y592010D01*
X476429Y562610D02*
X484429D01*
X480429Y558610D02*
Y566610D01*
X552629Y740410D02*
X560629D01*
X556629Y736410D02*
Y744410D01*
X552629Y715010D02*
X560629D01*
X556629Y711010D02*
Y719010D01*
X552629Y689610D02*
X560629D01*
X556629Y685610D02*
Y693610D01*
X552629Y664210D02*
X560629D01*
X556629Y660210D02*
Y668210D01*
X552629Y638810D02*
X560629D01*
X556629Y634810D02*
Y642810D01*
X552629Y613410D02*
X560629D01*
X556629Y609410D02*
Y617410D01*
X552629Y588010D02*
X560629D01*
X556629Y584010D02*
Y592010D01*
X552629Y562610D02*
X560629D01*
X556629Y558610D02*
Y566610D01*
X346520Y740410D02*
X354520D01*
X350520Y736410D02*
Y744410D01*
X346520Y715010D02*
X354520D01*
X350520Y711010D02*
Y719010D01*
X346520Y689610D02*
X354520D01*
X350520Y685610D02*
Y693610D01*
X346520Y664210D02*
X354520D01*
X350520Y660210D02*
Y668210D01*
X346520Y638810D02*
X354520D01*
X350520Y634810D02*
Y642810D01*
X346520Y613410D02*
X354520D01*
X350520Y609410D02*
Y617410D01*
X346520Y588010D02*
X354520D01*
X350520Y584010D02*
Y592010D01*
X346520Y562610D02*
X354520D01*
X350520Y558610D02*
Y566610D01*
X422720Y740410D02*
X430720D01*
X426720Y736410D02*
Y744410D01*
X422720Y715010D02*
X430720D01*
X426720Y711010D02*
Y719010D01*
X422720Y689610D02*
X430720D01*
X426720Y685610D02*
Y693610D01*
X422720Y664210D02*
X430720D01*
X426720Y660210D02*
Y668210D01*
X422720Y638810D02*
X430720D01*
X426720Y634810D02*
Y642810D01*
X422720Y613410D02*
X430720D01*
X426720Y609410D02*
Y617410D01*
X422720Y588010D02*
X430720D01*
X426720Y584010D02*
Y592010D01*
X422720Y562610D02*
X430720D01*
X426720Y558610D02*
Y566610D01*
X719311Y1192360D02*
X727811D01*
X723561Y1188110D02*
Y1196610D01*
X719311Y1102360D02*
X727811D01*
X723561Y1098110D02*
Y1106610D01*
X317120Y1192360D02*
X325620D01*
X321371Y1188110D02*
Y1196610D01*
X317120Y1102360D02*
X325620D01*
X321371Y1098110D02*
Y1106610D01*
X684630Y1192360D02*
X693130D01*
X688880Y1188110D02*
Y1196610D01*
X684630Y1102360D02*
X693130D01*
X688880Y1098110D02*
Y1106610D01*
X356579Y1192360D02*
X365079D01*
X360829Y1188110D02*
Y1196610D01*
X356579Y1102360D02*
X365079D01*
X360829Y1098110D02*
Y1106610D01*
X649616Y1192360D02*
X658116D01*
X653866Y1188110D02*
Y1196610D01*
X649616Y1102360D02*
X658116D01*
X653866Y1098110D02*
Y1106610D01*
X395369Y1192360D02*
X403869D01*
X399619Y1188110D02*
Y1196610D01*
X395369Y1102360D02*
X403869D01*
X399619Y1098110D02*
Y1106610D01*
X616093Y1192360D02*
X624593D01*
X620343Y1188110D02*
Y1196610D01*
X616093Y1102360D02*
X624593D01*
X620343Y1098110D02*
Y1106610D01*
X431129Y1192360D02*
X439629D01*
X435379Y1188110D02*
Y1196610D01*
X431129Y1102360D02*
X439629D01*
X435379Y1098110D02*
Y1106610D01*
X580236Y1192360D02*
X588736D01*
X584486Y1188110D02*
Y1196610D01*
X580236Y1102360D02*
X588736D01*
X584486Y1098110D02*
Y1106610D01*
X471438Y1192360D02*
X479938D01*
X475688Y1188110D02*
Y1196610D01*
X471438Y1102360D02*
X479938D01*
X475688Y1098110D02*
Y1106610D01*
X545981Y1192360D02*
X554481D01*
X550231Y1188110D02*
Y1196610D01*
X545981Y1102360D02*
X554481D01*
X550231Y1098110D02*
Y1106610D01*
X509489Y1192360D02*
X517989D01*
X513739Y1188110D02*
Y1196610D01*
X509489Y1102360D02*
X517989D01*
X513739Y1098110D02*
Y1106610D01*
X513029Y484999D02*
X524029D01*
X518529Y479499D02*
Y490499D01*
X513029Y459599D02*
X524029D01*
X518529Y454099D02*
Y465099D01*
X487629Y484999D02*
X498629D01*
X493129Y479499D02*
Y490499D01*
X487629Y459599D02*
X498629D01*
X493129Y454099D02*
Y465099D01*
X436829Y459599D02*
X447829D01*
X442329Y454099D02*
Y465099D01*
X436829Y484999D02*
X447829D01*
X442329Y479499D02*
Y490499D01*
X462229Y459599D02*
X473229D01*
X467729Y454099D02*
Y465099D01*
X462229Y484999D02*
X473229D01*
X467729Y479499D02*
Y490499D01*
X538429Y459599D02*
X549429D01*
X543929Y454099D02*
Y465099D01*
X538429Y484999D02*
X549429D01*
X543929Y479499D02*
Y490499D01*
X563829Y459599D02*
X574829D01*
X569329Y454099D02*
Y465099D01*
X589229Y459599D02*
X600229D01*
X594729Y454099D02*
Y465099D01*
X563829Y484999D02*
X574829D01*
X569329Y479499D02*
Y490499D01*
X589229Y484999D02*
X600229D01*
X594729Y479499D02*
Y490499D01*
X512886Y1029671D02*
X523885D01*
X518386Y1024171D02*
Y1035171D01*
X512886Y1004271D02*
X523885D01*
X518386Y998771D02*
Y1009771D01*
X487486Y1029671D02*
X498485D01*
X492986Y1024171D02*
Y1035171D01*
X487486Y1004271D02*
X498485D01*
X492986Y998771D02*
Y1009771D01*
X436686Y1004271D02*
X447686D01*
X442186Y998771D02*
Y1009771D01*
X436686Y1029671D02*
X447686D01*
X442186Y1024171D02*
Y1035171D01*
X462086Y1004271D02*
X473086D01*
X467586Y998771D02*
Y1009771D01*
X462086Y1029671D02*
X473086D01*
X467586Y1024171D02*
Y1035171D01*
X538286Y1004271D02*
X549286D01*
X543786Y998771D02*
Y1009771D01*
X538286Y1029671D02*
X549286D01*
X543786Y1024171D02*
Y1035171D01*
X563686Y1004271D02*
X574686D01*
X569186Y998771D02*
Y1009771D01*
X589086Y1004271D02*
X600085D01*
X594586Y998771D02*
Y1009771D01*
X563686Y1029671D02*
X574686D01*
X569186Y1024171D02*
Y1035171D01*
X589086Y1029671D02*
X600085D01*
X594586Y1024171D02*
Y1035171D01*
M02*
