%TF.GenerationSoftware,Altium Limited,Altium Designer,22.9.1 (49)*%
G04 Layer_Color=8388736*
%FSLAX45Y45*%
%MOMM*%
%TF.SameCoordinates,4BB515F2-1930-42CC-84AD-66DDC1B42358*%
%TF.FilePolarity,Negative*%
%TF.FileFunction,Soldermask,Top*%
%TF.Part,Single*%
G01*
G75*
%TA.AperFunction,ComponentPad*%
%ADD21R,1.70320X1.70320*%
%ADD22C,1.70320*%
%ADD23R,1.60320X1.60320*%
%ADD24C,1.60320*%
%ADD25C,1.55320*%
%ADD26R,1.55320X1.55320*%
%ADD27C,1.85320*%
%ADD28R,1.85320X1.85320*%
%TA.AperFunction,ViaPad*%
%ADD29C,1.47320*%
D21*
X5550784Y8255000D02*
D03*
X4775200Y9017000D02*
D03*
D22*
X5804784Y8255000D02*
D03*
X6058784D02*
D03*
X6312784D02*
D03*
X6566784D02*
D03*
X6820784D02*
D03*
X7074784D02*
D03*
X5550784Y9017000D02*
D03*
X5804784D02*
D03*
X6058784D02*
D03*
X6312784D02*
D03*
X6566784D02*
D03*
X6820784D02*
D03*
X7074784D02*
D03*
X4521200D02*
D03*
X4267200D02*
D03*
X4013200D02*
D03*
X3759200D02*
D03*
X3505200D02*
D03*
X3251200D02*
D03*
X4775200Y8255000D02*
D03*
X4521200D02*
D03*
X4267200D02*
D03*
X4013200D02*
D03*
X3759200D02*
D03*
X3505200D02*
D03*
X3251200D02*
D03*
D23*
X6116940Y7404100D02*
D03*
X4804288D02*
D03*
X3505200D02*
D03*
D24*
X6116940Y7150100D02*
D03*
Y6896100D02*
D03*
Y6642100D02*
D03*
Y6388100D02*
D03*
Y6134100D02*
D03*
Y5880100D02*
D03*
Y5626100D02*
D03*
X6878940Y7404100D02*
D03*
Y7150100D02*
D03*
Y6896100D02*
D03*
Y6642100D02*
D03*
Y6388100D02*
D03*
Y6134100D02*
D03*
Y5880100D02*
D03*
Y5626100D02*
D03*
X4804288Y7150100D02*
D03*
Y6896100D02*
D03*
Y6642100D02*
D03*
Y6388100D02*
D03*
Y6134100D02*
D03*
Y5880100D02*
D03*
Y5626100D02*
D03*
X5566288Y7404100D02*
D03*
Y7150100D02*
D03*
Y6896100D02*
D03*
Y6642100D02*
D03*
Y6388100D02*
D03*
Y6134100D02*
D03*
Y5880100D02*
D03*
Y5626100D02*
D03*
X3505200Y7150100D02*
D03*
Y6896100D02*
D03*
Y6642100D02*
D03*
Y6388100D02*
D03*
Y6134100D02*
D03*
Y5880100D02*
D03*
Y5626100D02*
D03*
X4267200Y7404100D02*
D03*
Y7150100D02*
D03*
Y6896100D02*
D03*
Y6642100D02*
D03*
Y6388100D02*
D03*
Y6134100D02*
D03*
Y5880100D02*
D03*
Y5626100D02*
D03*
D25*
X7242449Y11917924D02*
D03*
X3213705Y11923603D02*
D03*
X6888800D02*
D03*
X3608294D02*
D03*
X6538661D02*
D03*
X3996192D02*
D03*
X6203432D02*
D03*
X4353789D02*
D03*
X5844860D02*
D03*
X4756882D02*
D03*
X5502311D02*
D03*
X5137389D02*
D03*
D26*
X7242449Y11017921D02*
D03*
X3213705Y11023600D02*
D03*
X6888800D02*
D03*
X3608294D02*
D03*
X6538661D02*
D03*
X3996192D02*
D03*
X6203432D02*
D03*
X4353789D02*
D03*
X5844860D02*
D03*
X4756882D02*
D03*
X5502311D02*
D03*
X5137389D02*
D03*
D27*
X5185288Y4849993D02*
D03*
Y4595993D02*
D03*
X4931288Y4849993D02*
D03*
Y4595993D02*
D03*
X4423288Y4849993D02*
D03*
X4677288Y4595993D02*
D03*
Y4849993D02*
D03*
X5439288Y4595993D02*
D03*
Y4849993D02*
D03*
X5693288Y4595993D02*
D03*
X5947288D02*
D03*
X5693288Y4849993D02*
D03*
X5947288D02*
D03*
X5183856Y10296708D02*
D03*
Y10042708D02*
D03*
X4929856Y10296708D02*
D03*
Y10042708D02*
D03*
X4421856Y10296708D02*
D03*
X4675856Y10042708D02*
D03*
Y10296708D02*
D03*
X5437856Y10042708D02*
D03*
Y10296708D02*
D03*
X5691856Y10042708D02*
D03*
X5945856D02*
D03*
X5691856Y10296708D02*
D03*
X5945856D02*
D03*
D28*
X4423288Y4595993D02*
D03*
X4421856Y10042708D02*
D03*
D29*
X3896360Y5742940D02*
D03*
X4655820Y6794500D02*
D03*
X6042660Y4165600D02*
D03*
X6499860Y6896100D02*
D03*
X5819140Y5397500D02*
D03*
X6385560Y5640720D02*
D03*
X5048128Y7033260D02*
D03*
X3540760Y8092440D02*
D03*
X5875020Y5245100D02*
D03*
X4086860Y5427980D02*
D03*
%TF.MD5,7cec806f255e314815390ec183e9a203*%
M02*
