%TF.GenerationSoftware,Altium Limited,Altium Designer,22.9.1 (49)*%
G04 Layer_Physical_Order=1*
G04 Layer_Color=255*
%FSLAX45Y45*%
%MOMM*%
%TF.SameCoordinates,4BB515F2-1930-42CC-84AD-66DDC1B42358*%
%TF.FilePolarity,Positive*%
%TF.FileFunction,Copper,L1,Top,Signal*%
%TF.Part,Single*%
G01*
G75*
%TA.AperFunction,Conductor*%
%ADD10C,0.76200*%
%ADD11C,0.38100*%
%TA.AperFunction,ComponentPad*%
%ADD12R,1.50000X1.50000*%
%ADD13C,1.50000*%
%ADD14R,1.40000X1.40000*%
%ADD15C,1.40000*%
%ADD16C,1.35000*%
%ADD17R,1.35000X1.35000*%
%ADD18C,1.65000*%
%ADD19R,1.65000X1.65000*%
%TA.AperFunction,ViaPad*%
%ADD20C,1.27000*%
D10*
X5702300Y11781043D02*
X5844860Y11923603D01*
X5702300Y10540263D02*
Y11781043D01*
Y10540263D02*
X5945856Y10296708D01*
X6878940Y6642100D02*
X7074784Y6837944D01*
Y8255000D01*
X3370580Y6642100D02*
X3505200D01*
X3111500Y6901180D02*
X3370580Y6642100D01*
X3111500Y6901180D02*
Y8877300D01*
X3251200Y9017000D01*
X3505200Y6896100D02*
X3580404D01*
X3716020Y6760484D01*
Y5139644D02*
Y6760484D01*
Y5139644D02*
X4259671Y4595993D01*
X4423288D01*
X4220347Y4849993D02*
X4423288D01*
X3832860Y5237480D02*
X4220347Y4849993D01*
X3832860Y5237480D02*
Y5679440D01*
X3896360Y5742940D01*
X4677288Y4849993D02*
Y5294371D01*
X4607286Y5364373D02*
X4677288Y5294371D01*
X4607286Y5364373D02*
Y6745966D01*
X4655820Y6794500D01*
X5185288Y4595993D02*
X5615681Y4165600D01*
X6042660D01*
X5439288Y4595993D02*
X5686892Y4348389D01*
X6396573D01*
X6527770Y4479585D01*
Y6868190D01*
X6499860Y6896100D02*
X6527770Y6868190D01*
X5439288Y5017648D02*
X5819140Y5397500D01*
X5439288Y4849993D02*
Y5017648D01*
X5693288Y4595993D02*
X5839292Y4449989D01*
X6034781D01*
X6385560Y4800768D01*
Y5640720D01*
X5693288Y5063368D02*
X5875020Y5245100D01*
X5693288Y4849993D02*
Y5063368D01*
X4086860Y5427980D02*
X4345666D01*
X4505686Y5588000D01*
Y6845026D01*
X4607560Y6946900D01*
X4753488D01*
X4804288Y6896100D01*
X6116940Y4765645D02*
Y5626100D01*
X5947288Y4595993D02*
X6116940Y4765645D01*
X5947288Y6218448D02*
X6116940Y6388100D01*
X5947288Y5538551D02*
Y6218448D01*
Y5538551D02*
X6002233Y5483606D01*
Y5065908D02*
Y5483606D01*
X5947288Y5010963D02*
X6002233Y5065908D01*
X5947288Y4849993D02*
Y5010963D01*
X5185288Y4849993D02*
Y5007488D01*
X5702300Y5524500D01*
Y6760088D01*
X5566288Y6896100D02*
X5702300Y6760088D01*
X4804288Y6134100D02*
X4940300Y5998088D01*
Y5184140D02*
Y5998088D01*
X4931288Y5175128D02*
X4940300Y5184140D01*
X4931288Y4849993D02*
Y5175128D01*
X6058784Y9017000D02*
Y9674860D01*
X6093460Y9709536D01*
Y10149103D01*
X5945856Y10296708D02*
X6093460Y10149103D01*
X7074784Y8255000D02*
Y9017000D01*
X6878940Y6388100D02*
Y6642100D01*
X5566288Y6388100D02*
Y6642100D01*
X6116940Y6388100D02*
Y6642100D01*
X3505200Y6388100D02*
Y6642100D01*
X4804288Y6388100D02*
Y6642100D01*
X4267200Y6388100D02*
Y6642100D01*
D11*
X4421856Y9116344D02*
Y10042708D01*
Y9116344D02*
X4521200Y9017000D01*
X3637280Y9512132D02*
X4421856Y10296708D01*
X3637280Y8199054D02*
Y9512132D01*
Y8199054D02*
X3648710Y8187624D01*
Y7547610D02*
Y8187624D01*
X3505200Y7404100D02*
X3648710Y7547610D01*
X3759200Y9017000D02*
X3881120Y8895080D01*
Y6266180D02*
Y8895080D01*
Y6266180D02*
X4267200Y5880100D01*
X4804288Y7150100D02*
X4958151Y7303963D01*
Y9171656D01*
X4929856Y10042708D02*
X4958151Y9171656D01*
X5804784Y8255000D02*
X5925820Y8376036D01*
Y9554743D01*
X5437856Y10042708D02*
X5925820Y9554743D01*
X3759200Y8255000D02*
X3815080Y8199120D01*
Y6135370D02*
Y8199120D01*
Y6135370D02*
X4004310Y5946140D01*
Y5588000D02*
Y5946140D01*
X3968750Y5552440D02*
X4004310Y5588000D01*
X3968750Y5313680D02*
Y5552440D01*
Y5313680D02*
X4304030Y4978400D01*
X4508500D01*
X4550288Y4936612D01*
Y4762500D02*
Y4936612D01*
Y4762500D02*
X4589795Y4722993D01*
X4764735D01*
X4804242Y4762500D01*
Y5459898D01*
X4689836Y5574304D02*
X4804242Y5459898D01*
X4689836Y5574304D02*
Y5699486D01*
X4777618Y5787268D01*
X4804288D01*
Y5880100D01*
X4699000Y7033260D02*
X5048128D01*
X4521200Y7211060D02*
X4699000Y7033260D01*
X4521200Y7211060D02*
Y8255000D01*
X3373120Y7924800D02*
X3540760Y8092440D01*
X3373120Y6858000D02*
Y7924800D01*
Y6858000D02*
X3462020Y6769100D01*
X3556000D01*
X3622040Y6703060D01*
Y5996940D02*
Y6703060D01*
X3505200Y5880100D02*
X3622040Y5996940D01*
X6433820Y10568620D02*
X6888800Y11023600D01*
X6433820Y7720980D02*
Y10568620D01*
X6116940Y7404100D02*
X6433820Y7720980D01*
X3608294Y11023600D02*
X3979134Y11394440D01*
X4841240D01*
X4986020Y11249660D01*
Y10922000D02*
Y11249660D01*
Y10922000D02*
X5204460Y10703560D01*
X5402341D01*
X5564901Y10541000D01*
Y10169754D02*
Y10541000D01*
X5437856Y10042708D02*
X5564901Y10169754D01*
X3505200Y9017000D02*
Y9771918D01*
X4756882Y11023600D01*
X4353789D02*
X4623029Y11292840D01*
X4699000D01*
X4897120Y11094720D01*
Y10583850D02*
Y11094720D01*
Y10583850D02*
X5056810Y10424160D01*
Y10169662D02*
Y10424160D01*
X4929856Y10042708D02*
X5056810Y10169662D01*
X6116940Y5880100D02*
X6233160Y5996320D01*
Y6949440D01*
X6159500Y7023100D02*
X6233160Y6949440D01*
X5524500Y7023100D02*
X6159500D01*
X5450840Y7096760D02*
X5524500Y7023100D01*
X5450840Y7096760D02*
Y8155056D01*
X5550784Y8255000D01*
X4013200Y9017000D02*
X4135120Y8895080D01*
Y7282180D02*
Y8895080D01*
Y7282180D02*
X4267200Y7150100D01*
X4548856Y10169708D02*
X4675856Y10296708D01*
X4548856Y9669780D02*
Y10169708D01*
Y9669780D02*
X4643120Y9575516D01*
Y8636000D02*
Y9575516D01*
X4399280Y8392160D02*
X4643120Y8636000D01*
X4399280Y5758180D02*
Y8392160D01*
X4267200Y5626100D02*
X4399280Y5758180D01*
X5310856Y5881533D02*
X5566288Y5626100D01*
X5310856Y5881533D02*
Y10169708D01*
X5183856Y10296708D02*
X5310856Y10169708D01*
X6878940Y5626100D02*
X7242449Y5989610D01*
Y11017921D01*
X6002020Y8198236D02*
X6058784Y8255000D01*
X6002020Y7265020D02*
Y8198236D01*
Y7265020D02*
X6116940Y7150100D01*
X4802856Y10169708D02*
X4929856Y10296708D01*
X4802856Y9212864D02*
Y10169708D01*
Y9212864D02*
X4894651Y9121069D01*
Y8135620D02*
Y9121069D01*
X4804288Y8045257D02*
X4894651Y8135620D01*
X4804288Y7404100D02*
Y8045257D01*
X6764020Y5995020D02*
X6878940Y5880100D01*
X6764020Y5995020D02*
Y8198236D01*
X6820784Y8255000D01*
D12*
X5550784D02*
D03*
X4775200Y9017000D02*
D03*
D13*
X5804784Y8255000D02*
D03*
X6058784D02*
D03*
X6312784D02*
D03*
X6566784D02*
D03*
X6820784D02*
D03*
X7074784D02*
D03*
X5550784Y9017000D02*
D03*
X5804784D02*
D03*
X6058784D02*
D03*
X6312784D02*
D03*
X6566784D02*
D03*
X6820784D02*
D03*
X7074784D02*
D03*
X4521200D02*
D03*
X4267200D02*
D03*
X4013200D02*
D03*
X3759200D02*
D03*
X3505200D02*
D03*
X3251200D02*
D03*
X4775200Y8255000D02*
D03*
X4521200D02*
D03*
X4267200D02*
D03*
X4013200D02*
D03*
X3759200D02*
D03*
X3505200D02*
D03*
X3251200D02*
D03*
D14*
X6116940Y7404100D02*
D03*
X4804288D02*
D03*
X3505200D02*
D03*
D15*
X6116940Y7150100D02*
D03*
Y6896100D02*
D03*
Y6642100D02*
D03*
Y6388100D02*
D03*
Y6134100D02*
D03*
Y5880100D02*
D03*
Y5626100D02*
D03*
X6878940Y7404100D02*
D03*
Y7150100D02*
D03*
Y6896100D02*
D03*
Y6642100D02*
D03*
Y6388100D02*
D03*
Y6134100D02*
D03*
Y5880100D02*
D03*
Y5626100D02*
D03*
X4804288Y7150100D02*
D03*
Y6896100D02*
D03*
Y6642100D02*
D03*
Y6388100D02*
D03*
Y6134100D02*
D03*
Y5880100D02*
D03*
Y5626100D02*
D03*
X5566288Y7404100D02*
D03*
Y7150100D02*
D03*
Y6896100D02*
D03*
Y6642100D02*
D03*
Y6388100D02*
D03*
Y6134100D02*
D03*
Y5880100D02*
D03*
Y5626100D02*
D03*
X3505200Y7150100D02*
D03*
Y6896100D02*
D03*
Y6642100D02*
D03*
Y6388100D02*
D03*
Y6134100D02*
D03*
Y5880100D02*
D03*
Y5626100D02*
D03*
X4267200Y7404100D02*
D03*
Y7150100D02*
D03*
Y6896100D02*
D03*
Y6642100D02*
D03*
Y6388100D02*
D03*
Y6134100D02*
D03*
Y5880100D02*
D03*
Y5626100D02*
D03*
D16*
X7242449Y11917924D02*
D03*
X3213705Y11923603D02*
D03*
X6888800D02*
D03*
X3608294D02*
D03*
X6538661D02*
D03*
X3996192D02*
D03*
X6203432D02*
D03*
X4353789D02*
D03*
X5844860D02*
D03*
X4756882D02*
D03*
X5502311D02*
D03*
X5137389D02*
D03*
D17*
X7242449Y11017921D02*
D03*
X3213705Y11023600D02*
D03*
X6888800D02*
D03*
X3608294D02*
D03*
X6538661D02*
D03*
X3996192D02*
D03*
X6203432D02*
D03*
X4353789D02*
D03*
X5844860D02*
D03*
X4756882D02*
D03*
X5502311D02*
D03*
X5137389D02*
D03*
D18*
X5185288Y4849993D02*
D03*
Y4595993D02*
D03*
X4931288Y4849993D02*
D03*
Y4595993D02*
D03*
X4423288Y4849993D02*
D03*
X4677288Y4595993D02*
D03*
Y4849993D02*
D03*
X5439288Y4595993D02*
D03*
Y4849993D02*
D03*
X5693288Y4595993D02*
D03*
X5947288D02*
D03*
X5693288Y4849993D02*
D03*
X5947288D02*
D03*
X5183856Y10296708D02*
D03*
Y10042708D02*
D03*
X4929856Y10296708D02*
D03*
Y10042708D02*
D03*
X4421856Y10296708D02*
D03*
X4675856Y10042708D02*
D03*
Y10296708D02*
D03*
X5437856Y10042708D02*
D03*
Y10296708D02*
D03*
X5691856Y10042708D02*
D03*
X5945856D02*
D03*
X5691856Y10296708D02*
D03*
X5945856D02*
D03*
D19*
X4423288Y4595993D02*
D03*
X4421856Y10042708D02*
D03*
D20*
X3896360Y5742940D02*
D03*
X4655820Y6794500D02*
D03*
X6042660Y4165600D02*
D03*
X6499860Y6896100D02*
D03*
X5819140Y5397500D02*
D03*
X6385560Y5640720D02*
D03*
X5048128Y7033260D02*
D03*
X3540760Y8092440D02*
D03*
X5875020Y5245100D02*
D03*
X4086860Y5427980D02*
D03*
%TF.MD5,663372026f2b2d696975d162be089733*%
M02*
