%TF.GenerationSoftware,Altium Limited,Altium Designer,22.9.1 (49)*%
G04 Layer_Color=65535*
%FSLAX45Y45*%
%MOMM*%
%TF.SameCoordinates,4BB515F2-1930-42CC-84AD-66DDC1B42358*%
%TF.FilePolarity,Positive*%
%TF.FileFunction,Legend,Top*%
%TF.Part,Single*%
G01*
G75*
%TA.AperFunction,NonConductor*%
%ADD30C,0.20000*%
%ADD31C,0.25000*%
%ADD32C,0.60000*%
%ADD33C,0.25400*%
%ADD34C,0.15240*%
D30*
X5327785Y8572500D02*
G03*
X5327785Y8699500I0J63500D01*
G01*
X4998200D02*
G03*
X4998200Y8572500I0J-63500D01*
G01*
X6434438Y7515100D02*
G03*
X6561438Y7515100I63500J0D01*
G01*
X5121788D02*
G03*
X5248788Y7515100I63500J0D01*
G01*
X3822700D02*
G03*
X3949700Y7515100I63500J0D01*
G01*
X5327782Y8371002D02*
X7297786D01*
X5327782Y8900998D02*
X7297786D01*
X5327782Y8371002D02*
Y8572500D01*
Y8699500D02*
Y8900998D01*
X7297786Y8371002D02*
Y8900998D01*
X3028198D02*
X4998202D01*
X3028198Y8371002D02*
X4998202D01*
Y8699500D02*
Y8900998D01*
Y8371002D02*
Y8572500D01*
X3028198Y8371002D02*
Y8900998D01*
X6227938Y5515102D02*
Y7515098D01*
X6767942Y5515102D02*
Y7515098D01*
X6227938D02*
X6434440D01*
X6561440D02*
X6767942D01*
X6227938Y5515102D02*
X6767942D01*
X4915286D02*
Y7515098D01*
X5455290Y5515102D02*
Y7515098D01*
X4915286D02*
X5121788D01*
X5248788D02*
X5455290D01*
X4915286Y5515102D02*
X5455290D01*
X3616198D02*
Y7515098D01*
X4156202Y5515102D02*
Y7515098D01*
X3616198D02*
X3822700D01*
X3949700D02*
X4156202D01*
X3616198Y5515102D02*
X4156202D01*
X7122450Y11152922D02*
X7362449D01*
X7122450D02*
Y11782923D01*
X7362449Y11152922D02*
Y11782923D01*
X7122450D02*
X7362449D01*
X3093705Y11158601D02*
X3333704D01*
X3093705D02*
Y11788602D01*
X3333704Y11158601D02*
Y11788602D01*
X3093705D02*
X3333704D01*
X6768800Y11158601D02*
X7008800D01*
X6768800D02*
Y11788602D01*
X7008800Y11158601D02*
Y11788602D01*
X6768800D02*
X7008800D01*
X3488294Y11158601D02*
X3728293D01*
X3488294D02*
Y11788602D01*
X3728293Y11158601D02*
Y11788602D01*
X3488294D02*
X3728293D01*
X6418661Y11158601D02*
X6658661D01*
X6418661D02*
Y11788602D01*
X6658661Y11158601D02*
Y11788602D01*
X6418661D02*
X6658661D01*
X3876192Y11158601D02*
X4116192D01*
X3876192D02*
Y11788602D01*
X4116192Y11158601D02*
Y11788602D01*
X3876192D02*
X4116192D01*
X6083432Y11158601D02*
X6323432D01*
X6083432D02*
Y11788602D01*
X6323432Y11158601D02*
Y11788602D01*
X6083432D02*
X6323432D01*
X4233789Y11158601D02*
X4473788D01*
X4233789D02*
Y11788602D01*
X4473788Y11158601D02*
Y11788602D01*
X4233789D02*
X4473788D01*
X5724860Y11158601D02*
X5964860D01*
X5724860D02*
Y11788602D01*
X5964860Y11158601D02*
Y11788602D01*
X5724860D02*
X5964860D01*
X4636882Y11158601D02*
X4876881D01*
X4636882D02*
Y11788602D01*
X4876881Y11158601D02*
Y11788602D01*
X4636882D02*
X4876881D01*
X5382311Y11158601D02*
X5622310D01*
X5382311D02*
Y11788602D01*
X5622310Y11158601D02*
Y11788602D01*
X5382311D02*
X5622310D01*
X5017389Y11158601D02*
X5257389D01*
X5017389D02*
Y11788602D01*
X5257389Y11158601D02*
Y11788602D01*
X5017389D02*
X5257389D01*
X6089289Y4461490D02*
Y4984491D01*
X4281287D02*
X6089289D01*
X4281287Y4461490D02*
X6089289D01*
X4281287D02*
Y4984491D01*
X6087857Y9908210D02*
Y10431211D01*
X4279854D02*
X6087857D01*
X4279854Y9908210D02*
X6087857D01*
X4279854D02*
Y10431211D01*
D31*
X5433285Y8255000D02*
G03*
X5433285Y8255000I-12500J0D01*
G01*
X4917700Y9017000D02*
G03*
X4917700Y9017000I-12500J0D01*
G01*
X6129438Y7529100D02*
G03*
X6129438Y7529100I-12500J0D01*
G01*
X4816788D02*
G03*
X4816788Y7529100I-12500J0D01*
G01*
X3517700D02*
G03*
X3517700Y7529100I-12500J0D01*
G01*
D32*
X5457785Y8471000D02*
G03*
X5457785Y8471000I-30000J0D01*
G01*
X4928200Y8801000D02*
G03*
X4928200Y8801000I-30000J0D01*
G01*
X6357938Y7415100D02*
G03*
X6357938Y7415100I-30000J0D01*
G01*
X5045288D02*
G03*
X5045288Y7415100I-30000J0D01*
G01*
X3746200D02*
G03*
X3746200Y7415100I-30000J0D01*
G01*
D33*
X5326380Y9352231D02*
Y9225272D01*
X5351772Y9199880D01*
X5402555D01*
X5427947Y9225272D01*
Y9352231D01*
X5580298D02*
X5478731D01*
Y9276055D01*
X5529514Y9301447D01*
X5554906D01*
X5580298Y9276055D01*
Y9225272D01*
X5554906Y9199880D01*
X5504123D01*
X5478731Y9225272D01*
X3025140Y9352231D02*
Y9225272D01*
X3050532Y9199880D01*
X3101315D01*
X3126707Y9225272D01*
Y9352231D01*
X3253666Y9199880D02*
Y9352231D01*
X3177491Y9276055D01*
X3279058D01*
X6040120Y7782511D02*
Y7655552D01*
X6065512Y7630160D01*
X6116295D01*
X6141687Y7655552D01*
Y7782511D01*
X6192471Y7757119D02*
X6217863Y7782511D01*
X6268646D01*
X6294038Y7757119D01*
Y7731727D01*
X6268646Y7706335D01*
X6243254D01*
X6268646D01*
X6294038Y7680943D01*
Y7655552D01*
X6268646Y7630160D01*
X6217863D01*
X6192471Y7655552D01*
X4726940Y7782511D02*
Y7655552D01*
X4752332Y7630160D01*
X4803115D01*
X4828507Y7655552D01*
Y7782511D01*
X4980858Y7630160D02*
X4879291D01*
X4980858Y7731727D01*
Y7757119D01*
X4955466Y7782511D01*
X4904683D01*
X4879291Y7757119D01*
X3429000Y7782511D02*
Y7655552D01*
X3454392Y7630160D01*
X3505175D01*
X3530567Y7655552D01*
Y7782511D01*
X3581351Y7630160D02*
X3632134D01*
X3606743D01*
Y7782511D01*
X3581351Y7757119D01*
X7134860Y12075160D02*
Y12227511D01*
X7211035D01*
X7236427Y12202119D01*
Y12151335D01*
X7211035Y12125943D01*
X7134860D01*
X7185643D02*
X7236427Y12075160D01*
X7287211D02*
X7337994D01*
X7312603D01*
Y12227511D01*
X7287211Y12202119D01*
X7515737Y12075160D02*
X7414170D01*
X7515737Y12176727D01*
Y12202119D01*
X7490345Y12227511D01*
X7439561D01*
X7414170Y12202119D01*
X3106420Y12080240D02*
Y12232591D01*
X3182595D01*
X3207987Y12207199D01*
Y12156415D01*
X3182595Y12131023D01*
X3106420D01*
X3157203D02*
X3207987Y12080240D01*
X3258771D02*
X3309554D01*
X3284163D01*
Y12232591D01*
X3258771Y12207199D01*
X3385730Y12080240D02*
X3436513D01*
X3411121D01*
Y12232591D01*
X3385730Y12207199D01*
X6781800Y12080240D02*
Y12232591D01*
X6857975D01*
X6883367Y12207199D01*
Y12156415D01*
X6857975Y12131023D01*
X6781800D01*
X6832583D02*
X6883367Y12080240D01*
X6934151D02*
X6984934D01*
X6959543D01*
Y12232591D01*
X6934151Y12207199D01*
X7061110D02*
X7086501Y12232591D01*
X7137285D01*
X7162677Y12207199D01*
Y12105632D01*
X7137285Y12080240D01*
X7086501D01*
X7061110Y12105632D01*
Y12207199D01*
X3500120Y12080240D02*
Y12232591D01*
X3576295D01*
X3601687Y12207199D01*
Y12156415D01*
X3576295Y12131023D01*
X3500120D01*
X3550903D02*
X3601687Y12080240D01*
X3652471Y12105632D02*
X3677863Y12080240D01*
X3728646D01*
X3754038Y12105632D01*
Y12207199D01*
X3728646Y12232591D01*
X3677863D01*
X3652471Y12207199D01*
Y12181807D01*
X3677863Y12156415D01*
X3754038D01*
X6431280Y12080240D02*
Y12232591D01*
X6507455D01*
X6532847Y12207199D01*
Y12156415D01*
X6507455Y12131023D01*
X6431280D01*
X6482063D02*
X6532847Y12080240D01*
X6583631Y12207199D02*
X6609023Y12232591D01*
X6659806D01*
X6685198Y12207199D01*
Y12181807D01*
X6659806Y12156415D01*
X6685198Y12131023D01*
Y12105632D01*
X6659806Y12080240D01*
X6609023D01*
X6583631Y12105632D01*
Y12131023D01*
X6609023Y12156415D01*
X6583631Y12181807D01*
Y12207199D01*
X6609023Y12156415D02*
X6659806D01*
X3888740Y12080240D02*
Y12232591D01*
X3964915D01*
X3990307Y12207199D01*
Y12156415D01*
X3964915Y12131023D01*
X3888740D01*
X3939523D02*
X3990307Y12080240D01*
X4041091Y12232591D02*
X4142658D01*
Y12207199D01*
X4041091Y12105632D01*
Y12080240D01*
X6096000D02*
Y12232591D01*
X6172175D01*
X6197567Y12207199D01*
Y12156415D01*
X6172175Y12131023D01*
X6096000D01*
X6146783D02*
X6197567Y12080240D01*
X6349918Y12232591D02*
X6299134Y12207199D01*
X6248351Y12156415D01*
Y12105632D01*
X6273743Y12080240D01*
X6324526D01*
X6349918Y12105632D01*
Y12131023D01*
X6324526Y12156415D01*
X6248351D01*
X4246880Y12080240D02*
Y12232591D01*
X4323055D01*
X4348447Y12207199D01*
Y12156415D01*
X4323055Y12131023D01*
X4246880D01*
X4297663D02*
X4348447Y12080240D01*
X4500798Y12232591D02*
X4399231D01*
Y12156415D01*
X4450014Y12181807D01*
X4475406D01*
X4500798Y12156415D01*
Y12105632D01*
X4475406Y12080240D01*
X4424623D01*
X4399231Y12105632D01*
X5737860Y12080240D02*
Y12232591D01*
X5814035D01*
X5839427Y12207199D01*
Y12156415D01*
X5814035Y12131023D01*
X5737860D01*
X5788643D02*
X5839427Y12080240D01*
X5966386D02*
Y12232591D01*
X5890211Y12156415D01*
X5991778D01*
X4650740Y12080240D02*
Y12232591D01*
X4726915D01*
X4752307Y12207199D01*
Y12156415D01*
X4726915Y12131023D01*
X4650740D01*
X4701523D02*
X4752307Y12080240D01*
X4803091Y12207199D02*
X4828483Y12232591D01*
X4879266D01*
X4904658Y12207199D01*
Y12181807D01*
X4879266Y12156415D01*
X4853874D01*
X4879266D01*
X4904658Y12131023D01*
Y12105632D01*
X4879266Y12080240D01*
X4828483D01*
X4803091Y12105632D01*
X5394960Y12080240D02*
Y12232591D01*
X5471135D01*
X5496527Y12207199D01*
Y12156415D01*
X5471135Y12131023D01*
X5394960D01*
X5445743D02*
X5496527Y12080240D01*
X5648878D02*
X5547311D01*
X5648878Y12181807D01*
Y12207199D01*
X5623486Y12232591D01*
X5572703D01*
X5547311Y12207199D01*
X5029200Y12080240D02*
Y12232591D01*
X5105375D01*
X5130767Y12207199D01*
Y12156415D01*
X5105375Y12131023D01*
X5029200D01*
X5079983D02*
X5130767Y12080240D01*
X5181551D02*
X5232334D01*
X5206943D01*
Y12232591D01*
X5181551Y12207199D01*
X4269740Y5247640D02*
Y5399991D01*
X4345915D01*
X4371307Y5374599D01*
Y5323815D01*
X4345915Y5298423D01*
X4269740D01*
X4523658Y5247640D02*
X4422091D01*
X4523658Y5349207D01*
Y5374599D01*
X4498266Y5399991D01*
X4447483D01*
X4422091Y5374599D01*
X4269740Y10693400D02*
Y10845751D01*
X4345915D01*
X4371307Y10820359D01*
Y10769575D01*
X4345915Y10744183D01*
X4269740D01*
X4422091Y10693400D02*
X4472874D01*
X4447483D01*
Y10845751D01*
X4422091Y10820359D01*
D34*
X6120288Y4812990D02*
X6154144D01*
X6137216D01*
Y4914558D01*
X6120288Y4897630D01*
X6255711Y4812990D02*
Y4914558D01*
X6204927Y4863774D01*
X6272639D01*
X6120288Y4542990D02*
X6154144D01*
X6137216D01*
Y4644558D01*
X6120288Y4627630D01*
X6204927D02*
X6221855Y4644558D01*
X6255711D01*
X6272639Y4627630D01*
Y4610702D01*
X6255711Y4593774D01*
X6238783D01*
X6255711D01*
X6272639Y4576846D01*
Y4559918D01*
X6255711Y4542990D01*
X6221855D01*
X6204927Y4559918D01*
X4247999Y4812990D02*
X4180288D01*
X4247999Y4880702D01*
Y4897630D01*
X4231072Y4914558D01*
X4197216D01*
X4180288Y4897630D01*
X4210288Y4542990D02*
X4244144D01*
X4227216D01*
Y4644558D01*
X4210288Y4627630D01*
X6118856Y10259709D02*
X6152712D01*
X6135784D01*
Y10361276D01*
X6118856Y10344348D01*
X6254279Y10259709D02*
Y10361276D01*
X6203495Y10310492D01*
X6271207D01*
X6118856Y9989709D02*
X6152712D01*
X6135784D01*
Y10091276D01*
X6118856Y10074348D01*
X6203495D02*
X6220423Y10091276D01*
X6254279D01*
X6271207Y10074348D01*
Y10057420D01*
X6254279Y10040492D01*
X6237351D01*
X6254279D01*
X6271207Y10023565D01*
Y10006637D01*
X6254279Y9989709D01*
X6220423D01*
X6203495Y10006637D01*
X4246567Y10259709D02*
X4178856D01*
X4246567Y10327420D01*
Y10344348D01*
X4229639Y10361276D01*
X4195784D01*
X4178856Y10344348D01*
X4208856Y9989709D02*
X4242712D01*
X4225784D01*
Y10091276D01*
X4208856Y10074348D01*
%TF.MD5,cce64cee99fe76db091bdbdca2d164b9*%
M02*
