M48
;Layer_Color=9474304
;FILE_FORMAT=4:4
METRIC,TZ
;TYPE=PLATED
T1F00S00C0.8000
T2F00S00C0.8500
T3F00S00C0.9000
T4F00S00C1.0000
T5F00S00C1.1000
%
T01
X426720Y562610
Y588010
Y613410
Y638810
Y664210
Y689610
Y715010
Y740410
X480429
Y715010
Y689610
Y664210
Y638810
Y613410
Y588010
Y562610
X556629
Y588010
Y613410
Y638810
Y664210
Y689610
Y715010
Y740410
X611694
Y715010
Y689610
Y664210
Y638810
Y613410
Y588010
Y562610
X687894
Y588010
Y613410
Y638810
Y664210
Y689610
Y715010
Y740410
X350520
Y715010
Y689610
Y664210
Y638810
Y613410
Y588010
Y562610
T02
X661670Y426170
Y516170
X360829Y1102360
X321371
X399619
X435379
X475688
X513739
X550231
X584486
X620343
X653866
X688880
X723561
X661670Y1057190
Y967190
X653866Y1192360
X620343
X584486
X550231
X513739
X475688
X435379
X399619
X688880
X723561
X360829
X321371
T03
X325120Y825500
X350520
X375920
Y901700
X350520
X325120
X401320
X426720
X452120
X477520
Y825500
X452120
X426720
X401320
X566910
X592310
X617710
X643110
X668510
X693910
X719310
Y901700
X693910
X668510
X643110
X617710
X592310
X566910
T04
X707390Y469900
X732790
X731520Y1012190
X706120
T05
X442329Y459599
Y484999
X467729
X493129
X518529
Y459599
X493129
X467729
X543929
Y484999
X569329
Y459599
X594729
Y484999
X594586Y1004271
X569186
X543786
X518386
Y1029671
X492986
Y1004271
X467586
X442186
Y1029671
X467586
X543786
X569186
X594586
M30
