%TF.GenerationSoftware,Altium Limited,Altium Designer,22.9.1 (49)*%
G04 Layer_Color=255*
%FSLAX45Y45*%
%MOMM*%
%TF.SameCoordinates,4BB515F2-1930-42CC-84AD-66DDC1B42358*%
%TF.FilePolarity,Positive*%
%TF.FileFunction,Pads,Top*%
%TF.Part,Single*%
G01*
G75*
%TA.AperFunction,ComponentPad*%
%ADD12R,1.50000X1.50000*%
%ADD13C,1.50000*%
%ADD14R,1.40000X1.40000*%
%ADD15C,1.40000*%
%ADD16C,1.35000*%
%ADD17R,1.35000X1.35000*%
%ADD18C,1.65000*%
%ADD19R,1.65000X1.65000*%
D12*
X5550784Y8255000D02*
D03*
X4775200Y9017000D02*
D03*
D13*
X5804784Y8255000D02*
D03*
X6058784D02*
D03*
X6312784D02*
D03*
X6566784D02*
D03*
X6820784D02*
D03*
X7074784D02*
D03*
X5550784Y9017000D02*
D03*
X5804784D02*
D03*
X6058784D02*
D03*
X6312784D02*
D03*
X6566784D02*
D03*
X6820784D02*
D03*
X7074784D02*
D03*
X4521200D02*
D03*
X4267200D02*
D03*
X4013200D02*
D03*
X3759200D02*
D03*
X3505200D02*
D03*
X3251200D02*
D03*
X4775200Y8255000D02*
D03*
X4521200D02*
D03*
X4267200D02*
D03*
X4013200D02*
D03*
X3759200D02*
D03*
X3505200D02*
D03*
X3251200D02*
D03*
D14*
X6116940Y7404100D02*
D03*
X4804288D02*
D03*
X3505200D02*
D03*
D15*
X6116940Y7150100D02*
D03*
Y6896100D02*
D03*
Y6642100D02*
D03*
Y6388100D02*
D03*
Y6134100D02*
D03*
Y5880100D02*
D03*
Y5626100D02*
D03*
X6878940Y7404100D02*
D03*
Y7150100D02*
D03*
Y6896100D02*
D03*
Y6642100D02*
D03*
Y6388100D02*
D03*
Y6134100D02*
D03*
Y5880100D02*
D03*
Y5626100D02*
D03*
X4804288Y7150100D02*
D03*
Y6896100D02*
D03*
Y6642100D02*
D03*
Y6388100D02*
D03*
Y6134100D02*
D03*
Y5880100D02*
D03*
Y5626100D02*
D03*
X5566288Y7404100D02*
D03*
Y7150100D02*
D03*
Y6896100D02*
D03*
Y6642100D02*
D03*
Y6388100D02*
D03*
Y6134100D02*
D03*
Y5880100D02*
D03*
Y5626100D02*
D03*
X3505200Y7150100D02*
D03*
Y6896100D02*
D03*
Y6642100D02*
D03*
Y6388100D02*
D03*
Y6134100D02*
D03*
Y5880100D02*
D03*
Y5626100D02*
D03*
X4267200Y7404100D02*
D03*
Y7150100D02*
D03*
Y6896100D02*
D03*
Y6642100D02*
D03*
Y6388100D02*
D03*
Y6134100D02*
D03*
Y5880100D02*
D03*
Y5626100D02*
D03*
D16*
X7242449Y11917924D02*
D03*
X3213705Y11923603D02*
D03*
X6888800D02*
D03*
X3608294D02*
D03*
X6538661D02*
D03*
X3996192D02*
D03*
X6203432D02*
D03*
X4353789D02*
D03*
X5844860D02*
D03*
X4756882D02*
D03*
X5502311D02*
D03*
X5137389D02*
D03*
D17*
X7242449Y11017921D02*
D03*
X3213705Y11023600D02*
D03*
X6888800D02*
D03*
X3608294D02*
D03*
X6538661D02*
D03*
X3996192D02*
D03*
X6203432D02*
D03*
X4353789D02*
D03*
X5844860D02*
D03*
X4756882D02*
D03*
X5502311D02*
D03*
X5137389D02*
D03*
D18*
X5185288Y4849993D02*
D03*
Y4595993D02*
D03*
X4931288Y4849993D02*
D03*
Y4595993D02*
D03*
X4423288Y4849993D02*
D03*
X4677288Y4595993D02*
D03*
Y4849993D02*
D03*
X5439288Y4595993D02*
D03*
Y4849993D02*
D03*
X5693288Y4595993D02*
D03*
X5947288D02*
D03*
X5693288Y4849993D02*
D03*
X5947288D02*
D03*
X5183856Y10296708D02*
D03*
Y10042708D02*
D03*
X4929856Y10296708D02*
D03*
Y10042708D02*
D03*
X4421856Y10296708D02*
D03*
X4675856Y10042708D02*
D03*
Y10296708D02*
D03*
X5437856Y10042708D02*
D03*
Y10296708D02*
D03*
X5691856Y10042708D02*
D03*
X5945856D02*
D03*
X5691856Y10296708D02*
D03*
X5945856D02*
D03*
D19*
X4423288Y4595993D02*
D03*
X4421856Y10042708D02*
D03*
%TF.MD5,168f14967c78dca1e2218eafcdf43fed*%
M02*
