%TF.GenerationSoftware,Altium Limited,Altium Designer,22.9.1 (49)*%
G04 Layer_Color=128*
%FSLAX45Y45*%
%MOMM*%
%TF.SameCoordinates,4BB515F2-1930-42CC-84AD-66DDC1B42358*%
%TF.FilePolarity,Positive*%
%TF.FileFunction,Drillmap*%
%TF.Part,Single*%
G01*
G75*
%TA.AperFunction,NonConductor*%
%ADD45C,0.12700*%
D45*
X5505784Y8255000D02*
X5595784D01*
X5550784Y8210000D02*
Y8300000D01*
X5759784Y8255000D02*
X5849784D01*
X5804784Y8210000D02*
Y8300000D01*
X6013784Y8255000D02*
X6103784D01*
X6058784Y8210000D02*
Y8300000D01*
X6267784Y8255000D02*
X6357784D01*
X6312784Y8210000D02*
Y8300000D01*
X6521784Y8255000D02*
X6611784D01*
X6566784Y8210000D02*
Y8300000D01*
X6775784Y8255000D02*
X6865784D01*
X6820784Y8210000D02*
Y8300000D01*
X7029784Y8255000D02*
X7119784D01*
X7074784Y8210000D02*
Y8300000D01*
X5505784Y9017000D02*
X5595784D01*
X5550784Y8972000D02*
Y9062000D01*
X5759784Y9017000D02*
X5849784D01*
X5804784Y8972000D02*
Y9062000D01*
X6013784Y9017000D02*
X6103784D01*
X6058784Y8972000D02*
Y9062000D01*
X6267784Y9017000D02*
X6357784D01*
X6312784Y8972000D02*
Y9062000D01*
X6521784Y9017000D02*
X6611784D01*
X6566784Y8972000D02*
Y9062000D01*
X6775784Y9017000D02*
X6865784D01*
X6820784Y8972000D02*
Y9062000D01*
X7029784Y9017000D02*
X7119784D01*
X7074784Y8972000D02*
Y9062000D01*
X4730200Y9017000D02*
X4820200D01*
X4775200Y8972000D02*
Y9062000D01*
X4476200Y9017000D02*
X4566200D01*
X4521200Y8972000D02*
Y9062000D01*
X4222200Y9017000D02*
X4312200D01*
X4267200Y8972000D02*
Y9062000D01*
X3968200Y9017000D02*
X4058200D01*
X4013200Y8972000D02*
Y9062000D01*
X3714200Y9017000D02*
X3804200D01*
X3759200Y8972000D02*
Y9062000D01*
X3460200Y9017000D02*
X3550200D01*
X3505200Y8972000D02*
Y9062000D01*
X3206200Y9017000D02*
X3296200D01*
X3251200Y8972000D02*
Y9062000D01*
X4730200Y8255000D02*
X4820200D01*
X4775200Y8210000D02*
Y8300000D01*
X4476200Y8255000D02*
X4566200D01*
X4521200Y8210000D02*
Y8300000D01*
X4222200Y8255000D02*
X4312200D01*
X4267200Y8210000D02*
Y8300000D01*
X3968200Y8255000D02*
X4058200D01*
X4013200Y8210000D02*
Y8300000D01*
X3714200Y8255000D02*
X3804200D01*
X3759200Y8210000D02*
Y8300000D01*
X3460200Y8255000D02*
X3550200D01*
X3505200Y8210000D02*
Y8300000D01*
X3206200Y8255000D02*
X3296200D01*
X3251200Y8210000D02*
Y8300000D01*
X6076940Y7404100D02*
X6156940D01*
X6116940Y7364100D02*
Y7444100D01*
X6076940Y7150100D02*
X6156940D01*
X6116940Y7110100D02*
Y7190100D01*
X6076940Y6896100D02*
X6156940D01*
X6116940Y6856100D02*
Y6936100D01*
X6076940Y6642100D02*
X6156940D01*
X6116940Y6602100D02*
Y6682100D01*
X6076940Y6388100D02*
X6156940D01*
X6116940Y6348100D02*
Y6428100D01*
X6076940Y6134100D02*
X6156940D01*
X6116940Y6094100D02*
Y6174100D01*
X6076940Y5880100D02*
X6156940D01*
X6116940Y5840100D02*
Y5920100D01*
X6076940Y5626100D02*
X6156940D01*
X6116940Y5586100D02*
Y5666100D01*
X6838940Y7404100D02*
X6918940D01*
X6878940Y7364100D02*
Y7444100D01*
X6838940Y7150100D02*
X6918940D01*
X6878940Y7110100D02*
Y7190100D01*
X6838940Y6896100D02*
X6918940D01*
X6878940Y6856100D02*
Y6936100D01*
X6838940Y6642100D02*
X6918940D01*
X6878940Y6602100D02*
Y6682100D01*
X6838940Y6388100D02*
X6918940D01*
X6878940Y6348100D02*
Y6428100D01*
X6838940Y6134100D02*
X6918940D01*
X6878940Y6094100D02*
Y6174100D01*
X6838940Y5880100D02*
X6918940D01*
X6878940Y5840100D02*
Y5920100D01*
X6838940Y5626100D02*
X6918940D01*
X6878940Y5586100D02*
Y5666100D01*
X4764288Y7404100D02*
X4844288D01*
X4804288Y7364100D02*
Y7444100D01*
X4764288Y7150100D02*
X4844288D01*
X4804288Y7110100D02*
Y7190100D01*
X4764288Y6896100D02*
X4844288D01*
X4804288Y6856100D02*
Y6936100D01*
X4764288Y6642100D02*
X4844288D01*
X4804288Y6602100D02*
Y6682100D01*
X4764288Y6388100D02*
X4844288D01*
X4804288Y6348100D02*
Y6428100D01*
X4764288Y6134100D02*
X4844288D01*
X4804288Y6094100D02*
Y6174100D01*
X4764288Y5880100D02*
X4844288D01*
X4804288Y5840100D02*
Y5920100D01*
X4764288Y5626100D02*
X4844288D01*
X4804288Y5586100D02*
Y5666100D01*
X5526288Y7404100D02*
X5606288D01*
X5566288Y7364100D02*
Y7444100D01*
X5526288Y7150100D02*
X5606288D01*
X5566288Y7110100D02*
Y7190100D01*
X5526288Y6896100D02*
X5606288D01*
X5566288Y6856100D02*
Y6936100D01*
X5526288Y6642100D02*
X5606288D01*
X5566288Y6602100D02*
Y6682100D01*
X5526288Y6388100D02*
X5606288D01*
X5566288Y6348100D02*
Y6428100D01*
X5526288Y6134100D02*
X5606288D01*
X5566288Y6094100D02*
Y6174100D01*
X5526288Y5880100D02*
X5606288D01*
X5566288Y5840100D02*
Y5920100D01*
X5526288Y5626100D02*
X5606288D01*
X5566288Y5586100D02*
Y5666100D01*
X3465200Y7404100D02*
X3545200D01*
X3505200Y7364100D02*
Y7444100D01*
X3465200Y7150100D02*
X3545200D01*
X3505200Y7110100D02*
Y7190100D01*
X3465200Y6896100D02*
X3545200D01*
X3505200Y6856100D02*
Y6936100D01*
X3465200Y6642100D02*
X3545200D01*
X3505200Y6602100D02*
Y6682100D01*
X3465200Y6388100D02*
X3545200D01*
X3505200Y6348100D02*
Y6428100D01*
X3465200Y6134100D02*
X3545200D01*
X3505200Y6094100D02*
Y6174100D01*
X3465200Y5880100D02*
X3545200D01*
X3505200Y5840100D02*
Y5920100D01*
X3465200Y5626100D02*
X3545200D01*
X3505200Y5586100D02*
Y5666100D01*
X4227200Y7404100D02*
X4307200D01*
X4267200Y7364100D02*
Y7444100D01*
X4227200Y7150100D02*
X4307200D01*
X4267200Y7110100D02*
Y7190100D01*
X4227200Y6896100D02*
X4307200D01*
X4267200Y6856100D02*
Y6936100D01*
X4227200Y6642100D02*
X4307200D01*
X4267200Y6602100D02*
Y6682100D01*
X4227200Y6388100D02*
X4307200D01*
X4267200Y6348100D02*
Y6428100D01*
X4227200Y6134100D02*
X4307200D01*
X4267200Y6094100D02*
Y6174100D01*
X4227200Y5880100D02*
X4307200D01*
X4267200Y5840100D02*
Y5920100D01*
X4227200Y5626100D02*
X4307200D01*
X4267200Y5586100D02*
Y5666100D01*
X7199949Y11917924D02*
X7284949D01*
X7242449Y11875424D02*
Y11960424D01*
X7199949Y11017921D02*
X7284949D01*
X7242449Y10975421D02*
Y11060421D01*
X3171204Y11923603D02*
X3256205D01*
X3213705Y11881103D02*
Y11966103D01*
X3171204Y11023600D02*
X3256205D01*
X3213705Y10981100D02*
Y11066100D01*
X6846300Y11923603D02*
X6931300D01*
X6888800Y11881103D02*
Y11966103D01*
X6846300Y11023600D02*
X6931300D01*
X6888800Y10981100D02*
Y11066100D01*
X3565793Y11923603D02*
X3650794D01*
X3608294Y11881103D02*
Y11966103D01*
X3565793Y11023600D02*
X3650794D01*
X3608294Y10981100D02*
Y11066100D01*
X6496161Y11923603D02*
X6581161D01*
X6538661Y11881103D02*
Y11966103D01*
X6496161Y11023600D02*
X6581161D01*
X6538661Y10981100D02*
Y11066100D01*
X3953692Y11923603D02*
X4038692D01*
X3996192Y11881103D02*
Y11966103D01*
X3953692Y11023600D02*
X4038692D01*
X3996192Y10981100D02*
Y11066100D01*
X6160932Y11923603D02*
X6245932D01*
X6203432Y11881103D02*
Y11966103D01*
X6160932Y11023600D02*
X6245932D01*
X6203432Y10981100D02*
Y11066100D01*
X4311289Y11923603D02*
X4396289D01*
X4353789Y11881103D02*
Y11966103D01*
X4311289Y11023600D02*
X4396289D01*
X4353789Y10981100D02*
Y11066100D01*
X5802360Y11923603D02*
X5887360D01*
X5844860Y11881103D02*
Y11966103D01*
X5802360Y11023600D02*
X5887360D01*
X5844860Y10981100D02*
Y11066100D01*
X4714381Y11923603D02*
X4799382D01*
X4756882Y11881103D02*
Y11966103D01*
X4714381Y11023600D02*
X4799382D01*
X4756882Y10981100D02*
Y11066100D01*
X5459811Y11923603D02*
X5544811D01*
X5502311Y11881103D02*
Y11966103D01*
X5459811Y11023600D02*
X5544811D01*
X5502311Y10981100D02*
Y11066100D01*
X5094889Y11923603D02*
X5179889D01*
X5137389Y11881103D02*
Y11966103D01*
X5094889Y11023600D02*
X5179889D01*
X5137389Y10981100D02*
Y11066100D01*
X5130288Y4849993D02*
X5240288D01*
X5185288Y4794993D02*
Y4904993D01*
X5130288Y4595993D02*
X5240288D01*
X5185288Y4540993D02*
Y4650993D01*
X4876288Y4849993D02*
X4986288D01*
X4931288Y4794993D02*
Y4904993D01*
X4876288Y4595993D02*
X4986288D01*
X4931288Y4540993D02*
Y4650993D01*
X4368288Y4595993D02*
X4478288D01*
X4423288Y4540993D02*
Y4650993D01*
X4368288Y4849993D02*
X4478288D01*
X4423288Y4794993D02*
Y4904993D01*
X4622288Y4595993D02*
X4732288D01*
X4677288Y4540993D02*
Y4650993D01*
X4622288Y4849993D02*
X4732288D01*
X4677288Y4794993D02*
Y4904993D01*
X5384288Y4595993D02*
X5494288D01*
X5439288Y4540993D02*
Y4650993D01*
X5384288Y4849993D02*
X5494288D01*
X5439288Y4794993D02*
Y4904993D01*
X5638288Y4595993D02*
X5748288D01*
X5693288Y4540993D02*
Y4650993D01*
X5892288Y4595993D02*
X6002288D01*
X5947288Y4540993D02*
Y4650993D01*
X5638288Y4849993D02*
X5748288D01*
X5693288Y4794993D02*
Y4904993D01*
X5892288Y4849993D02*
X6002288D01*
X5947288Y4794993D02*
Y4904993D01*
X5128856Y10296708D02*
X5238855D01*
X5183856Y10241708D02*
Y10351708D01*
X5128856Y10042708D02*
X5238855D01*
X5183856Y9987708D02*
Y10097708D01*
X4874856Y10296708D02*
X4984855D01*
X4929856Y10241708D02*
Y10351708D01*
X4874856Y10042708D02*
X4984855D01*
X4929856Y9987708D02*
Y10097708D01*
X4366856Y10042708D02*
X4476855D01*
X4421856Y9987708D02*
Y10097708D01*
X4366856Y10296708D02*
X4476855D01*
X4421856Y10241708D02*
Y10351708D01*
X4620856Y10042708D02*
X4730855D01*
X4675856Y9987708D02*
Y10097708D01*
X4620856Y10296708D02*
X4730855D01*
X4675856Y10241708D02*
Y10351708D01*
X5382856Y10042708D02*
X5492855D01*
X5437856Y9987708D02*
Y10097708D01*
X5382856Y10296708D02*
X5492855D01*
X5437856Y10241708D02*
Y10351708D01*
X5636856Y10042708D02*
X5746855D01*
X5691856Y9987708D02*
Y10097708D01*
X5890856Y10042708D02*
X6000855D01*
X5945856Y9987708D02*
Y10097708D01*
X5636856Y10296708D02*
X5746855D01*
X5691856Y10241708D02*
Y10351708D01*
X5890856Y10296708D02*
X6000855D01*
X5945856Y10241708D02*
Y10351708D01*
X3860800Y5742940D02*
X3931920D01*
X3896360Y5707380D02*
Y5778500D01*
X4620260Y6794500D02*
X4691380D01*
X4655820Y6758940D02*
Y6830060D01*
X6007100Y4165600D02*
X6078220D01*
X6042660Y4130040D02*
Y4201160D01*
X6464300Y6896100D02*
X6535420D01*
X6499860Y6860540D02*
Y6931660D01*
X5783580Y5397500D02*
X5854700D01*
X5819140Y5361940D02*
Y5433060D01*
X6350000Y5640720D02*
X6421120D01*
X6385560Y5605160D02*
Y5676280D01*
X5012568Y7033260D02*
X5083688D01*
X5048128Y6997700D02*
Y7068820D01*
X3505200Y8092440D02*
X3576320D01*
X3540760Y8056880D02*
Y8128000D01*
X5839460Y5245100D02*
X5910580D01*
X5875020Y5209540D02*
Y5280660D01*
X4051300Y5427980D02*
X4122420D01*
X4086860Y5392420D02*
Y5463540D01*
%TF.MD5,793a6e6ac6b0b65997e2a864fc677d95*%
M02*
