G04*
G04 #@! TF.GenerationSoftware,Altium Limited,Altium Designer,22.9.1 (49)*
G04*
G04 Layer_Physical_Order=2*
G04 Layer_Color=16711680*
%FSLAX44Y44*%
%MOMM*%
G71*
G04*
G04 #@! TF.SameCoordinates,73C1D453-A157-4A54-B1A5-12706931D713*
G04*
G04*
G04 #@! TF.FilePolarity,Positive*
G04*
G01*
G75*
%ADD10C,0.2000*%
%ADD13C,0.1524*%
%ADD15C,1.2000*%
%ADD16C,0.1500*%
%ADD17C,0.1000*%
%ADD18C,0.0500*%
%ADD28C,0.3810*%
%ADD29C,1.6000*%
%ADD30R,1.3500X1.3500*%
%ADD31C,1.3500*%
%ADD32R,1.5000X1.5000*%
%ADD33C,1.5000*%
%ADD34R,1.4000X1.4000*%
%ADD35C,1.4000*%
%ADD36C,1.6500*%
%ADD37R,1.6500X1.6500*%
D10*
X688340Y501650D02*
X748030D01*
Y438150D02*
Y501650D01*
X688340Y438150D02*
X748030D01*
X688340D02*
Y501650D01*
X687070Y1043940D02*
X746760D01*
Y980440D02*
Y1043940D01*
X687070Y980440D02*
X746760D01*
X687070D02*
Y1043940D01*
X746760Y487680D02*
G03*
X746255Y451440I-26526J-17754D01*
G01*
X745490Y1029970D02*
G03*
X744985Y993730I-26526J-17754D01*
G01*
X746760Y452120D02*
Y487680D01*
X717550Y469900D02*
X722630D01*
X720090Y467360D02*
Y472440D01*
X745490Y994410D02*
Y1029970D01*
X716280Y1012190D02*
X721360D01*
X718820Y1009650D02*
Y1014730D01*
D13*
X720090Y477518D02*
Y469900D01*
X725168D01*
X732786Y477518D02*
X727708D01*
Y469900D01*
X732786D01*
X727708Y473709D02*
X730247D01*
X735325Y477518D02*
Y469900D01*
X739134D01*
X740403Y471170D01*
Y476248D01*
X739134Y477518D01*
X735325D01*
X742943Y469900D02*
X745482D01*
X744212D01*
Y477518D01*
X742943Y476248D01*
X750570Y473708D02*
Y466090D01*
Y468629D01*
X755648Y473708D01*
X751840Y469899D01*
X755648Y466090D01*
X718820Y1019808D02*
Y1012190D01*
X723898D01*
X731516Y1019808D02*
X726438D01*
Y1012190D01*
X731516D01*
X726438Y1015999D02*
X728977D01*
X734055Y1019808D02*
Y1012190D01*
X737864D01*
X739133Y1013460D01*
Y1018538D01*
X737864Y1019808D01*
X734055D01*
X746751Y1012190D02*
X741673D01*
X746751Y1017268D01*
Y1018538D01*
X745481Y1019808D01*
X742942D01*
X741673Y1018538D01*
X749300Y1015997D02*
Y1008380D01*
Y1010919D01*
X754378Y1015997D01*
X750570Y1012189D01*
X754378Y1008380D01*
D15*
X271056Y400050D02*
Y1244600D01*
Y400050D02*
X772160D01*
Y1244600D01*
X271056D02*
X772160D01*
D16*
X650026Y894080D02*
X640029D01*
X638030Y892081D01*
Y888082D01*
X640029Y886083D01*
X650026D01*
Y874087D02*
Y882084D01*
X644028D01*
X646027Y878085D01*
Y876086D01*
X644028Y874087D01*
X640029D01*
X638030Y876086D01*
Y880085D01*
X640029Y882084D01*
X408236Y894080D02*
X398239D01*
X396240Y892081D01*
Y888082D01*
X398239Y886083D01*
X408236D01*
X396240Y876086D02*
X408236D01*
X402238Y882084D01*
Y874087D01*
D17*
X737610Y887600D02*
G03*
X737610Y887600I-5000J0D01*
G01*
X495820D02*
G03*
X495820Y887600I-5000J0D01*
G01*
X629544Y742510D02*
G03*
X629544Y742510I-5000J0D01*
G01*
X498279D02*
G03*
X498279Y742510I-5000J0D01*
G01*
X368370D02*
G03*
X368370Y742510I-5000J0D01*
G01*
X649670Y439670D02*
X673670D01*
X649670D02*
Y502670D01*
X673670Y439670D02*
Y502670D01*
X649670D02*
X673670D01*
X649670Y980690D02*
X673670D01*
X649670D02*
Y1043690D01*
X673670Y980690D02*
Y1043690D01*
X649670D02*
X673670D01*
X544609Y896600D02*
X741610D01*
X544609Y830600D02*
X741610D01*
Y896600D01*
X544609Y830600D02*
Y896600D01*
X302820D02*
X499820D01*
X302820Y830600D02*
X499820D01*
Y896600D01*
X302820Y830600D02*
Y896600D01*
X615544Y551510D02*
Y751510D01*
X684044Y551510D02*
Y751510D01*
X615544D02*
X684044D01*
X615544Y551510D02*
X684044D01*
X484279D02*
Y751510D01*
X552779Y551510D02*
Y751510D01*
X484279D02*
X552779D01*
X484279Y551510D02*
X552779D01*
X354370D02*
Y751510D01*
X422870Y551510D02*
Y751510D01*
X354370D02*
X422870D01*
X354370Y551510D02*
X422870D01*
X711561Y1178860D02*
X735561D01*
Y1115860D02*
Y1178860D01*
X711561Y1115860D02*
Y1178860D01*
Y1115860D02*
X735561D01*
X309370Y1178860D02*
X333370D01*
Y1115860D02*
Y1178860D01*
X309370Y1115860D02*
Y1178860D01*
Y1115860D02*
X333370D01*
X676880Y1178860D02*
X700880D01*
Y1115860D02*
Y1178860D01*
X676880Y1115860D02*
Y1178860D01*
Y1115860D02*
X700880D01*
X348829Y1178860D02*
X372829D01*
Y1115860D02*
Y1178860D01*
X348829Y1115860D02*
Y1178860D01*
Y1115860D02*
X372829D01*
X641866Y1178860D02*
X665866D01*
Y1115860D02*
Y1178860D01*
X641866Y1115860D02*
Y1178860D01*
Y1115860D02*
X665866D01*
X387619Y1178860D02*
X411619D01*
Y1115860D02*
Y1178860D01*
X387619Y1115860D02*
Y1178860D01*
Y1115860D02*
X411619D01*
X608343Y1178860D02*
X632343D01*
Y1115860D02*
Y1178860D01*
X608343Y1115860D02*
Y1178860D01*
Y1115860D02*
X632343D01*
X423379Y1178860D02*
X447379D01*
Y1115860D02*
Y1178860D01*
X423379Y1115860D02*
Y1178860D01*
Y1115860D02*
X447379D01*
X572486Y1178860D02*
X596486D01*
Y1115860D02*
Y1178860D01*
X572486Y1115860D02*
Y1178860D01*
Y1115860D02*
X596486D01*
X463688Y1178860D02*
X487688D01*
Y1115860D02*
Y1178860D01*
X463688Y1115860D02*
Y1178860D01*
Y1115860D02*
X487688D01*
X538231Y1178860D02*
X562231D01*
Y1115860D02*
Y1178860D01*
X538231Y1115860D02*
Y1178860D01*
Y1115860D02*
X562231D01*
X501739Y1178860D02*
X525739D01*
Y1115860D02*
Y1178860D01*
X501739Y1115860D02*
Y1178860D01*
Y1115860D02*
X525739D01*
X429629Y497699D02*
X607429D01*
Y446899D02*
Y497699D01*
X429629Y446899D02*
X607429D01*
X429629D02*
Y497699D01*
X429486Y1042371D02*
X607286D01*
Y991571D02*
Y1042371D01*
X429486Y991571D02*
X607286D01*
X429486D02*
Y1042371D01*
X656670Y471170D02*
X666670D01*
X661670Y466170D02*
Y476170D01*
X656670Y1012190D02*
X666670D01*
X661670Y1007190D02*
Y1017190D01*
X643110Y858600D02*
Y868600D01*
X638110Y863600D02*
X648109D01*
X401320Y858600D02*
Y868600D01*
X396320Y863600D02*
X406320D01*
X644794Y651510D02*
X654794D01*
X649794Y646510D02*
Y656510D01*
X513529Y651510D02*
X523529D01*
X518529Y646510D02*
Y656510D01*
X383620Y651510D02*
X393620D01*
X388620Y646510D02*
Y656510D01*
X723561Y1142360D02*
Y1152360D01*
X718561Y1147360D02*
X728561D01*
X321371Y1142360D02*
Y1152360D01*
X316371Y1147360D02*
X326371D01*
X688880Y1142360D02*
Y1152360D01*
X683880Y1147360D02*
X693880D01*
X360829Y1142360D02*
Y1152360D01*
X355830Y1147360D02*
X365830D01*
X653866Y1142360D02*
Y1152360D01*
X648866Y1147360D02*
X658866D01*
X399619Y1142360D02*
Y1152360D01*
X394619Y1147360D02*
X404619D01*
X620343Y1142360D02*
Y1152360D01*
X615343Y1147360D02*
X625343D01*
X435379Y1142360D02*
Y1152360D01*
X430379Y1147360D02*
X440379D01*
X584486Y1142360D02*
Y1152360D01*
X579486Y1147360D02*
X589486D01*
X475688Y1142360D02*
Y1152360D01*
X470688Y1147360D02*
X480688D01*
X550231Y1142360D02*
Y1152360D01*
X545231Y1147360D02*
X555231D01*
X513739Y1142360D02*
Y1152360D01*
X508739Y1147360D02*
X518739D01*
D18*
X648670Y523920D02*
X674670D01*
X648670Y418420D02*
Y523920D01*
X674670Y418420D02*
Y523920D01*
X648670Y418420D02*
X674670D01*
X648670Y1064940D02*
X674670D01*
X648670Y959440D02*
Y1064940D01*
X674670Y959440D02*
Y1064940D01*
X648670Y959440D02*
X674670D01*
X542110Y912100D02*
X744110D01*
X542110Y815100D02*
X744110D01*
Y912100D01*
X542110Y815100D02*
Y912100D01*
X300320D02*
X502320D01*
X300320Y815100D02*
X502320D01*
Y912100D01*
X300320Y815100D02*
Y912100D01*
X601794Y549010D02*
Y754010D01*
X697794Y549010D02*
Y754010D01*
X601794D02*
X697794D01*
X601794Y549010D02*
X697794D01*
X470529D02*
Y754010D01*
X566529Y549010D02*
Y754010D01*
X470529D02*
X566529D01*
X470529Y549010D02*
X566529D01*
X340620D02*
Y754010D01*
X436620Y549010D02*
Y754010D01*
X340620D02*
X436620D01*
X340620Y549010D02*
X436620D01*
X710560Y1094610D02*
X736561D01*
Y1200110D01*
X710560Y1094610D02*
Y1200110D01*
X736561D01*
X308370Y1094610D02*
X334371D01*
Y1200110D01*
X308370Y1094610D02*
Y1200110D01*
X334371D01*
X675880Y1094610D02*
X701880D01*
Y1200110D01*
X675880Y1094610D02*
Y1200110D01*
X701880D01*
X347829Y1094610D02*
X373830D01*
Y1200110D01*
X347829Y1094610D02*
Y1200110D01*
X373830D01*
X640866Y1094610D02*
X666866D01*
Y1200110D01*
X640866Y1094610D02*
Y1200110D01*
X666866D01*
X386619Y1094610D02*
X412619D01*
Y1200110D01*
X386619Y1094610D02*
Y1200110D01*
X412619D01*
X607343Y1094610D02*
X633343D01*
Y1200110D01*
X607343Y1094610D02*
Y1200110D01*
X633343D01*
X422379Y1094610D02*
X448379D01*
Y1200110D01*
X422379Y1094610D02*
Y1200110D01*
X448379D01*
X571486Y1094610D02*
X597486D01*
Y1200110D01*
X571486Y1094610D02*
Y1200110D01*
X597486D01*
X462688Y1094610D02*
X488688D01*
Y1200110D01*
X462688Y1094610D02*
Y1200110D01*
X488688D01*
X537231Y1094610D02*
X563231D01*
Y1200110D01*
X537231Y1094610D02*
Y1200110D01*
X563231D01*
X500739Y1094610D02*
X526739D01*
Y1200110D01*
X500739Y1094610D02*
Y1200110D01*
X526739D01*
X426129Y444149D02*
Y500449D01*
Y444149D02*
X610929D01*
Y500449D01*
X426129D02*
X610929D01*
X518529Y467299D02*
Y477299D01*
X513529Y472299D02*
X523529D01*
X425985Y988821D02*
Y1045121D01*
Y988821D02*
X610786D01*
Y1045121D01*
X425985D02*
X610786D01*
X518386Y1011971D02*
Y1021971D01*
X513386Y1016971D02*
X523386D01*
D28*
X401320Y825754D02*
Y838112D01*
Y825754D02*
X426466D01*
X310134Y1111250D02*
X313436Y1114552D01*
X306324Y1107440D02*
X310134Y1111250D01*
X719310Y825500D02*
X731520Y837710D01*
Y928624D01*
X708406Y951738D02*
X731520Y928624D01*
X647118Y951738D02*
X708406D01*
X594586Y1004271D02*
X647118Y951738D01*
X544691Y752348D02*
X556629Y740410D01*
X518668Y778371D02*
X544691Y752348D01*
X518668Y778371D02*
Y784352D01*
X477520Y825500D02*
X518668Y784352D01*
X426720Y740410D02*
X438658Y752348D01*
X544691D01*
X556629Y740410D02*
X578358D01*
X590296Y752348D01*
X675956D01*
X687894Y740410D01*
X594929Y562610D02*
X611694D01*
X576895Y544576D02*
X594929Y562610D01*
X498463Y544576D02*
X576895D01*
X480429Y562610D02*
X498463Y544576D01*
X350520Y562610D02*
X362458Y550672D01*
X468491D01*
X480429Y562610D01*
X325120Y901700D02*
X337566Y889254D01*
X554464D01*
X566910Y901700D01*
X592310Y825500D02*
X604756Y813054D01*
X630664D01*
X643110Y825500D01*
X572622Y1102360D02*
X584486D01*
X561426Y1091165D02*
X572622Y1102360D01*
X537634Y1091165D02*
X561426D01*
X531284Y1084815D02*
X537634Y1091165D01*
X522729Y1084815D02*
X531284D01*
X467586Y1029671D02*
X522729Y1084815D01*
X466967Y728472D02*
X480429Y715010D01*
X419354Y728472D02*
X466967D01*
X415036Y732790D02*
X419354Y728472D01*
X415036Y732790D02*
Y760984D01*
X350520Y825500D02*
X415036Y760984D01*
X492986Y1029671D02*
X547895Y1084580D01*
X564915D01*
X571500Y1091165D01*
X609148D01*
X620343Y1102360D01*
X518386Y1004271D02*
X579120Y943536D01*
Y863854D02*
Y943536D01*
X565912Y850646D02*
X579120Y863854D01*
X451866Y850646D02*
X565912D01*
X426720Y825500D02*
X451866Y850646D01*
X387427Y1114552D02*
X399619Y1102360D01*
X313436Y1114552D02*
X387427D01*
X306324Y660654D02*
Y1107440D01*
Y660654D02*
X316230Y650748D01*
X489965D01*
X546100Y594613D01*
X550026D01*
X556629Y588010D01*
X642734Y1102360D02*
X653866D01*
X625188Y1084815D02*
X642734Y1102360D01*
X588474Y1084815D02*
X625188D01*
X582124Y1078465D02*
X588474Y1084815D01*
X567179Y1078465D02*
X582124D01*
X518386Y1029671D02*
X567179Y1078465D01*
X656318Y913892D02*
X668510Y901700D01*
X581890Y988320D02*
X656318Y913892D01*
X581890Y988320D02*
Y1009650D01*
X589211Y1016971D01*
X675341D01*
X735076Y1076706D01*
Y1113536D01*
X734568Y1114044D02*
X735076Y1113536D01*
X424434Y1114044D02*
X734568D01*
X423926Y1113536D02*
X424434Y1114044D01*
X423926Y1091946D02*
Y1113536D01*
X409807Y1077827D02*
X423926Y1091946D01*
X385363Y1077827D02*
X409807D01*
X360829Y1102360D02*
X385363Y1077827D01*
X634164Y913892D02*
X656318D01*
X543786Y1004271D02*
X634164Y913892D01*
X677196Y1090676D02*
X688880Y1102360D01*
X643750Y1090676D02*
X677196D01*
X631539Y1078465D02*
X643750Y1090676D01*
X592579Y1078465D02*
X631539D01*
X543786Y1029671D02*
X592579Y1078465D01*
X703495Y1082294D02*
X723561Y1102360D01*
X698754Y1082294D02*
X703495D01*
X696214Y1079754D02*
X698754Y1082294D01*
X644239Y1079754D02*
X696214D01*
X623917Y1059433D02*
X644239Y1079754D01*
X598947Y1059433D02*
X623917D01*
X569186Y1029671D02*
X598947Y1059433D01*
X455029Y472299D02*
X467729Y459599D01*
X405240Y472299D02*
X455029D01*
X332725Y544815D02*
X405240Y472299D01*
X332725Y544815D02*
Y589519D01*
X343154Y599948D01*
X413258D01*
X426720Y613410D01*
X645160Y689610D02*
X687894D01*
X632460Y676910D02*
X645160Y689610D01*
X604012Y676910D02*
X632460D01*
X599948Y672846D02*
X604012Y676910D01*
X599948Y657479D02*
Y672846D01*
Y657479D02*
X605917Y651510D01*
X615950D01*
X623570Y643890D01*
Y631571D02*
Y643890D01*
X618871Y626872D02*
X623570Y631571D01*
X602996Y626872D02*
X618871D01*
X592328Y616204D02*
X602996Y626872D01*
X592328Y584200D02*
Y616204D01*
Y584200D02*
X601218Y575310D01*
X615950D01*
X623570Y567690D01*
Y555371D02*
Y567690D01*
X618871Y550672D02*
X623570Y555371D01*
X598678Y550672D02*
X618871D01*
X569329Y521323D02*
X598678Y550672D01*
X569329Y484999D02*
Y521323D01*
X480429Y588010D02*
X517274Y551165D01*
X567167D01*
X581660Y565658D01*
Y597916D01*
X578104Y601472D02*
X581660Y597916D01*
X549529Y601472D02*
X578104D01*
X544830Y606171D02*
X549529Y601472D01*
X544830Y606171D02*
Y644906D01*
X552196Y652272D01*
X563245D01*
X568452Y657479D01*
Y721614D01*
X574548Y727710D01*
X692150D01*
X699770Y735330D01*
Y777748D01*
X681482Y796036D02*
X699770Y777748D01*
X681482Y796036D02*
Y832612D01*
X676148Y837946D02*
X681482Y832612D01*
X470154Y837946D02*
X676148D01*
X464566Y832358D02*
X470154Y837946D01*
X464566Y818642D02*
Y832358D01*
X452628Y806704D02*
X464566Y818642D01*
X384556Y806704D02*
X452628D01*
X375920Y815340D02*
X384556Y806704D01*
X375920Y815340D02*
Y825500D01*
X446024Y819404D02*
X452120Y825500D01*
X438658Y819404D02*
X446024D01*
X432562Y813308D02*
X438658Y819404D01*
X395732Y813308D02*
X432562D01*
X388112Y820928D02*
X395732Y813308D01*
X388112Y820928D02*
Y830333D01*
X380753Y837692D02*
X388112Y830333D01*
X317747Y837692D02*
X380753D01*
X313175Y833120D02*
X317747Y837692D01*
X313175Y809251D02*
Y833120D01*
Y809251D02*
X419354Y703072D01*
X544691D01*
X556629Y715010D01*
X689060Y426170D02*
X732790Y469900D01*
X661670Y426170D02*
X689060D01*
X569329Y459599D02*
X582024Y472295D01*
Y496275D01*
X630491Y544742D01*
Y556007D01*
X687894Y613410D01*
X426466Y825754D02*
X426720Y825500D01*
X401320D02*
Y825754D01*
X310134Y889000D02*
Y1111250D01*
Y889000D02*
X329946Y869188D01*
X370244D01*
X401320Y838112D01*
X611694Y588010D02*
X630428D01*
X668528Y626110D01*
X698500D01*
X706628Y634238D01*
Y837184D01*
X719310Y849866D01*
Y901700D01*
X350266Y825246D02*
X350520Y825500D01*
X325374Y825246D02*
X350266D01*
X325120Y825500D02*
X325374Y825246D01*
X467586Y990600D02*
Y1004271D01*
X450793Y973808D02*
X467586Y990600D01*
X448028Y973808D02*
X450793D01*
X375920Y901700D02*
X448028Y973808D01*
X536129Y1102360D02*
X550231D01*
X524934Y1091165D02*
X536129Y1102360D01*
X442420Y1091165D02*
X524934D01*
X442186Y1090930D02*
X442420Y1091165D01*
X442186Y1029671D02*
Y1090930D01*
X661670Y967190D02*
X686520D01*
X731520Y1012190D01*
X321371Y1102360D02*
X406760Y1016971D01*
X556486D01*
X569186Y1004271D01*
X594729Y484999D02*
X625900Y516170D01*
X661670D01*
X594586Y1029671D02*
X634151D01*
X661670Y1057190D01*
X321371Y1192360D02*
X360829D01*
X399619D01*
X435379D01*
X475688D01*
X513739D01*
X550231D01*
X584486D01*
X688880D02*
X723561D01*
X653866D02*
X688880D01*
X584486D02*
X620343D01*
X653866D01*
X643110Y825500D02*
X668510D01*
X566910D02*
X592310D01*
X611694Y664210D02*
X687894D01*
X556629Y638810D02*
X611694D01*
X480429Y664210D02*
X556629D01*
X350520D02*
X426720D01*
X480429D01*
X426720Y901700D02*
X452120D01*
X350520D02*
X375920D01*
X668510D02*
X693910D01*
X592310D02*
X617710D01*
D29*
X732790Y469900D02*
D03*
X707390D02*
D03*
X731520Y1012190D02*
D03*
X706120D02*
D03*
D30*
X661670Y426170D02*
D03*
Y967190D02*
D03*
X723561Y1102360D02*
D03*
X321371D02*
D03*
X688880D02*
D03*
X360829D02*
D03*
X653866D02*
D03*
X399619D02*
D03*
X620343D02*
D03*
X435379D02*
D03*
X584486D02*
D03*
X475688D02*
D03*
X550231D02*
D03*
X513739D02*
D03*
D31*
X661670Y516170D02*
D03*
Y1057190D02*
D03*
X723561Y1192360D02*
D03*
X321371D02*
D03*
X688880D02*
D03*
X360829D02*
D03*
X653866D02*
D03*
X399619D02*
D03*
X620343D02*
D03*
X435379D02*
D03*
X584486D02*
D03*
X475688D02*
D03*
X550231D02*
D03*
X513739D02*
D03*
D32*
X719310Y901700D02*
D03*
X477520D02*
D03*
D33*
X693910D02*
D03*
X668510D02*
D03*
X643110D02*
D03*
X617710D02*
D03*
X592310D02*
D03*
X566910D02*
D03*
X719310Y825500D02*
D03*
X693910D02*
D03*
X668510D02*
D03*
X643110D02*
D03*
X617710D02*
D03*
X592310D02*
D03*
X566910D02*
D03*
X452120Y901700D02*
D03*
X426720D02*
D03*
X401320D02*
D03*
X375920D02*
D03*
X350520D02*
D03*
X325120D02*
D03*
X477520Y825500D02*
D03*
X452120D02*
D03*
X426720D02*
D03*
X401320D02*
D03*
X375920D02*
D03*
X350520D02*
D03*
X325120D02*
D03*
D34*
X611694Y740410D02*
D03*
X480429D02*
D03*
X350520D02*
D03*
D35*
X611694Y715010D02*
D03*
Y689610D02*
D03*
Y664210D02*
D03*
Y638810D02*
D03*
Y613410D02*
D03*
Y588010D02*
D03*
Y562610D02*
D03*
X687894Y740410D02*
D03*
Y715010D02*
D03*
Y689610D02*
D03*
Y664210D02*
D03*
Y638810D02*
D03*
Y613410D02*
D03*
Y588010D02*
D03*
Y562610D02*
D03*
X480429Y715010D02*
D03*
Y689610D02*
D03*
Y664210D02*
D03*
Y638810D02*
D03*
Y613410D02*
D03*
Y588010D02*
D03*
Y562610D02*
D03*
X556629Y740410D02*
D03*
Y715010D02*
D03*
Y689610D02*
D03*
Y664210D02*
D03*
Y638810D02*
D03*
Y613410D02*
D03*
Y588010D02*
D03*
Y562610D02*
D03*
X350520Y715010D02*
D03*
Y689610D02*
D03*
Y664210D02*
D03*
Y638810D02*
D03*
Y613410D02*
D03*
Y588010D02*
D03*
Y562610D02*
D03*
X426720Y740410D02*
D03*
Y715010D02*
D03*
Y689610D02*
D03*
Y664210D02*
D03*
Y638810D02*
D03*
Y613410D02*
D03*
Y588010D02*
D03*
Y562610D02*
D03*
D36*
X518529Y484999D02*
D03*
Y459599D02*
D03*
X493129Y484999D02*
D03*
Y459599D02*
D03*
X442329Y484999D02*
D03*
X467729Y459599D02*
D03*
Y484999D02*
D03*
X543929Y459599D02*
D03*
Y484999D02*
D03*
X569329Y459599D02*
D03*
X594729D02*
D03*
X569329Y484999D02*
D03*
X594729D02*
D03*
X518386Y1029671D02*
D03*
Y1004271D02*
D03*
X492986Y1029671D02*
D03*
Y1004271D02*
D03*
X442186Y1029671D02*
D03*
X467586Y1004271D02*
D03*
Y1029671D02*
D03*
X543786Y1004271D02*
D03*
Y1029671D02*
D03*
X569186Y1004271D02*
D03*
X594586D02*
D03*
X569186Y1029671D02*
D03*
X594586D02*
D03*
D37*
X442329Y459599D02*
D03*
X442186Y1004271D02*
D03*
M02*
