%TF.GenerationSoftware,Altium Limited,Altium Designer,22.9.1 (49)*%
G04 Layer_Color=0*
%FSLAX45Y45*%
%MOMM*%
%TF.SameCoordinates,4BB515F2-1930-42CC-84AD-66DDC1B42358*%
%TF.FilePolarity,Positive*%
%TF.FileFunction,Plated,1,2,PTH,Drill*%
%TF.Part,Single*%
G01*
G75*
%TA.AperFunction,ComponentDrill*%
%ADD39C,0.90000*%
%ADD40C,0.80000*%
%ADD41C,0.85000*%
%ADD42C,1.10000*%
%TA.AperFunction,ViaDrill,NotFilled*%
%ADD43C,0.71120*%
D39*
X5550784Y8255000D02*
D03*
X5804784D02*
D03*
X6058784D02*
D03*
X6312784D02*
D03*
X6566784D02*
D03*
X6820784D02*
D03*
X7074784D02*
D03*
X5550784Y9017000D02*
D03*
X5804784D02*
D03*
X6058784D02*
D03*
X6312784D02*
D03*
X6566784D02*
D03*
X6820784D02*
D03*
X7074784D02*
D03*
X4775200D02*
D03*
X4521200D02*
D03*
X4267200D02*
D03*
X4013200D02*
D03*
X3759200D02*
D03*
X3505200D02*
D03*
X3251200D02*
D03*
X4775200Y8255000D02*
D03*
X4521200D02*
D03*
X4267200D02*
D03*
X4013200D02*
D03*
X3759200D02*
D03*
X3505200D02*
D03*
X3251200D02*
D03*
D40*
X6116940Y7404100D02*
D03*
Y7150100D02*
D03*
Y6896100D02*
D03*
Y6642100D02*
D03*
Y6388100D02*
D03*
Y6134100D02*
D03*
Y5880100D02*
D03*
Y5626100D02*
D03*
X6878940Y7404100D02*
D03*
Y7150100D02*
D03*
Y6896100D02*
D03*
Y6642100D02*
D03*
Y6388100D02*
D03*
Y6134100D02*
D03*
Y5880100D02*
D03*
Y5626100D02*
D03*
X4804288Y7404100D02*
D03*
Y7150100D02*
D03*
Y6896100D02*
D03*
Y6642100D02*
D03*
Y6388100D02*
D03*
Y6134100D02*
D03*
Y5880100D02*
D03*
Y5626100D02*
D03*
X5566288Y7404100D02*
D03*
Y7150100D02*
D03*
Y6896100D02*
D03*
Y6642100D02*
D03*
Y6388100D02*
D03*
Y6134100D02*
D03*
Y5880100D02*
D03*
Y5626100D02*
D03*
X3505200Y7404100D02*
D03*
Y7150100D02*
D03*
Y6896100D02*
D03*
Y6642100D02*
D03*
Y6388100D02*
D03*
Y6134100D02*
D03*
Y5880100D02*
D03*
Y5626100D02*
D03*
X4267200Y7404100D02*
D03*
Y7150100D02*
D03*
Y6896100D02*
D03*
Y6642100D02*
D03*
Y6388100D02*
D03*
Y6134100D02*
D03*
Y5880100D02*
D03*
Y5626100D02*
D03*
D41*
X7242449Y11917924D02*
D03*
Y11017921D02*
D03*
X3213705Y11923603D02*
D03*
Y11023600D02*
D03*
X6888800Y11923603D02*
D03*
Y11023600D02*
D03*
X3608294Y11923603D02*
D03*
Y11023600D02*
D03*
X6538661Y11923603D02*
D03*
Y11023600D02*
D03*
X3996192Y11923603D02*
D03*
Y11023600D02*
D03*
X6203432Y11923603D02*
D03*
Y11023600D02*
D03*
X4353789Y11923603D02*
D03*
Y11023600D02*
D03*
X5844860Y11923603D02*
D03*
Y11023600D02*
D03*
X4756882Y11923603D02*
D03*
Y11023600D02*
D03*
X5502311Y11923603D02*
D03*
Y11023600D02*
D03*
X5137389Y11923603D02*
D03*
Y11023600D02*
D03*
D42*
X5185288Y4849993D02*
D03*
Y4595993D02*
D03*
X4931288Y4849993D02*
D03*
Y4595993D02*
D03*
X4423288D02*
D03*
Y4849993D02*
D03*
X4677288Y4595993D02*
D03*
Y4849993D02*
D03*
X5439288Y4595993D02*
D03*
Y4849993D02*
D03*
X5693288Y4595993D02*
D03*
X5947288D02*
D03*
X5693288Y4849993D02*
D03*
X5947288D02*
D03*
X5183856Y10296708D02*
D03*
Y10042708D02*
D03*
X4929856Y10296708D02*
D03*
Y10042708D02*
D03*
X4421856D02*
D03*
Y10296708D02*
D03*
X4675856Y10042708D02*
D03*
Y10296708D02*
D03*
X5437856Y10042708D02*
D03*
Y10296708D02*
D03*
X5691856Y10042708D02*
D03*
X5945856D02*
D03*
X5691856Y10296708D02*
D03*
X5945856D02*
D03*
D43*
X3896360Y5742940D02*
D03*
X4655820Y6794500D02*
D03*
X6042660Y4165600D02*
D03*
X6499860Y6896100D02*
D03*
X5819140Y5397500D02*
D03*
X6385560Y5640720D02*
D03*
X5048128Y7033260D02*
D03*
X3540760Y8092440D02*
D03*
X5875020Y5245100D02*
D03*
X4086860Y5427980D02*
D03*
%TF.MD5,499d21ad94445dc3ae995d7804603b57*%
M02*
