G04*
G04 #@! TF.GenerationSoftware,Altium Limited,Altium Designer,22.9.1 (49)*
G04*
G04 Layer_Color=255*
%FSLAX44Y44*%
%MOMM*%
G71*
G04*
G04 #@! TF.SameCoordinates,78882AB9-2C9C-495A-B56B-01B9E16356B5*
G04*
G04*
G04 #@! TF.FilePolarity,Positive*
G04*
G01*
G75*
%ADD12C,0.2000*%
%ADD14C,0.1524*%
%ADD15C,0.1500*%
%ADD16C,0.1000*%
%ADD17C,0.0500*%
%ADD31R,1.3500X1.3500*%
%ADD32C,1.3500*%
%ADD33C,1.4000*%
%ADD34R,1.4000X1.4000*%
%ADD35C,1.5000*%
%ADD36R,1.5000X1.5000*%
%ADD37C,1.6000*%
%ADD38R,1.3500X1.3500*%
%ADD39C,1.6500*%
%ADD40R,1.6500X1.6500*%
D12*
X720090Y518160D02*
X779780D01*
Y454660D02*
Y518160D01*
X720090Y454660D02*
X779780D01*
X720090D02*
Y518160D01*
X709930Y1052830D02*
X769620D01*
Y989330D02*
Y1052830D01*
X709930Y989330D02*
X769620D01*
X709930D02*
Y1052830D01*
X778510Y504190D02*
G03*
X778005Y467950I-26526J-17754D01*
G01*
X768350Y1038860D02*
G03*
X767845Y1002620I-26526J-17754D01*
G01*
X778510Y468630D02*
Y504190D01*
X749300Y486410D02*
X754380D01*
X751840Y483870D02*
Y488950D01*
X768350Y1003300D02*
Y1038860D01*
X739140Y1021080D02*
X744220D01*
X741680Y1018540D02*
Y1023620D01*
D14*
X751840Y494027D02*
Y486410D01*
X756918D01*
X764536Y494027D02*
X759457D01*
Y486410D01*
X764536D01*
X759457Y490219D02*
X761997D01*
X767075Y494027D02*
Y486410D01*
X770884D01*
X772153Y487680D01*
Y492758D01*
X770884Y494027D01*
X767075D01*
X774693Y486410D02*
X777232D01*
X775962D01*
Y494027D01*
X774693Y492758D01*
X782320Y490218D02*
Y482600D01*
Y485139D01*
X787398Y490218D01*
X783590Y486409D01*
X787398Y482600D01*
X741680Y1028698D02*
Y1021080D01*
X746758D01*
X754376Y1028698D02*
X749297D01*
Y1021080D01*
X754376D01*
X749297Y1024889D02*
X751837D01*
X756915Y1028698D02*
Y1021080D01*
X760724D01*
X761993Y1022350D01*
Y1027428D01*
X760724Y1028698D01*
X756915D01*
X769611Y1021080D02*
X764533D01*
X769611Y1026158D01*
Y1027428D01*
X768341Y1028698D01*
X765802D01*
X764533Y1027428D01*
X772160Y1024887D02*
Y1017270D01*
Y1019809D01*
X777238Y1024887D01*
X773430Y1021079D01*
X777238Y1017270D01*
D15*
X701606Y922020D02*
X691609D01*
X689610Y920021D01*
Y916022D01*
X691609Y914023D01*
X701606D01*
X689610Y904026D02*
X701606D01*
X695608Y910024D01*
Y902027D01*
X417126Y920750D02*
X407129D01*
X405130Y918751D01*
Y914752D01*
X407129Y912753D01*
X417126D01*
Y900757D02*
Y908754D01*
X411128D01*
X413127Y904755D01*
Y902756D01*
X411128Y900757D01*
X407129D01*
X405130Y902756D01*
Y906755D01*
X407129Y908754D01*
D16*
X335350Y774260D02*
G03*
X335350Y774260I-5000J0D01*
G01*
X789190Y915540D02*
G03*
X789190Y915540I-5000J0D01*
G01*
X530473Y774260D02*
G03*
X530473Y774260I-5000J0D01*
G01*
X728710D02*
G03*
X728710Y774260I-5000J0D01*
G01*
X504710Y914270D02*
G03*
X504710Y914270I-5000J0D01*
G01*
X769050Y1116580D02*
X793050D01*
X769050D02*
Y1179580D01*
X793050Y1116580D02*
Y1179580D01*
X769050D02*
X793050D01*
X725870Y1116580D02*
X749870D01*
X725870D02*
Y1179580D01*
X749870Y1116580D02*
Y1179580D01*
X725870D02*
X749870D01*
X682690Y1116580D02*
X706690D01*
X682690D02*
Y1179580D01*
X706690Y1116580D02*
Y1179580D01*
X682690D02*
X706690D01*
X639510Y1116580D02*
X663510D01*
X639510D02*
Y1179580D01*
X663510Y1116580D02*
Y1179580D01*
X639510D02*
X663510D01*
X596330Y1116580D02*
X620330D01*
X596330D02*
Y1179580D01*
X620330Y1116580D02*
Y1179580D01*
X596330D02*
X620330D01*
X553150Y1116580D02*
X577150D01*
X553150D02*
Y1179580D01*
X577150Y1116580D02*
Y1179580D01*
X553150D02*
X577150D01*
X509970Y1116580D02*
X533970D01*
X509970D02*
Y1179580D01*
X533970Y1116580D02*
Y1179580D01*
X509970D02*
X533970D01*
X466790Y1116580D02*
X490790D01*
X466790D02*
Y1179580D01*
X490790Y1116580D02*
Y1179580D01*
X466790D02*
X490790D01*
X423610Y1116580D02*
X447610D01*
X423610D02*
Y1179580D01*
X447610Y1116580D02*
Y1179580D01*
X423610D02*
X447610D01*
X380834Y1116580D02*
X404834D01*
X380834D02*
Y1179580D01*
X404834Y1116580D02*
Y1179580D01*
X380834D02*
X404834D01*
X338708Y1116580D02*
X362708D01*
X338708D02*
Y1179580D01*
X362708Y1116580D02*
Y1179580D01*
X338708D02*
X362708D01*
X295545Y1116580D02*
X319545D01*
X295545D02*
Y1179580D01*
X319545Y1116580D02*
Y1179580D01*
X295545D02*
X319545D01*
X321350Y583260D02*
X389850D01*
X321350Y783260D02*
X389850D01*
Y583260D02*
Y783260D01*
X321350Y583260D02*
Y783260D01*
X596190Y858540D02*
Y924540D01*
X793190Y858540D02*
Y924540D01*
X596190Y858540D02*
X793190D01*
X596190Y924540D02*
X793190D01*
X648720Y474410D02*
Y498410D01*
X585720Y474410D02*
X648720D01*
X585720Y498410D02*
X648720D01*
X585720Y474410D02*
Y498410D01*
X638560Y1010350D02*
Y1034350D01*
X575560Y1010350D02*
X638560D01*
X575560Y1034350D02*
X638560D01*
X575560Y1010350D02*
Y1034350D01*
X516473Y583260D02*
X584973D01*
X516473Y783260D02*
X584973D01*
Y583260D02*
Y783260D01*
X516473Y583260D02*
Y783260D01*
X321310Y1047750D02*
X499110D01*
Y996950D02*
Y1047750D01*
X321310Y996950D02*
X499110D01*
X321310D02*
Y1047750D01*
X714710Y583260D02*
X783210D01*
X714710Y783260D02*
X783210D01*
Y583260D02*
Y783260D01*
X714710Y583260D02*
Y783260D01*
X311710Y857270D02*
Y923270D01*
X508710Y857270D02*
Y923270D01*
X311710Y857270D02*
X508710D01*
X311710Y923270D02*
X508710D01*
X313690Y513080D02*
X491490D01*
Y462280D02*
Y513080D01*
X313690Y462280D02*
X491490D01*
X313690D02*
Y513080D01*
X776050Y1148080D02*
X786050D01*
X781050Y1143080D02*
Y1153080D01*
X732870Y1148080D02*
X742870D01*
X737870Y1143080D02*
Y1153080D01*
X689690Y1148080D02*
X699690D01*
X694690Y1143080D02*
Y1153080D01*
X646510Y1148080D02*
X656510D01*
X651510Y1143080D02*
Y1153080D01*
X603330Y1148080D02*
X613330D01*
X608330Y1143080D02*
Y1153080D01*
X560150Y1148080D02*
X570150D01*
X565150Y1143080D02*
Y1153080D01*
X516970Y1148080D02*
X526970D01*
X521970Y1143080D02*
Y1153080D01*
X473790Y1148080D02*
X483790D01*
X478790Y1143080D02*
Y1153080D01*
X430610Y1148080D02*
X440610D01*
X435610Y1143080D02*
Y1153080D01*
X387835Y1148080D02*
X397835D01*
X392834Y1143080D02*
Y1153080D01*
X345708Y1148080D02*
X355708D01*
X350708Y1143080D02*
Y1153080D01*
X302546Y1148080D02*
X312546D01*
X307545Y1143080D02*
Y1153080D01*
X355600Y678260D02*
Y688260D01*
X350600Y683260D02*
X360600D01*
X689690Y891540D02*
X699690D01*
X694690Y886540D02*
Y896540D01*
X617220Y481410D02*
Y491410D01*
X612220Y486410D02*
X622220D01*
X607060Y1017350D02*
Y1027350D01*
X602060Y1022350D02*
X612060D01*
X550723Y678260D02*
Y688260D01*
X545723Y683260D02*
X555723D01*
X748960Y678260D02*
Y688260D01*
X743960Y683260D02*
X753960D01*
X405210Y890270D02*
X415210D01*
X410210Y885270D02*
Y895270D01*
D17*
X768050Y1200830D02*
X794050D01*
X768050Y1095330D02*
Y1200830D01*
X794050Y1095330D02*
Y1200830D01*
X768050Y1095330D02*
X794050D01*
X724870Y1200830D02*
X750870D01*
X724870Y1095330D02*
Y1200830D01*
X750870Y1095330D02*
Y1200830D01*
X724870Y1095330D02*
X750870D01*
X681690Y1200830D02*
X707690D01*
X681690Y1095330D02*
Y1200830D01*
X707690Y1095330D02*
Y1200830D01*
X681690Y1095330D02*
X707690D01*
X638510Y1200830D02*
X664510D01*
X638510Y1095330D02*
Y1200830D01*
X664510Y1095330D02*
Y1200830D01*
X638510Y1095330D02*
X664510D01*
X595330Y1200830D02*
X621330D01*
X595330Y1095330D02*
Y1200830D01*
X621330Y1095330D02*
Y1200830D01*
X595330Y1095330D02*
X621330D01*
X552150Y1200830D02*
X578150D01*
X552150Y1095330D02*
Y1200830D01*
X578150Y1095330D02*
Y1200830D01*
X552150Y1095330D02*
X578150D01*
X508970Y1200830D02*
X534970D01*
X508970Y1095330D02*
Y1200830D01*
X534970Y1095330D02*
Y1200830D01*
X508970Y1095330D02*
X534970D01*
X465790Y1200830D02*
X491790D01*
X465790Y1095330D02*
Y1200830D01*
X491790Y1095330D02*
Y1200830D01*
X465790Y1095330D02*
X491790D01*
X422610Y1200830D02*
X448610D01*
X422610Y1095330D02*
Y1200830D01*
X448610Y1095330D02*
Y1200830D01*
X422610Y1095330D02*
X448610D01*
X379835Y1200830D02*
X405835D01*
X379835Y1095330D02*
Y1200830D01*
X405835Y1095330D02*
Y1200830D01*
X379835Y1095330D02*
X405835D01*
X337708Y1200830D02*
X363708D01*
X337708Y1095330D02*
Y1200830D01*
X363708Y1095330D02*
Y1200830D01*
X337708Y1095330D02*
X363708D01*
X294545Y1200830D02*
X320546D01*
X294545Y1095330D02*
Y1200830D01*
X320546Y1095330D02*
Y1200830D01*
X294545Y1095330D02*
X320546D01*
X307600Y580760D02*
X403600D01*
X307600Y785760D02*
X403600D01*
Y580760D02*
Y785760D01*
X307600Y580760D02*
Y785760D01*
X593690Y843040D02*
Y940040D01*
X795690Y843040D02*
Y940040D01*
X593690Y843040D02*
X795690D01*
X593690Y940040D02*
X795690D01*
X564470Y473410D02*
Y499410D01*
Y473410D02*
X669970D01*
X564470Y499410D02*
X669970D01*
Y473410D02*
Y499410D01*
X554310Y1009350D02*
Y1035350D01*
Y1009350D02*
X659810D01*
X554310Y1035350D02*
X659810D01*
Y1009350D02*
Y1035350D01*
X502723Y580760D02*
X598723D01*
X502723Y785760D02*
X598723D01*
Y580760D02*
Y785760D01*
X502723Y580760D02*
Y785760D01*
X317810Y994200D02*
Y1050500D01*
Y994200D02*
X502610D01*
Y1050500D01*
X317810D02*
X502610D01*
X410210Y1017350D02*
Y1027350D01*
X405210Y1022350D02*
X415210D01*
X700960Y580760D02*
X796960D01*
X700960Y785760D02*
X796960D01*
Y580760D02*
Y785760D01*
X700960Y580760D02*
Y785760D01*
X309210Y841770D02*
Y938770D01*
X511210Y841770D02*
Y938770D01*
X309210Y841770D02*
X511210D01*
X309210Y938770D02*
X511210D01*
X310190Y459530D02*
Y515830D01*
Y459530D02*
X494990D01*
Y515830D01*
X310190D02*
X494990D01*
X402590Y482680D02*
Y492680D01*
X397590Y487680D02*
X407590D01*
D31*
X781050Y1103080D02*
D03*
X737870D02*
D03*
X694690D02*
D03*
X651510D02*
D03*
X608330D02*
D03*
X565150D02*
D03*
X521970D02*
D03*
X478790D02*
D03*
X435610D02*
D03*
X392834D02*
D03*
X350708D02*
D03*
X307545D02*
D03*
D32*
X781050Y1193080D02*
D03*
X737870D02*
D03*
X694690D02*
D03*
X651510D02*
D03*
X608330D02*
D03*
X565150D02*
D03*
X521970D02*
D03*
X478790D02*
D03*
X435610D02*
D03*
X392834D02*
D03*
X350708D02*
D03*
X307545D02*
D03*
X572220Y486410D02*
D03*
X562060Y1022350D02*
D03*
D33*
X393700Y594360D02*
D03*
Y619760D02*
D03*
Y645160D02*
D03*
Y670560D02*
D03*
Y695960D02*
D03*
Y721360D02*
D03*
Y746760D02*
D03*
Y772160D02*
D03*
X317500Y594360D02*
D03*
Y619760D02*
D03*
Y645160D02*
D03*
Y670560D02*
D03*
Y695960D02*
D03*
Y721360D02*
D03*
Y746760D02*
D03*
X588823Y594360D02*
D03*
Y619760D02*
D03*
Y645160D02*
D03*
Y670560D02*
D03*
Y695960D02*
D03*
Y721360D02*
D03*
Y746760D02*
D03*
Y772160D02*
D03*
X512623Y594360D02*
D03*
Y619760D02*
D03*
Y645160D02*
D03*
Y670560D02*
D03*
Y695960D02*
D03*
Y721360D02*
D03*
Y746760D02*
D03*
X787060Y594360D02*
D03*
Y619760D02*
D03*
Y645160D02*
D03*
Y670560D02*
D03*
Y695960D02*
D03*
Y721360D02*
D03*
Y746760D02*
D03*
Y772160D02*
D03*
X710860Y594360D02*
D03*
Y619760D02*
D03*
Y645160D02*
D03*
Y670560D02*
D03*
Y695960D02*
D03*
Y721360D02*
D03*
Y746760D02*
D03*
D34*
X317500Y772160D02*
D03*
X512623D02*
D03*
X710860D02*
D03*
D35*
X618490Y853440D02*
D03*
X643890D02*
D03*
X669290D02*
D03*
X694690D02*
D03*
X720090D02*
D03*
X745490D02*
D03*
X770890D02*
D03*
X618490Y929640D02*
D03*
X643890D02*
D03*
X669290D02*
D03*
X694690D02*
D03*
X720090D02*
D03*
X745490D02*
D03*
X334010Y852170D02*
D03*
X359410D02*
D03*
X384810D02*
D03*
X410210D02*
D03*
X435610D02*
D03*
X461010D02*
D03*
X486410D02*
D03*
X334010Y928370D02*
D03*
X359410D02*
D03*
X384810D02*
D03*
X410210D02*
D03*
X435610D02*
D03*
X461010D02*
D03*
D36*
X770890Y929640D02*
D03*
X486410Y928370D02*
D03*
D37*
X764540Y486410D02*
D03*
X739140D02*
D03*
X754380Y1021080D02*
D03*
X728980D02*
D03*
D38*
X662220Y486410D02*
D03*
X652060Y1022350D02*
D03*
D39*
X410210Y1035050D02*
D03*
Y1009650D02*
D03*
X384810Y1035050D02*
D03*
Y1009650D02*
D03*
X334010Y1035050D02*
D03*
X359410Y1009650D02*
D03*
Y1035050D02*
D03*
X435610Y1009650D02*
D03*
Y1035050D02*
D03*
X461010Y1009650D02*
D03*
X486410D02*
D03*
X461010Y1035050D02*
D03*
X486410D02*
D03*
X402590Y500380D02*
D03*
Y474980D02*
D03*
X377190Y500380D02*
D03*
Y474980D02*
D03*
X326390Y500380D02*
D03*
X351790Y474980D02*
D03*
Y500380D02*
D03*
X427990Y474980D02*
D03*
Y500380D02*
D03*
X453390Y474980D02*
D03*
X478790D02*
D03*
X453390Y500380D02*
D03*
X478790D02*
D03*
D40*
X334010Y1009650D02*
D03*
X326390Y474980D02*
D03*
M02*
