%TF.GenerationSoftware,Altium Limited,Altium Designer,22.9.1 (49)*%
G04 Layer_Color=2752767*
%FSLAX26Y26*%
%MOIN*%
%TF.SameCoordinates,9A4C5482-B669-49D6-A5E7-2A43E7F29E9E*%
%TF.FilePolarity,Positive*%
%TF.FileFunction,Drawing*%
%TF.Part,Single*%
G01*
G75*
%TA.AperFunction,NonConductor*%
%ADD51C,0.005000*%
%ADD52C,0.006667*%
D51*
X3055000Y4322834D02*
Y4362834D01*
X3095000D01*
Y4322834D01*
X3055000D01*
Y4677166D02*
Y4717166D01*
X3095000D01*
Y4677166D01*
X3055000D01*
X2885000Y4322834D02*
Y4362834D01*
X2925000D01*
Y4322834D01*
X2885000D01*
Y4677166D02*
Y4717166D01*
X2925000D01*
Y4677166D01*
X2885000D01*
X2715000Y4322834D02*
Y4362834D01*
X2755000D01*
Y4322834D01*
X2715000D01*
Y4677166D02*
Y4717166D01*
X2755000D01*
Y4677166D01*
X2715000D01*
X2545000Y4322834D02*
Y4362834D01*
X2585000D01*
Y4322834D01*
X2545000D01*
Y4677166D02*
Y4717166D01*
X2585000D01*
Y4677166D01*
X2545000D01*
X2375000Y4322834D02*
Y4362834D01*
X2415000D01*
Y4322834D01*
X2375000D01*
Y4677166D02*
Y4717166D01*
X2415000D01*
Y4677166D01*
X2375000D01*
X2205000Y4322834D02*
Y4362834D01*
X2245000D01*
Y4322834D01*
X2205000D01*
Y4677166D02*
Y4717166D01*
X2245000D01*
Y4677166D01*
X2205000D01*
X2035000Y4322834D02*
Y4362834D01*
X2075000D01*
Y4322834D01*
X2035000D01*
Y4677166D02*
Y4717166D01*
X2075000D01*
Y4677166D01*
X2035000D01*
X1865000Y4322834D02*
Y4362834D01*
X1905000D01*
Y4322834D01*
X1865000D01*
Y4677166D02*
Y4717166D01*
X1905000D01*
Y4677166D01*
X1865000D01*
X1695000Y4322834D02*
Y4362834D01*
X1735000D01*
Y4322834D01*
X1695000D01*
Y4677166D02*
Y4717166D01*
X1735000D01*
Y4677166D01*
X1695000D01*
X1526592Y4322834D02*
Y4362834D01*
X1566592D01*
Y4322834D01*
X1526592D01*
Y4677166D02*
Y4717166D01*
X1566592D01*
Y4677166D01*
X1526592D01*
X1360740Y4322834D02*
Y4362834D01*
X1400740D01*
Y4322834D01*
X1360740D01*
Y4677166D02*
Y4717166D01*
X1400740D01*
Y4677166D01*
X1360740D01*
X1190808Y4322834D02*
Y4362834D01*
X1230808D01*
Y4322834D01*
X1190808D01*
Y4677166D02*
Y4717166D01*
X1230808D01*
Y4677166D01*
X1190808D01*
X2435000Y3340000D02*
X2415000Y3380000D01*
X2455000D01*
X2435000Y3340000D01*
X2535000D02*
X2515000Y3380000D01*
X2555000D01*
X2535000Y3340000D01*
X2635000D02*
X2615000Y3380000D01*
X2655000D01*
X2635000Y3340000D01*
X2735000D02*
X2715000Y3380000D01*
X2755000D01*
X2735000Y3340000D01*
X2835000D02*
X2815000Y3380000D01*
X2855000D01*
X2835000Y3340000D01*
X2935000D02*
X2915000Y3380000D01*
X2955000D01*
X2935000Y3340000D01*
X3035000D02*
X3015000Y3380000D01*
X3055000D01*
X3035000Y3340000D01*
X2435000Y3640000D02*
X2415000Y3680000D01*
X2455000D01*
X2435000Y3640000D01*
X2535000D02*
X2515000Y3680000D01*
X2555000D01*
X2535000Y3640000D01*
X2635000D02*
X2615000Y3680000D01*
X2655000D01*
X2635000Y3640000D01*
X2735000D02*
X2715000Y3680000D01*
X2755000D01*
X2735000Y3640000D01*
X2835000D02*
X2815000Y3680000D01*
X2855000D01*
X2835000Y3640000D01*
X2935000D02*
X2915000Y3680000D01*
X2955000D01*
X2935000Y3640000D01*
X3035000D02*
X3015000Y3680000D01*
X3055000D01*
X3035000Y3640000D01*
X3010000Y1895000D02*
X3020000Y1905000D01*
X3030000D01*
X3020000Y1915000D01*
X3030000Y1925000D01*
X3020000D01*
X3010000Y1935000D01*
X3000000Y1925000D01*
X2990000D01*
X3000000Y1915000D01*
X2990000Y1905000D01*
X3000000D01*
X3010000Y1895000D01*
X2910000D02*
X2920000Y1905000D01*
X2930000D01*
X2920000Y1915000D01*
X2930000Y1925000D01*
X2920000D01*
X2910000Y1935000D01*
X2900000Y1925000D01*
X2890000D01*
X2900000Y1915000D01*
X2890000Y1905000D01*
X2900000D01*
X2910000Y1895000D01*
X2587166D02*
Y1935000D01*
X2627166D01*
Y1895000D01*
X2587166D01*
X2232834D02*
Y1935000D01*
X2272834D01*
Y1895000D01*
X2232834D01*
X2970000Y4000000D02*
X2980000Y4010000D01*
X2990000D01*
X2980000Y4020000D01*
X2990000Y4030000D01*
X2980000D01*
X2970000Y4040000D01*
X2960000Y4030000D01*
X2950000D01*
X2960000Y4020000D01*
X2950000Y4010000D01*
X2960000D01*
X2970000Y4000000D01*
X2870000D02*
X2880000Y4010000D01*
X2890000D01*
X2880000Y4020000D01*
X2890000Y4030000D01*
X2880000D01*
X2870000Y4040000D01*
X2860000Y4030000D01*
X2850000D01*
X2860000Y4020000D01*
X2850000Y4010000D01*
X2860000D01*
X2870000Y4000000D01*
X2547166Y4005000D02*
Y4045000D01*
X2587166D01*
Y4005000D01*
X2547166D01*
X2192834D02*
Y4045000D01*
X2232834D01*
Y4005000D01*
X2192834D01*
X1595000Y4055000D02*
X1605000Y4075000D01*
X1595000Y4095000D01*
X1615000Y4085000D01*
X1635000Y4095000D01*
X1625000Y4075000D01*
X1635000Y4055000D01*
X1615000Y4065000D01*
X1595000Y4055000D01*
Y3955000D02*
X1605000Y3975000D01*
X1595000Y3995000D01*
X1615000Y3985000D01*
X1635000Y3995000D01*
X1625000Y3975000D01*
X1635000Y3955000D01*
X1615000Y3965000D01*
X1595000Y3955000D01*
X1495000Y4055000D02*
X1505000Y4075000D01*
X1495000Y4095000D01*
X1515000Y4085000D01*
X1535000Y4095000D01*
X1525000Y4075000D01*
X1535000Y4055000D01*
X1515000Y4065000D01*
X1495000Y4055000D01*
Y3955000D02*
X1505000Y3975000D01*
X1495000Y3995000D01*
X1515000Y3985000D01*
X1535000Y3995000D01*
X1525000Y3975000D01*
X1535000Y3955000D01*
X1515000Y3965000D01*
X1495000Y3955000D01*
X1295000D02*
X1305000Y3975000D01*
X1295000Y3995000D01*
X1315000Y3985000D01*
X1335000Y3995000D01*
X1325000Y3975000D01*
X1335000Y3955000D01*
X1315000Y3965000D01*
X1295000Y3955000D01*
Y4055000D02*
X1305000Y4075000D01*
X1295000Y4095000D01*
X1315000Y4085000D01*
X1335000Y4095000D01*
X1325000Y4075000D01*
X1335000Y4055000D01*
X1315000Y4065000D01*
X1295000Y4055000D01*
X1395000Y3955000D02*
X1405000Y3975000D01*
X1395000Y3995000D01*
X1415000Y3985000D01*
X1435000Y3995000D01*
X1425000Y3975000D01*
X1435000Y3955000D01*
X1415000Y3965000D01*
X1395000Y3955000D01*
Y4055000D02*
X1405000Y4075000D01*
X1395000Y4095000D01*
X1415000Y4085000D01*
X1435000Y4095000D01*
X1425000Y4075000D01*
X1435000Y4055000D01*
X1415000Y4065000D01*
X1395000Y4055000D01*
X1695000Y3955000D02*
X1705000Y3975000D01*
X1695000Y3995000D01*
X1715000Y3985000D01*
X1735000Y3995000D01*
X1725000Y3975000D01*
X1735000Y3955000D01*
X1715000Y3965000D01*
X1695000Y3955000D01*
Y4055000D02*
X1705000Y4075000D01*
X1695000Y4095000D01*
X1715000Y4085000D01*
X1735000Y4095000D01*
X1725000Y4075000D01*
X1735000Y4055000D01*
X1715000Y4065000D01*
X1695000Y4055000D01*
X1795000Y3955000D02*
X1805000Y3975000D01*
X1795000Y3995000D01*
X1815000Y3985000D01*
X1835000Y3995000D01*
X1825000Y3975000D01*
X1835000Y3955000D01*
X1815000Y3965000D01*
X1795000Y3955000D01*
X1895000D02*
X1905000Y3975000D01*
X1895000Y3995000D01*
X1915000Y3985000D01*
X1935000Y3995000D01*
X1925000Y3975000D01*
X1935000Y3955000D01*
X1915000Y3965000D01*
X1895000Y3955000D01*
X1795000Y4055000D02*
X1805000Y4075000D01*
X1795000Y4095000D01*
X1815000Y4085000D01*
X1835000Y4095000D01*
X1825000Y4075000D01*
X1835000Y4055000D01*
X1815000Y4065000D01*
X1795000Y4055000D01*
X1895000D02*
X1905000Y4075000D01*
X1895000Y4095000D01*
X1915000Y4085000D01*
X1935000Y4095000D01*
X1925000Y4075000D01*
X1935000Y4055000D01*
X1915000Y4065000D01*
X1895000Y4055000D01*
X1315000Y3335000D02*
X1295000Y3375000D01*
X1335000D01*
X1315000Y3335000D01*
X1415000D02*
X1395000Y3375000D01*
X1435000D01*
X1415000Y3335000D01*
X1515000D02*
X1495000Y3375000D01*
X1535000D01*
X1515000Y3335000D01*
X1615000D02*
X1595000Y3375000D01*
X1635000D01*
X1615000Y3335000D01*
X1715000D02*
X1695000Y3375000D01*
X1735000D01*
X1715000Y3335000D01*
X1815000D02*
X1795000Y3375000D01*
X1835000D01*
X1815000Y3335000D01*
X1915000D02*
X1895000Y3375000D01*
X1935000D01*
X1915000Y3335000D01*
X1315000Y3635000D02*
X1295000Y3675000D01*
X1335000D01*
X1315000Y3635000D01*
X1415000D02*
X1395000Y3675000D01*
X1435000D01*
X1415000Y3635000D01*
X1515000D02*
X1495000Y3675000D01*
X1535000D01*
X1515000Y3635000D01*
X1615000D02*
X1595000Y3675000D01*
X1635000D01*
X1615000Y3635000D01*
X1715000D02*
X1695000Y3675000D01*
X1735000D01*
X1715000Y3635000D01*
X1815000D02*
X1795000Y3675000D01*
X1835000D01*
X1815000Y3635000D01*
X1915000D02*
X1895000Y3675000D01*
X1935000D01*
X1915000Y3635000D01*
X1565000Y1950000D02*
X1575000Y1970000D01*
X1565000Y1990000D01*
X1585000Y1980000D01*
X1605000Y1990000D01*
X1595000Y1970000D01*
X1605000Y1950000D01*
X1585000Y1960000D01*
X1565000Y1950000D01*
Y1850000D02*
X1575000Y1870000D01*
X1565000Y1890000D01*
X1585000Y1880000D01*
X1605000Y1890000D01*
X1595000Y1870000D01*
X1605000Y1850000D01*
X1585000Y1860000D01*
X1565000Y1850000D01*
X1465000Y1950000D02*
X1475000Y1970000D01*
X1465000Y1990000D01*
X1485000Y1980000D01*
X1505000Y1990000D01*
X1495000Y1970000D01*
X1505000Y1950000D01*
X1485000Y1960000D01*
X1465000Y1950000D01*
Y1850000D02*
X1475000Y1870000D01*
X1465000Y1890000D01*
X1485000Y1880000D01*
X1505000Y1890000D01*
X1495000Y1870000D01*
X1505000Y1850000D01*
X1485000Y1860000D01*
X1465000Y1850000D01*
X1265000D02*
X1275000Y1870000D01*
X1265000Y1890000D01*
X1285000Y1880000D01*
X1305000Y1890000D01*
X1295000Y1870000D01*
X1305000Y1850000D01*
X1285000Y1860000D01*
X1265000Y1850000D01*
Y1950000D02*
X1275000Y1970000D01*
X1265000Y1990000D01*
X1285000Y1980000D01*
X1305000Y1990000D01*
X1295000Y1970000D01*
X1305000Y1950000D01*
X1285000Y1960000D01*
X1265000Y1950000D01*
X1365000Y1850000D02*
X1375000Y1870000D01*
X1365000Y1890000D01*
X1385000Y1880000D01*
X1405000Y1890000D01*
X1395000Y1870000D01*
X1405000Y1850000D01*
X1385000Y1860000D01*
X1365000Y1850000D01*
Y1950000D02*
X1375000Y1970000D01*
X1365000Y1990000D01*
X1385000Y1980000D01*
X1405000Y1990000D01*
X1395000Y1970000D01*
X1405000Y1950000D01*
X1385000Y1960000D01*
X1365000Y1950000D01*
X1665000Y1850000D02*
X1675000Y1870000D01*
X1665000Y1890000D01*
X1685000Y1880000D01*
X1705000Y1890000D01*
X1695000Y1870000D01*
X1705000Y1850000D01*
X1685000Y1860000D01*
X1665000Y1850000D01*
Y1950000D02*
X1675000Y1970000D01*
X1665000Y1990000D01*
X1685000Y1980000D01*
X1705000Y1990000D01*
X1695000Y1970000D01*
X1705000Y1950000D01*
X1685000Y1960000D01*
X1665000Y1950000D01*
X1765000Y1850000D02*
X1775000Y1870000D01*
X1765000Y1890000D01*
X1785000Y1880000D01*
X1805000Y1890000D01*
X1795000Y1870000D01*
X1805000Y1850000D01*
X1785000Y1860000D01*
X1765000Y1850000D01*
X1865000D02*
X1875000Y1870000D01*
X1865000Y1890000D01*
X1885000Y1880000D01*
X1905000Y1890000D01*
X1895000Y1870000D01*
X1905000Y1850000D01*
X1885000Y1860000D01*
X1865000Y1850000D01*
X1765000Y1950000D02*
X1775000Y1970000D01*
X1765000Y1990000D01*
X1785000Y1980000D01*
X1805000Y1990000D01*
X1795000Y1970000D01*
X1805000Y1950000D01*
X1785000Y1960000D01*
X1765000Y1950000D01*
X1865000D02*
X1875000Y1970000D01*
X1865000Y1990000D01*
X1885000Y1980000D01*
X1905000Y1990000D01*
X1895000Y1970000D01*
X1905000Y1950000D01*
X1885000Y1960000D01*
X1865000Y1950000D01*
X2965000Y2190000D02*
Y2180000D01*
X2985000D01*
Y2190000D01*
X2995000D01*
Y2210000D01*
X2985000D01*
Y2220000D01*
X2965000D01*
Y2210000D01*
X2955000D01*
Y2190000D01*
X2965000D01*
X2733000Y2255000D02*
Y2245000D01*
X2753000D01*
Y2255000D01*
X2763000D01*
Y2275000D01*
X2753000D01*
Y2285000D01*
X2733000D01*
Y2275000D01*
X2723000D01*
Y2255000D01*
X2733000D01*
X2353000Y3984000D02*
Y3974000D01*
X2373000D01*
Y3984000D01*
X2383000D01*
Y4004000D01*
X2373000D01*
Y4014000D01*
X2353000D01*
Y4004000D01*
X2343000D01*
Y3984000D01*
X2353000D01*
X1771000Y2780000D02*
Y2770000D01*
X1791000D01*
Y2780000D01*
X1801000D01*
Y2800000D01*
X1791000D01*
Y2810000D01*
X1771000D01*
Y2800000D01*
X1761000D01*
Y2780000D01*
X1771000D01*
X2890000Y3850000D02*
Y3840000D01*
X2910000D01*
Y3850000D01*
X2920000D01*
Y3870000D01*
X2910000D01*
Y3880000D01*
X2890000D01*
Y3870000D01*
X2880000D01*
Y3850000D01*
X2890000D01*
X2152000Y2780000D02*
Y2770000D01*
X2172000D01*
Y2780000D01*
X2182000D01*
Y2800000D01*
X2172000D01*
Y2810000D01*
X2152000D01*
Y2800000D01*
X2142000D01*
Y2780000D01*
X2152000D01*
X1635502Y2856502D02*
Y2846502D01*
X1655502D01*
Y2856502D01*
X1665502D01*
Y2876502D01*
X1655502D01*
Y2886502D01*
X1635502D01*
Y2876502D01*
X1625502D01*
Y2856502D01*
X1635502D01*
X2658000Y1765000D02*
Y1755000D01*
X2678000D01*
Y1765000D01*
X2688000D01*
Y1785000D01*
X2678000D01*
Y1795000D01*
X2658000D01*
Y1785000D01*
X2648000D01*
Y1765000D01*
X2658000D01*
X1775000Y1700000D02*
Y1690000D01*
X1795000D01*
Y1700000D01*
X1805000D01*
Y1720000D01*
X1795000D01*
Y1730000D01*
X1775000D01*
Y1720000D01*
X1765000D01*
Y1700000D01*
X1775000D01*
X2669000Y1611000D02*
Y1601000D01*
X2689000D01*
Y1611000D01*
X2699000D01*
Y1631000D01*
X2689000D01*
Y1641000D01*
X2669000D01*
Y1631000D01*
X2659000D01*
Y1611000D01*
X2669000D01*
X2485000Y3067000D02*
Y3057000D01*
X2505000D01*
Y3067000D01*
X2515000D01*
Y3087000D01*
X2505000D01*
Y3097000D01*
X2485000D01*
Y3087000D01*
X2475000D01*
Y3067000D01*
X2485000D01*
X1765000Y3002000D02*
Y2992000D01*
X1785000D01*
Y3002000D01*
X1795000D01*
Y3022000D01*
X1785000D01*
Y3032000D01*
X1765000D01*
Y3022000D01*
X1755000D01*
Y3002000D01*
X1765000D01*
X1624000Y3216000D02*
Y3206000D01*
X1644000D01*
Y3216000D01*
X1654000D01*
Y3236000D01*
X1644000D01*
Y3246000D01*
X1624000D01*
Y3236000D01*
X1614000D01*
Y3216000D01*
X1624000D01*
X2640000Y3730000D02*
Y3720000D01*
X2660000D01*
Y3730000D01*
X2670000D01*
Y3750000D01*
X2660000D01*
Y3760000D01*
X2640000D01*
Y3750000D01*
X2630000D01*
Y3730000D01*
X2640000D01*
X1813000Y4173000D02*
Y4163000D01*
X1833000D01*
Y4173000D01*
X1843000D01*
Y4193000D01*
X1833000D01*
Y4203000D01*
X1813000D01*
Y4193000D01*
X1803000D01*
Y4173000D01*
X1813000D01*
X1575000Y1646000D02*
Y1636000D01*
X1595000D01*
Y1646000D01*
X1605000D01*
Y1666000D01*
X1595000D01*
Y1676000D01*
X1575000D01*
Y1666000D01*
X1565000D01*
Y1646000D01*
X1575000D01*
D52*
X1570000Y2340000D02*
G03*
X1570000Y2340000I-20000J0D01*
G01*
Y2440000D02*
G03*
X1570000Y2440000I-20000J0D01*
G01*
Y2540000D02*
G03*
X1570000Y2540000I-20000J0D01*
G01*
Y2640000D02*
G03*
X1570000Y2640000I-20000J0D01*
G01*
Y2740000D02*
G03*
X1570000Y2740000I-20000J0D01*
G01*
Y2840000D02*
G03*
X1570000Y2840000I-20000J0D01*
G01*
Y2940000D02*
G03*
X1570000Y2940000I-20000J0D01*
G01*
Y3040000D02*
G03*
X1570000Y3040000I-20000J0D01*
G01*
X1270000Y2340000D02*
G03*
X1270000Y2340000I-20000J0D01*
G01*
Y2440000D02*
G03*
X1270000Y2440000I-20000J0D01*
G01*
Y2540000D02*
G03*
X1270000Y2540000I-20000J0D01*
G01*
Y2640000D02*
G03*
X1270000Y2640000I-20000J0D01*
G01*
Y2740000D02*
G03*
X1270000Y2740000I-20000J0D01*
G01*
Y2840000D02*
G03*
X1270000Y2840000I-20000J0D01*
G01*
Y2940000D02*
G03*
X1270000Y2940000I-20000J0D01*
G01*
Y3040000D02*
G03*
X1270000Y3040000I-20000J0D01*
G01*
X2338202Y2340000D02*
G03*
X2338202Y2340000I-20000J0D01*
G01*
Y2440000D02*
G03*
X2338202Y2440000I-20000J0D01*
G01*
Y2540000D02*
G03*
X2338202Y2540000I-20000J0D01*
G01*
Y2640000D02*
G03*
X2338202Y2640000I-20000J0D01*
G01*
Y2740000D02*
G03*
X2338202Y2740000I-20000J0D01*
G01*
Y2840000D02*
G03*
X2338202Y2840000I-20000J0D01*
G01*
Y2940000D02*
G03*
X2338202Y2940000I-20000J0D01*
G01*
Y3040000D02*
G03*
X2338202Y3040000I-20000J0D01*
G01*
X2038202Y2340000D02*
G03*
X2038202Y2340000I-20000J0D01*
G01*
Y2440000D02*
G03*
X2038202Y2440000I-20000J0D01*
G01*
Y2540000D02*
G03*
X2038202Y2540000I-20000J0D01*
G01*
Y2640000D02*
G03*
X2038202Y2640000I-20000J0D01*
G01*
Y2740000D02*
G03*
X2038202Y2740000I-20000J0D01*
G01*
Y2840000D02*
G03*
X2038202Y2840000I-20000J0D01*
G01*
Y2940000D02*
G03*
X2038202Y2940000I-20000J0D01*
G01*
Y3040000D02*
G03*
X2038202Y3040000I-20000J0D01*
G01*
X3118662Y2340000D02*
G03*
X3118662Y2340000I-20000J0D01*
G01*
Y2440000D02*
G03*
X3118662Y2440000I-20000J0D01*
G01*
Y2540000D02*
G03*
X3118662Y2540000I-20000J0D01*
G01*
Y2640000D02*
G03*
X3118662Y2640000I-20000J0D01*
G01*
Y2740000D02*
G03*
X3118662Y2740000I-20000J0D01*
G01*
Y2840000D02*
G03*
X3118662Y2840000I-20000J0D01*
G01*
Y2940000D02*
G03*
X3118662Y2940000I-20000J0D01*
G01*
Y3040000D02*
G03*
X3118662Y3040000I-20000J0D01*
G01*
X2818662Y2340000D02*
G03*
X2818662Y2340000I-20000J0D01*
G01*
Y2440000D02*
G03*
X2818662Y2440000I-20000J0D01*
G01*
Y2540000D02*
G03*
X2818662Y2540000I-20000J0D01*
G01*
Y2640000D02*
G03*
X2818662Y2640000I-20000J0D01*
G01*
Y2740000D02*
G03*
X2818662Y2740000I-20000J0D01*
G01*
Y2840000D02*
G03*
X2818662Y2840000I-20000J0D01*
G01*
Y2940000D02*
G03*
X2818662Y2940000I-20000J0D01*
G01*
Y3040000D02*
G03*
X2818662Y3040000I-20000J0D01*
G01*
%TF.MD5,da32538d0bfd7bb9cbe117d80c8e25f7*%
M02*
