%TF.GenerationSoftware,Altium Limited,Altium Designer,22.9.1 (49)*%
G04 Layer_Color=65535*
%FSLAX26Y26*%
%MOIN*%
%TF.SameCoordinates,9A4C5482-B669-49D6-A5E7-2A43E7F29E9E*%
%TF.FilePolarity,Positive*%
%TF.FileFunction,Legend,Top*%
%TF.Part,Single*%
G01*
G75*
%TA.AperFunction,NonConductor*%
%ADD34C,0.023622*%
%ADD35C,0.009842*%
%ADD36C,0.007874*%
%ADD37C,0.010000*%
%ADD38C,0.006000*%
D34*
X1344882Y3044331D02*
G03*
X1344882Y3044331I-11811J0D01*
G01*
X3095236Y3574961D02*
G03*
X3095236Y3574961I-11811J0D01*
G01*
X2113083Y3044331D02*
G03*
X2113083Y3044331I-11811J0D01*
G01*
X2893543D02*
G03*
X2893543Y3044331I-11811J0D01*
G01*
X1975236Y3569961D02*
G03*
X1975236Y3569961I-11811J0D01*
G01*
D35*
X1254921Y3089213D02*
G03*
X1254921Y3089213I-4921J0D01*
G01*
X3091102Y3660000D02*
G03*
X3091102Y3660000I-4921J0D01*
G01*
X2023122Y3089213D02*
G03*
X2023122Y3089213I-4921J0D01*
G01*
X2803583D02*
G03*
X2803583Y3089213I-4921J0D01*
G01*
X1971102Y3655000D02*
G03*
X1971102Y3655000I-4921J0D01*
G01*
D36*
X1375000Y3083701D02*
G03*
X1425000Y3083701I25000J0D01*
G01*
X3122795Y3535000D02*
G03*
X3122795Y3485000I0J-25000D01*
G01*
X3047710Y1988092D02*
G03*
X2862764Y1974839I-87710J-73092D01*
G01*
X2866724Y1980842D02*
G03*
X3048134Y1842419I93276J-65842D01*
G01*
X3007710Y4093092D02*
G03*
X2822764Y4079839I-87710J-73092D01*
G01*
X2826724Y4085842D02*
G03*
X3008134Y3947419I93276J-65842D01*
G01*
X2143201Y3083701D02*
G03*
X2193201Y3083701I25000J0D01*
G01*
X2923661D02*
G03*
X2973661Y3083701I25000J0D01*
G01*
X2002795Y3530000D02*
G03*
X2002795Y3480000I0J-25000D01*
G01*
X3027756Y4644016D02*
X3122244D01*
Y4395984D02*
Y4644016D01*
X3027756Y4395984D02*
Y4644016D01*
Y4395984D02*
X3122244D01*
X2857756Y4644016D02*
X2952244D01*
Y4395984D02*
Y4644016D01*
X2857756Y4395984D02*
Y4644016D01*
Y4395984D02*
X2952244D01*
X2687756Y4644016D02*
X2782244D01*
Y4395984D02*
Y4644016D01*
X2687756Y4395984D02*
Y4644016D01*
Y4395984D02*
X2782244D01*
X2517756Y4644016D02*
X2612244D01*
Y4395984D02*
Y4644016D01*
X2517756Y4395984D02*
Y4644016D01*
Y4395984D02*
X2612244D01*
X2347756Y4644016D02*
X2442244D01*
Y4395984D02*
Y4644016D01*
X2347756Y4395984D02*
Y4644016D01*
Y4395984D02*
X2442244D01*
X2177756Y4644016D02*
X2272244D01*
Y4395984D02*
Y4644016D01*
X2177756Y4395984D02*
Y4644016D01*
Y4395984D02*
X2272244D01*
X2007756Y4644016D02*
X2102244D01*
Y4395984D02*
Y4644016D01*
X2007756Y4395984D02*
Y4644016D01*
Y4395984D02*
X2102244D01*
X1837756Y4644016D02*
X1932244D01*
Y4395984D02*
Y4644016D01*
X1837756Y4395984D02*
Y4644016D01*
Y4395984D02*
X1932244D01*
X1667756Y4644016D02*
X1762244D01*
Y4395984D02*
Y4644016D01*
X1667756Y4395984D02*
Y4644016D01*
Y4395984D02*
X1762244D01*
X1499348Y4644016D02*
X1593836D01*
Y4395984D02*
Y4644016D01*
X1499348Y4395984D02*
Y4644016D01*
Y4395984D02*
X1593836D01*
X1333496Y4644016D02*
X1427984D01*
Y4395984D02*
Y4644016D01*
X1333496Y4395984D02*
Y4644016D01*
Y4395984D02*
X1427984D01*
X1163564Y4644016D02*
X1258052D01*
Y4395984D02*
Y4644016D01*
X1163564Y4395984D02*
Y4644016D01*
Y4395984D02*
X1258052D01*
X1293700Y2296300D02*
X1506300D01*
X1425000Y3083700D02*
X1506300D01*
X1293700D02*
X1375000D01*
X1506300Y2296300D02*
Y3083700D01*
X1293700Y2296300D02*
Y3083700D01*
X2347204Y3405670D02*
Y3614330D01*
X3122796Y3405670D02*
Y3485000D01*
Y3535000D02*
Y3614330D01*
X2347204Y3405670D02*
X3122796D01*
X2347204Y3614330D02*
X3122796D01*
X3050000Y1845000D02*
Y1985000D01*
X2305984Y1867756D02*
Y1962244D01*
X2554016D01*
X2305984Y1867756D02*
X2554016D01*
Y1962244D01*
X3010000Y3950000D02*
Y4090000D01*
X2265984Y3977756D02*
Y4072244D01*
X2514016D01*
X2265984Y3977756D02*
X2514016D01*
Y4072244D01*
X2061902Y2296300D02*
X2274500D01*
X2193202Y3083700D02*
X2274500D01*
X2061902D02*
X2143202D01*
X2274500Y2296300D02*
Y3083700D01*
X2061902Y2296300D02*
Y3083700D01*
X1970906Y3922048D02*
Y4127952D01*
X1259094D02*
X1970906D01*
X1259094Y3922048D02*
X1970906D01*
X1259094D02*
Y4127952D01*
X2842362Y2296300D02*
X3054960D01*
X2973662Y3083700D02*
X3054960D01*
X2842362D02*
X2923662D01*
X3054960Y2296300D02*
Y3083700D01*
X2842362Y2296300D02*
Y3083700D01*
X1227204Y3400670D02*
Y3609330D01*
X2002796Y3400670D02*
Y3480000D01*
Y3530000D02*
Y3609330D01*
X1227204Y3400670D02*
X2002796D01*
X1227204Y3609330D02*
X2002796D01*
X1940906Y1817048D02*
Y2022952D01*
X1229094D02*
X1940906D01*
X1229094Y1817048D02*
X1940906D01*
X1229094D02*
Y2022952D01*
D37*
X3033000Y4759000D02*
Y4818981D01*
X3062990D01*
X3072987Y4808984D01*
Y4788990D01*
X3062990Y4778993D01*
X3033000D01*
X3052994D02*
X3072987Y4759000D01*
X3092981D02*
X3112974D01*
X3102977D01*
Y4818981D01*
X3092981Y4808984D01*
X2863000Y4759000D02*
Y4818981D01*
X2892990D01*
X2902987Y4808984D01*
Y4788990D01*
X2892990Y4778993D01*
X2863000D01*
X2882994D02*
X2902987Y4759000D01*
X2962968D02*
X2922981D01*
X2962968Y4798987D01*
Y4808984D01*
X2952971Y4818981D01*
X2932977D01*
X2922981Y4808984D01*
X2693000Y4759000D02*
Y4818981D01*
X2722990D01*
X2732987Y4808984D01*
Y4788990D01*
X2722990Y4778993D01*
X2693000D01*
X2712994D02*
X2732987Y4759000D01*
X2752981Y4808984D02*
X2762977Y4818981D01*
X2782971D01*
X2792968Y4808984D01*
Y4798987D01*
X2782971Y4788990D01*
X2772974D01*
X2782971D01*
X2792968Y4778993D01*
Y4768997D01*
X2782971Y4759000D01*
X2762977D01*
X2752981Y4768997D01*
X2523000Y4759000D02*
Y4818981D01*
X2552990D01*
X2562987Y4808984D01*
Y4788990D01*
X2552990Y4778993D01*
X2523000D01*
X2542994D02*
X2562987Y4759000D01*
X2612971D02*
Y4818981D01*
X2582981Y4788990D01*
X2622968D01*
X2353000Y4759000D02*
Y4818981D01*
X2382990D01*
X2392987Y4808984D01*
Y4788990D01*
X2382990Y4778993D01*
X2353000D01*
X2372994D02*
X2392987Y4759000D01*
X2452968Y4818981D02*
X2412981D01*
Y4788990D01*
X2432974Y4798987D01*
X2442971D01*
X2452968Y4788990D01*
Y4768997D01*
X2442971Y4759000D01*
X2422977D01*
X2412981Y4768997D01*
X2183000Y4759000D02*
Y4818981D01*
X2212990D01*
X2222987Y4808984D01*
Y4788990D01*
X2212990Y4778993D01*
X2183000D01*
X2202994D02*
X2222987Y4759000D01*
X2282968Y4818981D02*
X2262974Y4808984D01*
X2242981Y4788990D01*
Y4768997D01*
X2252977Y4759000D01*
X2272971D01*
X2282968Y4768997D01*
Y4778993D01*
X2272971Y4788990D01*
X2242981D01*
X2013000Y4759000D02*
Y4818981D01*
X2042990D01*
X2052987Y4808984D01*
Y4788990D01*
X2042990Y4778993D01*
X2013000D01*
X2032994D02*
X2052987Y4759000D01*
X2072981Y4818981D02*
X2112968D01*
Y4808984D01*
X2072981Y4768997D01*
Y4759000D01*
X1843000D02*
Y4818981D01*
X1872990D01*
X1882987Y4808984D01*
Y4788990D01*
X1872990Y4778993D01*
X1843000D01*
X1862994D02*
X1882987Y4759000D01*
X1902981Y4808984D02*
X1912977Y4818981D01*
X1932971D01*
X1942968Y4808984D01*
Y4798987D01*
X1932971Y4788990D01*
X1942968Y4778993D01*
Y4768997D01*
X1932971Y4759000D01*
X1912977D01*
X1902981Y4768997D01*
Y4778993D01*
X1912977Y4788990D01*
X1902981Y4798987D01*
Y4808984D01*
X1912977Y4788990D02*
X1932971D01*
X1673000Y4759000D02*
Y4818981D01*
X1702990D01*
X1712987Y4808984D01*
Y4788990D01*
X1702990Y4778993D01*
X1673000D01*
X1692994D02*
X1712987Y4759000D01*
X1732981Y4768997D02*
X1742977Y4759000D01*
X1762971D01*
X1772968Y4768997D01*
Y4808984D01*
X1762971Y4818981D01*
X1742977D01*
X1732981Y4808984D01*
Y4798987D01*
X1742977Y4788990D01*
X1772968D01*
X1504000Y4759000D02*
Y4818981D01*
X1533990D01*
X1543987Y4808984D01*
Y4788990D01*
X1533990Y4778993D01*
X1504000D01*
X1523994D02*
X1543987Y4759000D01*
X1563981D02*
X1583974D01*
X1573977D01*
Y4818981D01*
X1563981Y4808984D01*
X1613964D02*
X1623961Y4818981D01*
X1643955D01*
X1653951Y4808984D01*
Y4768997D01*
X1643955Y4759000D01*
X1623961D01*
X1613964Y4768997D01*
Y4808984D01*
X1339000Y4759000D02*
Y4818981D01*
X1368990D01*
X1378987Y4808984D01*
Y4788990D01*
X1368990Y4778993D01*
X1339000D01*
X1358994D02*
X1378987Y4759000D01*
X1398981D02*
X1418974D01*
X1408977D01*
Y4818981D01*
X1398981Y4808984D01*
X1448964Y4759000D02*
X1468958D01*
X1458961D01*
Y4818981D01*
X1448964Y4808984D01*
X1169000Y4759000D02*
Y4818981D01*
X1198990D01*
X1208987Y4808984D01*
Y4788990D01*
X1198990Y4778993D01*
X1169000D01*
X1188994D02*
X1208987Y4759000D01*
X1228981D02*
X1248974D01*
X1238977D01*
Y4818981D01*
X1228981Y4808984D01*
X1318951Y4759000D02*
X1278964D01*
X1318951Y4798987D01*
Y4808984D01*
X1308955Y4818981D01*
X1288961D01*
X1278964Y4808984D01*
X1220000Y3188981D02*
Y3138997D01*
X1229997Y3129000D01*
X1249990D01*
X1259987Y3138997D01*
Y3188981D01*
X1279981Y3129000D02*
X1299974D01*
X1289977D01*
Y3188981D01*
X1279981Y3178984D01*
X2346000Y3791981D02*
Y3741997D01*
X2355997Y3732000D01*
X2375990D01*
X2385987Y3741997D01*
Y3791981D01*
X2435971Y3732000D02*
Y3791981D01*
X2405981Y3761990D01*
X2445968D01*
X2841000Y2134981D02*
Y2075000D01*
X2880987D01*
X2940968Y2134981D02*
X2900981D01*
Y2075000D01*
X2940968D01*
X2900981Y2104990D02*
X2920974D01*
X2960961Y2134981D02*
Y2075000D01*
X2990952D01*
X3000948Y2084997D01*
Y2124984D01*
X2990952Y2134981D01*
X2960961D01*
X3020942Y2075000D02*
X3040935D01*
X3030939D01*
Y2134981D01*
X3020942Y2124984D01*
X2231000Y1997000D02*
Y2056981D01*
X2260990D01*
X2270987Y2046984D01*
Y2026990D01*
X2260990Y2016994D01*
X2231000D01*
X2250994D02*
X2270987Y1997000D01*
X2290981D02*
X2310974D01*
X2300977D01*
Y2056981D01*
X2290981Y2046984D01*
X2340964D02*
X2350961Y2056981D01*
X2370955D01*
X2380952Y2046984D01*
Y2036987D01*
X2370955Y2026990D01*
X2360958D01*
X2370955D01*
X2380952Y2016994D01*
Y2006997D01*
X2370955Y1997000D01*
X2350961D01*
X2340964Y2006997D01*
X2801000Y4239981D02*
Y4180000D01*
X2840987D01*
X2900968Y4239981D02*
X2860981D01*
Y4180000D01*
X2900968D01*
X2860981Y4209990D02*
X2880974D01*
X2920961Y4239981D02*
Y4180000D01*
X2950952D01*
X2960948Y4189997D01*
Y4229984D01*
X2950952Y4239981D01*
X2920961D01*
X3020929Y4180000D02*
X2980942D01*
X3020929Y4219987D01*
Y4229984D01*
X3010932Y4239981D01*
X2990939D01*
X2980942Y4229984D01*
X2191000Y4107000D02*
Y4166981D01*
X2220990D01*
X2230987Y4156984D01*
Y4136990D01*
X2220990Y4126993D01*
X2191000D01*
X2210994D02*
X2230987Y4107000D01*
X2250981D02*
X2270974D01*
X2260977D01*
Y4166981D01*
X2250981Y4156984D01*
X2330955Y4107000D02*
Y4166981D01*
X2300964Y4136990D01*
X2340952D01*
X1988000Y3188981D02*
Y3138997D01*
X1997997Y3129000D01*
X2017990D01*
X2027987Y3138997D01*
Y3188981D01*
X2087968Y3129000D02*
X2047981D01*
X2087968Y3168987D01*
Y3178984D01*
X2077971Y3188981D01*
X2057977D01*
X2047981Y3178984D01*
X1223000Y4167000D02*
Y4226981D01*
X1252990D01*
X1262987Y4216984D01*
Y4196990D01*
X1252990Y4186993D01*
X1223000D01*
X1282981Y4167000D02*
X1302974D01*
X1292977D01*
Y4226981D01*
X1282981Y4216984D01*
X2769000Y3188981D02*
Y3138997D01*
X2778997Y3129000D01*
X2798990D01*
X2808987Y3138997D01*
Y3188981D01*
X2828981Y3178984D02*
X2838977Y3188981D01*
X2858971D01*
X2868968Y3178984D01*
Y3168987D01*
X2858971Y3158990D01*
X2848974D01*
X2858971D01*
X2868968Y3148994D01*
Y3138997D01*
X2858971Y3129000D01*
X2838977D01*
X2828981Y3138997D01*
X1226000Y3786981D02*
Y3736997D01*
X1235997Y3727000D01*
X1255990D01*
X1265987Y3736997D01*
Y3786981D01*
X1325968D02*
X1285981D01*
Y3756990D01*
X1305974Y3766987D01*
X1315971D01*
X1325968Y3756990D01*
Y3736997D01*
X1315971Y3727000D01*
X1295977D01*
X1285981Y3736997D01*
X1193000Y2062000D02*
Y2121981D01*
X1222990D01*
X1232987Y2111984D01*
Y2091990D01*
X1222990Y2081994D01*
X1193000D01*
X1292968Y2062000D02*
X1252981D01*
X1292968Y2101987D01*
Y2111984D01*
X1282971Y2121981D01*
X1262977D01*
X1252981Y2111984D01*
D38*
X3080000Y1929990D02*
Y1900000D01*
Y1909997D01*
X3099994Y1929990D01*
X3084998Y1914995D01*
X3099994Y1900000D01*
X3040000Y4034990D02*
Y4005000D01*
Y4014997D01*
X3059994Y4034990D01*
X3044998Y4019995D01*
X3059994Y4005000D01*
X1983110Y4060433D02*
X1996439D01*
X1989775D01*
Y4100420D01*
X1983110Y4093756D01*
X2036426Y4060433D02*
Y4100420D01*
X2016433Y4080427D01*
X2043091D01*
X1983110Y3954134D02*
X1996439D01*
X1989775D01*
Y3994121D01*
X1983110Y3987456D01*
X2016433D02*
X2023097Y3994121D01*
X2036426D01*
X2043091Y3987456D01*
Y3980792D01*
X2036426Y3974127D01*
X2029762D01*
X2036426D01*
X2043091Y3967463D01*
Y3960798D01*
X2036426Y3954134D01*
X2023097D01*
X2016433Y3960798D01*
X1245989Y4060433D02*
X1219331D01*
X1245989Y4087091D01*
Y4093756D01*
X1239324Y4100420D01*
X1225995D01*
X1219331Y4093756D01*
X1231142Y3954134D02*
X1244471D01*
X1237806D01*
Y3994121D01*
X1231142Y3987456D01*
X1953110Y1955433D02*
X1966439D01*
X1959775D01*
Y1995420D01*
X1953110Y1988756D01*
X2006426Y1955433D02*
Y1995420D01*
X1986433Y1975427D01*
X2013091D01*
X1953110Y1849134D02*
X1966439D01*
X1959775D01*
Y1889121D01*
X1953110Y1882457D01*
X1986433D02*
X1993097Y1889121D01*
X2006426D01*
X2013091Y1882457D01*
Y1875792D01*
X2006426Y1869127D01*
X1999762D01*
X2006426D01*
X2013091Y1862463D01*
Y1855798D01*
X2006426Y1849134D01*
X1993097D01*
X1986433Y1855798D01*
X1215989Y1955433D02*
X1189331D01*
X1215989Y1982091D01*
Y1988756D01*
X1209324Y1995420D01*
X1195995D01*
X1189331Y1988756D01*
X1201142Y1849134D02*
X1214471D01*
X1207806D01*
Y1889121D01*
X1201142Y1882457D01*
%TF.MD5,3c512244d5929a1dd362961c75a7cf7a*%
M02*
