G04*
G04 #@! TF.GenerationSoftware,Altium Limited,Altium Designer,22.9.1 (49)*
G04*
G04 Layer_Physical_Order=1*
G04 Layer_Color=255*
%FSLAX44Y44*%
%MOMM*%
G71*
G04*
G04 #@! TF.SameCoordinates,78882AB9-2C9C-495A-B56B-01B9E16356B5*
G04*
G04*
G04 #@! TF.FilePolarity,Positive*
G04*
G01*
G75*
%ADD12C,0.2000*%
%ADD14C,0.1524*%
%ADD15C,0.1500*%
%ADD16C,0.1000*%
%ADD17C,0.0500*%
%ADD29C,0.3810*%
%ADD30C,0.7620*%
%ADD31R,1.3500X1.3500*%
%ADD32C,1.3500*%
%ADD33C,1.4000*%
%ADD34R,1.4000X1.4000*%
%ADD35C,1.5000*%
%ADD36R,1.5000X1.5000*%
%ADD37C,1.6000*%
%ADD38R,1.3500X1.3500*%
%ADD39C,1.6500*%
%ADD40R,1.6500X1.6500*%
%ADD41C,2.0320*%
D12*
X720090Y518160D02*
X779780D01*
Y454660D02*
Y518160D01*
X720090Y454660D02*
X779780D01*
X720090D02*
Y518160D01*
X709930Y1052830D02*
X769620D01*
Y989330D02*
Y1052830D01*
X709930Y989330D02*
X769620D01*
X709930D02*
Y1052830D01*
X778510Y504190D02*
G03*
X778005Y467950I-26526J-17754D01*
G01*
X768350Y1038860D02*
G03*
X767845Y1002620I-26526J-17754D01*
G01*
X778510Y468630D02*
Y504190D01*
X749300Y486410D02*
X754380D01*
X751840Y483870D02*
Y488950D01*
X768350Y1003300D02*
Y1038860D01*
X739140Y1021080D02*
X744220D01*
X741680Y1018540D02*
Y1023620D01*
D14*
X751840Y494027D02*
Y486410D01*
X756918D01*
X764536Y494027D02*
X759457D01*
Y486410D01*
X764536D01*
X759457Y490219D02*
X761997D01*
X767075Y494027D02*
Y486410D01*
X770884D01*
X772153Y487680D01*
Y492758D01*
X770884Y494027D01*
X767075D01*
X774693Y486410D02*
X777232D01*
X775962D01*
Y494027D01*
X774693Y492758D01*
X782320Y490218D02*
Y482600D01*
Y485139D01*
X787398Y490218D01*
X783590Y486409D01*
X787398Y482600D01*
X741680Y1028698D02*
Y1021080D01*
X746758D01*
X754376Y1028698D02*
X749297D01*
Y1021080D01*
X754376D01*
X749297Y1024889D02*
X751837D01*
X756915Y1028698D02*
Y1021080D01*
X760724D01*
X761993Y1022350D01*
Y1027428D01*
X760724Y1028698D01*
X756915D01*
X769611Y1021080D02*
X764533D01*
X769611Y1026158D01*
Y1027428D01*
X768341Y1028698D01*
X765802D01*
X764533Y1027428D01*
X772160Y1024887D02*
Y1017270D01*
Y1019809D01*
X777238Y1024887D01*
X773430Y1021079D01*
X777238Y1017270D01*
D15*
X701606Y922020D02*
X691609D01*
X689610Y920021D01*
Y916022D01*
X691609Y914023D01*
X701606D01*
X689610Y904026D02*
X701606D01*
X695608Y910024D01*
Y902027D01*
X417126Y920750D02*
X407129D01*
X405130Y918751D01*
Y914752D01*
X407129Y912753D01*
X417126D01*
Y900757D02*
Y908754D01*
X411128D01*
X413127Y904755D01*
Y902756D01*
X411128Y900757D01*
X407129D01*
X405130Y902756D01*
Y906755D01*
X407129Y908754D01*
D16*
X335350Y774260D02*
G03*
X335350Y774260I-5000J0D01*
G01*
X789190Y915540D02*
G03*
X789190Y915540I-5000J0D01*
G01*
X530473Y774260D02*
G03*
X530473Y774260I-5000J0D01*
G01*
X728710D02*
G03*
X728710Y774260I-5000J0D01*
G01*
X504710Y914270D02*
G03*
X504710Y914270I-5000J0D01*
G01*
X769050Y1116580D02*
X793050D01*
X769050D02*
Y1179580D01*
X793050Y1116580D02*
Y1179580D01*
X769050D02*
X793050D01*
X725870Y1116580D02*
X749870D01*
X725870D02*
Y1179580D01*
X749870Y1116580D02*
Y1179580D01*
X725870D02*
X749870D01*
X682690Y1116580D02*
X706690D01*
X682690D02*
Y1179580D01*
X706690Y1116580D02*
Y1179580D01*
X682690D02*
X706690D01*
X639510Y1116580D02*
X663510D01*
X639510D02*
Y1179580D01*
X663510Y1116580D02*
Y1179580D01*
X639510D02*
X663510D01*
X596330Y1116580D02*
X620330D01*
X596330D02*
Y1179580D01*
X620330Y1116580D02*
Y1179580D01*
X596330D02*
X620330D01*
X553150Y1116580D02*
X577150D01*
X553150D02*
Y1179580D01*
X577150Y1116580D02*
Y1179580D01*
X553150D02*
X577150D01*
X509970Y1116580D02*
X533970D01*
X509970D02*
Y1179580D01*
X533970Y1116580D02*
Y1179580D01*
X509970D02*
X533970D01*
X466790Y1116580D02*
X490790D01*
X466790D02*
Y1179580D01*
X490790Y1116580D02*
Y1179580D01*
X466790D02*
X490790D01*
X423610Y1116580D02*
X447610D01*
X423610D02*
Y1179580D01*
X447610Y1116580D02*
Y1179580D01*
X423610D02*
X447610D01*
X380834Y1116580D02*
X404834D01*
X380834D02*
Y1179580D01*
X404834Y1116580D02*
Y1179580D01*
X380834D02*
X404834D01*
X338708Y1116580D02*
X362708D01*
X338708D02*
Y1179580D01*
X362708Y1116580D02*
Y1179580D01*
X338708D02*
X362708D01*
X295545Y1116580D02*
X319545D01*
X295545D02*
Y1179580D01*
X319545Y1116580D02*
Y1179580D01*
X295545D02*
X319545D01*
X321350Y583260D02*
X389850D01*
X321350Y783260D02*
X389850D01*
Y583260D02*
Y783260D01*
X321350Y583260D02*
Y783260D01*
X596190Y858540D02*
Y924540D01*
X793190Y858540D02*
Y924540D01*
X596190Y858540D02*
X793190D01*
X596190Y924540D02*
X793190D01*
X648720Y474410D02*
Y498410D01*
X585720Y474410D02*
X648720D01*
X585720Y498410D02*
X648720D01*
X585720Y474410D02*
Y498410D01*
X638560Y1010350D02*
Y1034350D01*
X575560Y1010350D02*
X638560D01*
X575560Y1034350D02*
X638560D01*
X575560Y1010350D02*
Y1034350D01*
X516473Y583260D02*
X584973D01*
X516473Y783260D02*
X584973D01*
Y583260D02*
Y783260D01*
X516473Y583260D02*
Y783260D01*
X321310Y1047750D02*
X499110D01*
Y996950D02*
Y1047750D01*
X321310Y996950D02*
X499110D01*
X321310D02*
Y1047750D01*
X714710Y583260D02*
X783210D01*
X714710Y783260D02*
X783210D01*
Y583260D02*
Y783260D01*
X714710Y583260D02*
Y783260D01*
X311710Y857270D02*
Y923270D01*
X508710Y857270D02*
Y923270D01*
X311710Y857270D02*
X508710D01*
X311710Y923270D02*
X508710D01*
X313690Y513080D02*
X491490D01*
Y462280D02*
Y513080D01*
X313690Y462280D02*
X491490D01*
X313690D02*
Y513080D01*
X776050Y1148080D02*
X786050D01*
X781050Y1143080D02*
Y1153080D01*
X732870Y1148080D02*
X742870D01*
X737870Y1143080D02*
Y1153080D01*
X689690Y1148080D02*
X699690D01*
X694690Y1143080D02*
Y1153080D01*
X646510Y1148080D02*
X656510D01*
X651510Y1143080D02*
Y1153080D01*
X603330Y1148080D02*
X613330D01*
X608330Y1143080D02*
Y1153080D01*
X560150Y1148080D02*
X570150D01*
X565150Y1143080D02*
Y1153080D01*
X516970Y1148080D02*
X526970D01*
X521970Y1143080D02*
Y1153080D01*
X473790Y1148080D02*
X483790D01*
X478790Y1143080D02*
Y1153080D01*
X430610Y1148080D02*
X440610D01*
X435610Y1143080D02*
Y1153080D01*
X387835Y1148080D02*
X397835D01*
X392834Y1143080D02*
Y1153080D01*
X345708Y1148080D02*
X355708D01*
X350708Y1143080D02*
Y1153080D01*
X302546Y1148080D02*
X312546D01*
X307545Y1143080D02*
Y1153080D01*
X355600Y678260D02*
Y688260D01*
X350600Y683260D02*
X360600D01*
X689690Y891540D02*
X699690D01*
X694690Y886540D02*
Y896540D01*
X617220Y481410D02*
Y491410D01*
X612220Y486410D02*
X622220D01*
X607060Y1017350D02*
Y1027350D01*
X602060Y1022350D02*
X612060D01*
X550723Y678260D02*
Y688260D01*
X545723Y683260D02*
X555723D01*
X748960Y678260D02*
Y688260D01*
X743960Y683260D02*
X753960D01*
X405210Y890270D02*
X415210D01*
X410210Y885270D02*
Y895270D01*
D17*
X768050Y1200830D02*
X794050D01*
X768050Y1095330D02*
Y1200830D01*
X794050Y1095330D02*
Y1200830D01*
X768050Y1095330D02*
X794050D01*
X724870Y1200830D02*
X750870D01*
X724870Y1095330D02*
Y1200830D01*
X750870Y1095330D02*
Y1200830D01*
X724870Y1095330D02*
X750870D01*
X681690Y1200830D02*
X707690D01*
X681690Y1095330D02*
Y1200830D01*
X707690Y1095330D02*
Y1200830D01*
X681690Y1095330D02*
X707690D01*
X638510Y1200830D02*
X664510D01*
X638510Y1095330D02*
Y1200830D01*
X664510Y1095330D02*
Y1200830D01*
X638510Y1095330D02*
X664510D01*
X595330Y1200830D02*
X621330D01*
X595330Y1095330D02*
Y1200830D01*
X621330Y1095330D02*
Y1200830D01*
X595330Y1095330D02*
X621330D01*
X552150Y1200830D02*
X578150D01*
X552150Y1095330D02*
Y1200830D01*
X578150Y1095330D02*
Y1200830D01*
X552150Y1095330D02*
X578150D01*
X508970Y1200830D02*
X534970D01*
X508970Y1095330D02*
Y1200830D01*
X534970Y1095330D02*
Y1200830D01*
X508970Y1095330D02*
X534970D01*
X465790Y1200830D02*
X491790D01*
X465790Y1095330D02*
Y1200830D01*
X491790Y1095330D02*
Y1200830D01*
X465790Y1095330D02*
X491790D01*
X422610Y1200830D02*
X448610D01*
X422610Y1095330D02*
Y1200830D01*
X448610Y1095330D02*
Y1200830D01*
X422610Y1095330D02*
X448610D01*
X379835Y1200830D02*
X405835D01*
X379835Y1095330D02*
Y1200830D01*
X405835Y1095330D02*
Y1200830D01*
X379835Y1095330D02*
X405835D01*
X337708Y1200830D02*
X363708D01*
X337708Y1095330D02*
Y1200830D01*
X363708Y1095330D02*
Y1200830D01*
X337708Y1095330D02*
X363708D01*
X294545Y1200830D02*
X320546D01*
X294545Y1095330D02*
Y1200830D01*
X320546Y1095330D02*
Y1200830D01*
X294545Y1095330D02*
X320546D01*
X307600Y580760D02*
X403600D01*
X307600Y785760D02*
X403600D01*
Y580760D02*
Y785760D01*
X307600Y580760D02*
Y785760D01*
X593690Y843040D02*
Y940040D01*
X795690Y843040D02*
Y940040D01*
X593690Y843040D02*
X795690D01*
X593690Y940040D02*
X795690D01*
X564470Y473410D02*
Y499410D01*
Y473410D02*
X669970D01*
X564470Y499410D02*
X669970D01*
Y473410D02*
Y499410D01*
X554310Y1009350D02*
Y1035350D01*
Y1009350D02*
X659810D01*
X554310Y1035350D02*
X659810D01*
Y1009350D02*
Y1035350D01*
X502723Y580760D02*
X598723D01*
X502723Y785760D02*
X598723D01*
Y580760D02*
Y785760D01*
X502723Y580760D02*
Y785760D01*
X317810Y994200D02*
Y1050500D01*
Y994200D02*
X502610D01*
Y1050500D01*
X317810D02*
X502610D01*
X410210Y1017350D02*
Y1027350D01*
X405210Y1022350D02*
X415210D01*
X700960Y580760D02*
X796960D01*
X700960Y785760D02*
X796960D01*
Y580760D02*
Y785760D01*
X700960Y580760D02*
Y785760D01*
X309210Y841770D02*
Y938770D01*
X511210Y841770D02*
Y938770D01*
X309210Y841770D02*
X511210D01*
X309210Y938770D02*
X511210D01*
X310190Y459530D02*
Y515830D01*
Y459530D02*
X494990D01*
Y515830D01*
X310190D02*
X494990D01*
X402590Y482680D02*
Y492680D01*
X397590Y487680D02*
X407590D01*
D29*
X631698Y982980D02*
Y1079712D01*
Y866648D02*
Y982980D01*
X396755Y916425D02*
X423418Y889762D01*
X486410Y852170D02*
X498602Y864362D01*
Y997458D01*
X486410Y1009650D02*
X498602Y997458D01*
X770890Y788330D02*
Y853440D01*
Y788330D02*
X787060Y772160D01*
X317500D02*
Y836161D01*
X315715Y837946D02*
X317500Y836161D01*
X315715Y837946D02*
Y965964D01*
X346705Y996955D01*
Y1022355D01*
X334010Y1035050D02*
X346705Y1022355D01*
X359410Y996950D02*
Y1009650D01*
X322065Y959605D02*
X359410Y996950D01*
X322065Y842525D02*
Y959605D01*
Y842525D02*
X339344Y825246D01*
Y619506D02*
Y825246D01*
Y619506D02*
X376174Y582676D01*
X400446D01*
X405145Y587375D01*
Y608315D01*
X393700Y619760D02*
X405145Y608315D01*
X639445Y1047835D02*
X694690Y1103080D01*
X639445Y959485D02*
Y1047835D01*
Y959485D02*
X669290Y929640D01*
X618490Y853440D02*
X631698Y866648D01*
X600202Y1014476D02*
X631698Y982980D01*
X608330Y1103080D02*
X631698Y1079712D01*
X500380Y1167850D02*
X565150Y1103080D01*
X500380Y1167850D02*
Y1219200D01*
X484124Y1235456D02*
X500380Y1219200D01*
X461264Y1235456D02*
X484124D01*
X339344Y1113536D02*
X461264Y1235456D01*
X339344Y1080516D02*
Y1113536D01*
Y1080516D02*
X384810Y1035050D01*
X648462Y807212D02*
X694690Y853440D01*
X640517Y799267D02*
X648462Y807212D01*
X627852Y799267D02*
X640517D01*
X615984Y787400D02*
X627852Y799267D01*
X615984Y774734D02*
Y787400D01*
X600710Y759460D02*
X615984Y774734D01*
X573024Y759460D02*
X600710D01*
X548640Y735076D02*
X573024Y759460D01*
X508000Y735076D02*
X548640D01*
X501142Y741934D02*
X508000Y735076D01*
X501142Y741934D02*
Y849122D01*
X521970Y869950D01*
Y1103080D01*
X648462Y591566D02*
Y807212D01*
X635000Y578104D02*
X648462Y591566D01*
X588772Y578104D02*
X635000D01*
X577378Y589498D02*
X588772Y578104D01*
X577378Y589498D02*
Y608315D01*
X588823Y619760D01*
X478790Y1103080D02*
X499110Y1082760D01*
X473710Y1016000D02*
X480060Y1022350D01*
X473710Y723900D02*
Y1016000D01*
Y723900D02*
X488950Y708660D01*
X526937D01*
X541542Y723265D01*
X558153D01*
X572758Y708660D01*
X596900D01*
X600456Y705104D01*
Y605993D02*
Y705104D01*
X588823Y594360D02*
X600456Y605993D01*
X435610Y1009650D02*
X448310Y1022350D01*
Y1090380D01*
X435610Y1103080D02*
X448310Y1090380D01*
X423418Y840232D02*
Y889762D01*
Y840232D02*
X431800Y831850D01*
Y759168D02*
Y831850D01*
Y759168D02*
X452374Y738594D01*
Y708660D02*
Y738594D01*
X350708Y1103080D02*
X397505Y1056282D01*
Y966465D02*
Y1056282D01*
X359410Y928370D02*
X397505Y966465D01*
X736600Y980440D02*
X758190Y958850D01*
Y891540D02*
Y958850D01*
Y891540D02*
X798576Y851154D01*
Y605876D02*
Y851154D01*
X787060Y594360D02*
X798576Y605876D01*
X588823Y746760D02*
X598932D01*
X633730Y781558D01*
X461010Y917067D02*
Y928370D01*
X448818Y904875D02*
X461010Y917067D01*
X448818Y767080D02*
Y904875D01*
Y767080D02*
X450850Y765048D01*
X432562Y699821D02*
X512623Y619760D01*
X432562Y699821D02*
Y745236D01*
X415036Y762762D02*
X432562Y745236D01*
X415036Y762762D02*
Y819404D01*
X512623Y746760D02*
X539750D01*
X618490Y825500D01*
Y853440D01*
X359410Y1035050D02*
X372105Y1022355D01*
Y984784D02*
Y1022355D01*
X347218Y959897D02*
X372105Y984784D01*
X347218Y640842D02*
Y959897D01*
Y640842D02*
X393700Y594360D01*
X673100Y949960D02*
X682498Y940562D01*
Y902716D02*
Y940562D01*
Y902716D02*
X706882Y878332D01*
Y841248D02*
Y878332D01*
Y841248D02*
X722376Y825754D01*
Y660400D02*
Y825754D01*
X718820Y656844D02*
X722376Y660400D01*
X704850Y656844D02*
X718820D01*
X699262Y651256D02*
X704850Y656844D01*
X699262Y631358D02*
Y651256D01*
Y631358D02*
X710860Y619760D01*
X704215Y1026245D02*
X781050Y1103080D01*
X704215Y970915D02*
Y1026245D01*
Y970915D02*
X745490Y929640D01*
X448310Y996950D02*
X461010Y1009650D01*
X448310Y917187D02*
Y996950D01*
X447548Y916425D02*
X448310Y917187D01*
X396755Y916425D02*
X447548D01*
X384810Y928370D02*
X396755Y916425D01*
X499110Y1028700D02*
Y1082760D01*
X492760Y1022350D02*
X499110Y1028700D01*
X480060Y1022350D02*
X492760D01*
X473710Y1028700D02*
X480060Y1022350D01*
X473710Y1028700D02*
Y1051814D01*
X463042Y1062482D02*
X473710Y1051814D01*
X410210Y1009650D02*
X422910Y1022350D01*
Y1048004D01*
X381508Y1089406D02*
X422910Y1048004D01*
X381508Y1089406D02*
Y1118362D01*
X467614Y1204468D01*
X486156D01*
X490474Y1200150D01*
Y1134576D02*
Y1200150D01*
Y1134576D02*
X521970Y1103080D01*
X435610Y1035050D02*
Y1060304D01*
X392834Y1103080D02*
X435610Y1060304D01*
X739140Y486410D02*
Y724240D01*
X787060Y772160D01*
X512623D02*
X548894Y808431D01*
Y1086824D01*
X565150Y1103080D01*
X305816Y981456D02*
X334010Y1009650D01*
X305816Y758444D02*
Y981456D01*
Y758444D02*
X317500Y746760D01*
X435610Y928370D02*
Y1009650D01*
D30*
X330962Y500380D02*
Y631698D01*
X486410Y1035050D02*
Y1069594D01*
X464566Y1091438D02*
X486410Y1069594D01*
X464566Y1091438D02*
Y1178856D01*
X478790Y1193080D01*
X558963Y640700D02*
X588823Y670560D01*
X558963Y499667D02*
Y640700D01*
Y499667D02*
X572220Y486410D01*
X393700Y721360D02*
X413400Y701660D01*
Y561990D02*
Y701660D01*
X351790Y500380D02*
X413400Y561990D01*
X548803Y708315D02*
X549148Y708660D01*
X548803Y496783D02*
Y708315D01*
X469850Y417830D02*
X548803Y496783D01*
X434340Y417830D02*
X469850D01*
X377190Y474980D02*
X434340Y417830D01*
X402590Y500380D02*
X423560Y521350D01*
Y722489D01*
X417957Y728092D02*
X423560Y722489D01*
X677672Y688172D02*
X710860Y721360D01*
X677672Y450850D02*
Y688172D01*
X696722Y553212D02*
X724408Y580898D01*
Y631612D01*
X710860Y645160D02*
X724408Y631612D01*
X453390Y434340D02*
Y474980D01*
X680466Y411734D02*
X718566D01*
X779018Y472186D01*
Y558292D01*
X773684Y563626D02*
X779018Y558292D01*
X773684Y563626D02*
Y631784D01*
X787060Y645160D01*
X756666Y521970D02*
Y690966D01*
X787060Y721360D01*
X334010Y852170D02*
Y928370D01*
X575473Y631810D02*
X588823Y645160D01*
X575473Y626118D02*
Y631810D01*
X569123Y619768D02*
X575473Y626118D01*
X569123Y578449D02*
Y619768D01*
Y578449D02*
X585470Y562102D01*
Y455168D02*
Y562102D01*
X498602Y368300D02*
X585470Y455168D01*
X454914Y368300D02*
X498602D01*
X402590Y420624D02*
X454914Y368300D01*
X562060Y1022350D02*
X618490Y965920D01*
Y929640D02*
Y965920D01*
X478790Y474980D02*
X512623Y508813D01*
Y594360D01*
X588823Y670560D02*
X591202Y672939D01*
Y693581D01*
X588823Y695960D02*
X591202Y693581D01*
X380238Y822198D02*
X410210Y852170D01*
X380238Y709422D02*
Y822198D01*
Y709422D02*
X393700Y695960D01*
X326390Y500380D02*
X330962D01*
X317500Y645160D02*
X330962Y631698D01*
X304038Y707898D02*
X317500Y721360D01*
X304038Y497332D02*
Y707898D01*
Y497332D02*
X326390Y474980D01*
X787060Y670560D02*
Y695960D01*
X710860Y670560D02*
Y695960D01*
X512623Y670560D02*
Y695960D01*
X317500Y670560D02*
Y695960D01*
X393700Y670560D02*
Y695960D01*
D31*
X781050Y1103080D02*
D03*
X737870D02*
D03*
X694690D02*
D03*
X651510D02*
D03*
X608330D02*
D03*
X565150D02*
D03*
X521970D02*
D03*
X478790D02*
D03*
X435610D02*
D03*
X392834D02*
D03*
X350708D02*
D03*
X307545D02*
D03*
D32*
X781050Y1193080D02*
D03*
X737870D02*
D03*
X694690D02*
D03*
X651510D02*
D03*
X608330D02*
D03*
X565150D02*
D03*
X521970D02*
D03*
X478790D02*
D03*
X435610D02*
D03*
X392834D02*
D03*
X350708D02*
D03*
X307545D02*
D03*
X572220Y486410D02*
D03*
X562060Y1022350D02*
D03*
D33*
X393700Y594360D02*
D03*
Y619760D02*
D03*
Y645160D02*
D03*
Y670560D02*
D03*
Y695960D02*
D03*
Y721360D02*
D03*
Y746760D02*
D03*
Y772160D02*
D03*
X317500Y594360D02*
D03*
Y619760D02*
D03*
Y645160D02*
D03*
Y670560D02*
D03*
Y695960D02*
D03*
Y721360D02*
D03*
Y746760D02*
D03*
X588823Y594360D02*
D03*
Y619760D02*
D03*
Y645160D02*
D03*
Y670560D02*
D03*
Y695960D02*
D03*
Y721360D02*
D03*
Y746760D02*
D03*
Y772160D02*
D03*
X512623Y594360D02*
D03*
Y619760D02*
D03*
Y645160D02*
D03*
Y670560D02*
D03*
Y695960D02*
D03*
Y721360D02*
D03*
Y746760D02*
D03*
X787060Y594360D02*
D03*
Y619760D02*
D03*
Y645160D02*
D03*
Y670560D02*
D03*
Y695960D02*
D03*
Y721360D02*
D03*
Y746760D02*
D03*
Y772160D02*
D03*
X710860Y594360D02*
D03*
Y619760D02*
D03*
Y645160D02*
D03*
Y670560D02*
D03*
Y695960D02*
D03*
Y721360D02*
D03*
Y746760D02*
D03*
D34*
X317500Y772160D02*
D03*
X512623D02*
D03*
X710860D02*
D03*
D35*
X618490Y853440D02*
D03*
X643890D02*
D03*
X669290D02*
D03*
X694690D02*
D03*
X720090D02*
D03*
X745490D02*
D03*
X770890D02*
D03*
X618490Y929640D02*
D03*
X643890D02*
D03*
X669290D02*
D03*
X694690D02*
D03*
X720090D02*
D03*
X745490D02*
D03*
X334010Y852170D02*
D03*
X359410D02*
D03*
X384810D02*
D03*
X410210D02*
D03*
X435610D02*
D03*
X461010D02*
D03*
X486410D02*
D03*
X334010Y928370D02*
D03*
X359410D02*
D03*
X384810D02*
D03*
X410210D02*
D03*
X435610D02*
D03*
X461010D02*
D03*
D36*
X770890Y929640D02*
D03*
X486410Y928370D02*
D03*
D37*
X764540Y486410D02*
D03*
X739140D02*
D03*
X754380Y1021080D02*
D03*
X728980D02*
D03*
D38*
X662220Y486410D02*
D03*
X652060Y1022350D02*
D03*
D39*
X410210Y1035050D02*
D03*
Y1009650D02*
D03*
X384810Y1035050D02*
D03*
Y1009650D02*
D03*
X334010Y1035050D02*
D03*
X359410Y1009650D02*
D03*
Y1035050D02*
D03*
X435610Y1009650D02*
D03*
Y1035050D02*
D03*
X461010Y1009650D02*
D03*
X486410D02*
D03*
X461010Y1035050D02*
D03*
X486410D02*
D03*
X402590Y500380D02*
D03*
Y474980D02*
D03*
X377190Y500380D02*
D03*
Y474980D02*
D03*
X326390Y500380D02*
D03*
X351790Y474980D02*
D03*
Y500380D02*
D03*
X427990Y474980D02*
D03*
Y500380D02*
D03*
X453390Y474980D02*
D03*
X478790D02*
D03*
X453390Y500380D02*
D03*
X478790D02*
D03*
D40*
X334010Y1009650D02*
D03*
X326390Y474980D02*
D03*
D41*
X600202Y1014476D02*
D03*
X452374Y708660D02*
D03*
X736600Y980440D02*
D03*
X549148Y708660D02*
D03*
X417957Y728092D02*
D03*
X677672Y450850D02*
D03*
X696722Y553212D02*
D03*
X453390Y434340D02*
D03*
X680466Y411734D02*
D03*
X756666Y521970D02*
D03*
X633730Y781558D02*
D03*
X450850Y765048D02*
D03*
X415036Y819404D02*
D03*
X673100Y949960D02*
D03*
X463042Y1062482D02*
D03*
X402590Y420624D02*
D03*
M02*
