G04*
G04 #@! TF.GenerationSoftware,Altium Limited,Altium Designer,22.9.1 (49)*
G04*
G04 Layer_Physical_Order=2*
G04 Layer_Color=16711680*
%FSLAX44Y44*%
%MOMM*%
G71*
G04*
G04 #@! TF.SameCoordinates,78882AB9-2C9C-495A-B56B-01B9E16356B5*
G04*
G04*
G04 #@! TF.FilePolarity,Positive*
G04*
G01*
G75*
%ADD12C,0.2000*%
%ADD14C,0.1524*%
%ADD15C,0.1500*%
%ADD16C,0.1000*%
%ADD17C,0.0500*%
%ADD29C,0.3810*%
%ADD30C,0.7620*%
%ADD31R,1.3500X1.3500*%
%ADD32C,1.3500*%
%ADD33C,1.4000*%
%ADD34R,1.4000X1.4000*%
%ADD35C,1.5000*%
%ADD36R,1.5000X1.5000*%
%ADD37C,1.6000*%
%ADD38R,1.3500X1.3500*%
%ADD39C,1.6500*%
%ADD40R,1.6500X1.6500*%
%ADD41C,2.0320*%
D12*
X720090Y518160D02*
X779780D01*
Y454660D02*
Y518160D01*
X720090Y454660D02*
X779780D01*
X720090D02*
Y518160D01*
X709930Y1052830D02*
X769620D01*
Y989330D02*
Y1052830D01*
X709930Y989330D02*
X769620D01*
X709930D02*
Y1052830D01*
X778510Y504190D02*
G03*
X778005Y467950I-26526J-17754D01*
G01*
X768350Y1038860D02*
G03*
X767845Y1002620I-26526J-17754D01*
G01*
X778510Y468630D02*
Y504190D01*
X749300Y486410D02*
X754380D01*
X751840Y483870D02*
Y488950D01*
X768350Y1003300D02*
Y1038860D01*
X739140Y1021080D02*
X744220D01*
X741680Y1018540D02*
Y1023620D01*
D14*
X751840Y494027D02*
Y486410D01*
X756918D01*
X764536Y494027D02*
X759457D01*
Y486410D01*
X764536D01*
X759457Y490219D02*
X761997D01*
X767075Y494027D02*
Y486410D01*
X770884D01*
X772153Y487680D01*
Y492758D01*
X770884Y494027D01*
X767075D01*
X774693Y486410D02*
X777232D01*
X775962D01*
Y494027D01*
X774693Y492758D01*
X782320Y490218D02*
Y482600D01*
Y485139D01*
X787398Y490218D01*
X783590Y486409D01*
X787398Y482600D01*
X741680Y1028698D02*
Y1021080D01*
X746758D01*
X754376Y1028698D02*
X749297D01*
Y1021080D01*
X754376D01*
X749297Y1024889D02*
X751837D01*
X756915Y1028698D02*
Y1021080D01*
X760724D01*
X761993Y1022350D01*
Y1027428D01*
X760724Y1028698D01*
X756915D01*
X769611Y1021080D02*
X764533D01*
X769611Y1026158D01*
Y1027428D01*
X768341Y1028698D01*
X765802D01*
X764533Y1027428D01*
X772160Y1024887D02*
Y1017270D01*
Y1019809D01*
X777238Y1024887D01*
X773430Y1021079D01*
X777238Y1017270D01*
D15*
X701606Y922020D02*
X691609D01*
X689610Y920021D01*
Y916022D01*
X691609Y914023D01*
X701606D01*
X689610Y904026D02*
X701606D01*
X695608Y910024D01*
Y902027D01*
X417126Y920750D02*
X407129D01*
X405130Y918751D01*
Y914752D01*
X407129Y912753D01*
X417126D01*
Y900757D02*
Y908754D01*
X411128D01*
X413127Y904755D01*
Y902756D01*
X411128Y900757D01*
X407129D01*
X405130Y902756D01*
Y906755D01*
X407129Y908754D01*
D16*
X335350Y774260D02*
G03*
X335350Y774260I-5000J0D01*
G01*
X789190Y915540D02*
G03*
X789190Y915540I-5000J0D01*
G01*
X530473Y774260D02*
G03*
X530473Y774260I-5000J0D01*
G01*
X728710D02*
G03*
X728710Y774260I-5000J0D01*
G01*
X504710Y914270D02*
G03*
X504710Y914270I-5000J0D01*
G01*
X769050Y1116580D02*
X793050D01*
X769050D02*
Y1179580D01*
X793050Y1116580D02*
Y1179580D01*
X769050D02*
X793050D01*
X725870Y1116580D02*
X749870D01*
X725870D02*
Y1179580D01*
X749870Y1116580D02*
Y1179580D01*
X725870D02*
X749870D01*
X682690Y1116580D02*
X706690D01*
X682690D02*
Y1179580D01*
X706690Y1116580D02*
Y1179580D01*
X682690D02*
X706690D01*
X639510Y1116580D02*
X663510D01*
X639510D02*
Y1179580D01*
X663510Y1116580D02*
Y1179580D01*
X639510D02*
X663510D01*
X596330Y1116580D02*
X620330D01*
X596330D02*
Y1179580D01*
X620330Y1116580D02*
Y1179580D01*
X596330D02*
X620330D01*
X553150Y1116580D02*
X577150D01*
X553150D02*
Y1179580D01*
X577150Y1116580D02*
Y1179580D01*
X553150D02*
X577150D01*
X509970Y1116580D02*
X533970D01*
X509970D02*
Y1179580D01*
X533970Y1116580D02*
Y1179580D01*
X509970D02*
X533970D01*
X466790Y1116580D02*
X490790D01*
X466790D02*
Y1179580D01*
X490790Y1116580D02*
Y1179580D01*
X466790D02*
X490790D01*
X423610Y1116580D02*
X447610D01*
X423610D02*
Y1179580D01*
X447610Y1116580D02*
Y1179580D01*
X423610D02*
X447610D01*
X380834Y1116580D02*
X404834D01*
X380834D02*
Y1179580D01*
X404834Y1116580D02*
Y1179580D01*
X380834D02*
X404834D01*
X338708Y1116580D02*
X362708D01*
X338708D02*
Y1179580D01*
X362708Y1116580D02*
Y1179580D01*
X338708D02*
X362708D01*
X295545Y1116580D02*
X319545D01*
X295545D02*
Y1179580D01*
X319545Y1116580D02*
Y1179580D01*
X295545D02*
X319545D01*
X321350Y583260D02*
X389850D01*
X321350Y783260D02*
X389850D01*
Y583260D02*
Y783260D01*
X321350Y583260D02*
Y783260D01*
X596190Y858540D02*
Y924540D01*
X793190Y858540D02*
Y924540D01*
X596190Y858540D02*
X793190D01*
X596190Y924540D02*
X793190D01*
X648720Y474410D02*
Y498410D01*
X585720Y474410D02*
X648720D01*
X585720Y498410D02*
X648720D01*
X585720Y474410D02*
Y498410D01*
X638560Y1010350D02*
Y1034350D01*
X575560Y1010350D02*
X638560D01*
X575560Y1034350D02*
X638560D01*
X575560Y1010350D02*
Y1034350D01*
X516473Y583260D02*
X584973D01*
X516473Y783260D02*
X584973D01*
Y583260D02*
Y783260D01*
X516473Y583260D02*
Y783260D01*
X321310Y1047750D02*
X499110D01*
Y996950D02*
Y1047750D01*
X321310Y996950D02*
X499110D01*
X321310D02*
Y1047750D01*
X714710Y583260D02*
X783210D01*
X714710Y783260D02*
X783210D01*
Y583260D02*
Y783260D01*
X714710Y583260D02*
Y783260D01*
X311710Y857270D02*
Y923270D01*
X508710Y857270D02*
Y923270D01*
X311710Y857270D02*
X508710D01*
X311710Y923270D02*
X508710D01*
X313690Y513080D02*
X491490D01*
Y462280D02*
Y513080D01*
X313690Y462280D02*
X491490D01*
X313690D02*
Y513080D01*
X776050Y1148080D02*
X786050D01*
X781050Y1143080D02*
Y1153080D01*
X732870Y1148080D02*
X742870D01*
X737870Y1143080D02*
Y1153080D01*
X689690Y1148080D02*
X699690D01*
X694690Y1143080D02*
Y1153080D01*
X646510Y1148080D02*
X656510D01*
X651510Y1143080D02*
Y1153080D01*
X603330Y1148080D02*
X613330D01*
X608330Y1143080D02*
Y1153080D01*
X560150Y1148080D02*
X570150D01*
X565150Y1143080D02*
Y1153080D01*
X516970Y1148080D02*
X526970D01*
X521970Y1143080D02*
Y1153080D01*
X473790Y1148080D02*
X483790D01*
X478790Y1143080D02*
Y1153080D01*
X430610Y1148080D02*
X440610D01*
X435610Y1143080D02*
Y1153080D01*
X387835Y1148080D02*
X397835D01*
X392834Y1143080D02*
Y1153080D01*
X345708Y1148080D02*
X355708D01*
X350708Y1143080D02*
Y1153080D01*
X302546Y1148080D02*
X312546D01*
X307545Y1143080D02*
Y1153080D01*
X355600Y678260D02*
Y688260D01*
X350600Y683260D02*
X360600D01*
X689690Y891540D02*
X699690D01*
X694690Y886540D02*
Y896540D01*
X617220Y481410D02*
Y491410D01*
X612220Y486410D02*
X622220D01*
X607060Y1017350D02*
Y1027350D01*
X602060Y1022350D02*
X612060D01*
X550723Y678260D02*
Y688260D01*
X545723Y683260D02*
X555723D01*
X748960Y678260D02*
Y688260D01*
X743960Y683260D02*
X753960D01*
X405210Y890270D02*
X415210D01*
X410210Y885270D02*
Y895270D01*
D17*
X768050Y1200830D02*
X794050D01*
X768050Y1095330D02*
Y1200830D01*
X794050Y1095330D02*
Y1200830D01*
X768050Y1095330D02*
X794050D01*
X724870Y1200830D02*
X750870D01*
X724870Y1095330D02*
Y1200830D01*
X750870Y1095330D02*
Y1200830D01*
X724870Y1095330D02*
X750870D01*
X681690Y1200830D02*
X707690D01*
X681690Y1095330D02*
Y1200830D01*
X707690Y1095330D02*
Y1200830D01*
X681690Y1095330D02*
X707690D01*
X638510Y1200830D02*
X664510D01*
X638510Y1095330D02*
Y1200830D01*
X664510Y1095330D02*
Y1200830D01*
X638510Y1095330D02*
X664510D01*
X595330Y1200830D02*
X621330D01*
X595330Y1095330D02*
Y1200830D01*
X621330Y1095330D02*
Y1200830D01*
X595330Y1095330D02*
X621330D01*
X552150Y1200830D02*
X578150D01*
X552150Y1095330D02*
Y1200830D01*
X578150Y1095330D02*
Y1200830D01*
X552150Y1095330D02*
X578150D01*
X508970Y1200830D02*
X534970D01*
X508970Y1095330D02*
Y1200830D01*
X534970Y1095330D02*
Y1200830D01*
X508970Y1095330D02*
X534970D01*
X465790Y1200830D02*
X491790D01*
X465790Y1095330D02*
Y1200830D01*
X491790Y1095330D02*
Y1200830D01*
X465790Y1095330D02*
X491790D01*
X422610Y1200830D02*
X448610D01*
X422610Y1095330D02*
Y1200830D01*
X448610Y1095330D02*
Y1200830D01*
X422610Y1095330D02*
X448610D01*
X379835Y1200830D02*
X405835D01*
X379835Y1095330D02*
Y1200830D01*
X405835Y1095330D02*
Y1200830D01*
X379835Y1095330D02*
X405835D01*
X337708Y1200830D02*
X363708D01*
X337708Y1095330D02*
Y1200830D01*
X363708Y1095330D02*
Y1200830D01*
X337708Y1095330D02*
X363708D01*
X294545Y1200830D02*
X320546D01*
X294545Y1095330D02*
Y1200830D01*
X320546Y1095330D02*
Y1200830D01*
X294545Y1095330D02*
X320546D01*
X307600Y580760D02*
X403600D01*
X307600Y785760D02*
X403600D01*
Y580760D02*
Y785760D01*
X307600Y580760D02*
Y785760D01*
X593690Y843040D02*
Y940040D01*
X795690Y843040D02*
Y940040D01*
X593690Y843040D02*
X795690D01*
X593690Y940040D02*
X795690D01*
X564470Y473410D02*
Y499410D01*
Y473410D02*
X669970D01*
X564470Y499410D02*
X669970D01*
Y473410D02*
Y499410D01*
X554310Y1009350D02*
Y1035350D01*
Y1009350D02*
X659810D01*
X554310Y1035350D02*
X659810D01*
Y1009350D02*
Y1035350D01*
X502723Y580760D02*
X598723D01*
X502723Y785760D02*
X598723D01*
Y580760D02*
Y785760D01*
X502723Y580760D02*
Y785760D01*
X317810Y994200D02*
Y1050500D01*
Y994200D02*
X502610D01*
Y1050500D01*
X317810D02*
X502610D01*
X410210Y1017350D02*
Y1027350D01*
X405210Y1022350D02*
X415210D01*
X700960Y580760D02*
X796960D01*
X700960Y785760D02*
X796960D01*
Y580760D02*
Y785760D01*
X700960Y580760D02*
Y785760D01*
X309210Y841770D02*
Y938770D01*
X511210Y841770D02*
Y938770D01*
X309210Y841770D02*
X511210D01*
X309210Y938770D02*
X511210D01*
X310190Y459530D02*
Y515830D01*
Y459530D02*
X494990D01*
Y515830D01*
X310190D02*
X494990D01*
X402590Y482680D02*
Y492680D01*
X397590Y487680D02*
X407590D01*
D29*
X588823Y772160D02*
X594193Y766790D01*
X648462D01*
X665516Y783844D01*
X775376D01*
X787060Y772160D01*
X662220Y486410D02*
X674666Y498856D01*
X752094D01*
X764540Y486410D01*
X652060Y1022350D02*
X664252Y1034542D01*
X740918D01*
X754380Y1021080D01*
X582681Y996955D02*
X600202Y1014476D01*
X397505Y996955D02*
X582681D01*
X384810Y1009650D02*
X397505Y996955D01*
X710860Y772160D02*
X721051D01*
X732735Y760476D01*
X793806D01*
X798505Y765175D01*
Y939617D01*
X733298Y1004824D02*
X798505Y939617D01*
X647700Y1004824D02*
X733298D01*
X604779Y1047745D02*
X647700Y1004824D01*
X448305Y1047745D02*
X604779D01*
X435610Y1035050D02*
X448305Y1047745D01*
X452374Y708660D02*
X478790Y682244D01*
X638302D01*
X662940Y657606D01*
X749214D01*
X787060Y619760D01*
X461010Y1035050D02*
X473710Y1022350D01*
X505714D01*
X518160Y1009904D01*
X574675D01*
X594233Y1029462D01*
X606044D01*
X638326Y997180D01*
X719860D01*
X736600Y980440D01*
X730250Y746760D02*
X787060D01*
X718805Y758205D02*
X730250Y746760D01*
X567421Y758205D02*
X718805D01*
X531622Y794004D02*
X567421Y758205D01*
X438658Y794004D02*
X531622D01*
X405130Y760476D02*
X438658Y794004D01*
X379730Y760476D02*
X405130D01*
X321818Y818388D02*
X379730Y760476D01*
X321818Y818388D02*
Y859282D01*
X375666Y913130D01*
X394970D01*
X410210Y928370D01*
X633730Y781558D02*
X649224Y797052D01*
X689102D01*
X745490Y853440D01*
X432436Y798196D02*
X486410Y852170D01*
X419736Y798196D02*
X432436D01*
X393700Y772160D02*
X419736Y798196D01*
X450850Y765048D02*
X482600Y733298D01*
X558546D01*
X583184Y708660D01*
X672760D01*
X710860Y746760D01*
X415036Y819404D02*
X434340D01*
X448310Y833374D01*
Y857250D01*
X455422Y864362D01*
X583438D01*
X606552Y841248D01*
X657098D01*
X669290Y853440D01*
X334010Y1009650D02*
X362458Y981202D01*
X689173D01*
X699460Y970915D01*
Y950270D02*
Y970915D01*
Y950270D02*
X720090Y929640D01*
X669290D02*
X681482Y917448D01*
X754380D01*
X757682Y920750D01*
Y939800D01*
X744982Y952500D02*
X757682Y939800D01*
X731753Y952500D02*
X744982D01*
X693648Y990605D02*
X731753Y952500D01*
X378455Y990605D02*
X693648D01*
X359410Y1009650D02*
X378455Y990605D01*
X382016Y735076D02*
X393700Y746760D01*
X382016Y713994D02*
Y735076D01*
Y713994D02*
X387350Y708660D01*
X401574D01*
X405384Y704850D01*
Y688086D02*
Y704850D01*
X400050Y682752D02*
X405384Y688086D01*
X367030Y682752D02*
X400050D01*
X344678Y660400D02*
X367030Y682752D01*
X344678Y621538D02*
Y660400D01*
X330200Y607060D02*
X344678Y621538D01*
X308356Y607060D02*
X330200D01*
X299466Y615950D02*
X308356Y607060D01*
X299466Y615950D02*
Y946658D01*
X317500Y964692D01*
X679323D01*
X687578Y956437D01*
Y952500D02*
Y956437D01*
Y952500D02*
X694690Y945388D01*
Y929640D02*
Y945388D01*
X305816Y631444D02*
X317500Y619760D01*
X305816Y631444D02*
Y874776D01*
X347218Y916178D01*
Y939800D01*
X362204Y954786D01*
X458724D01*
X473710Y939800D01*
Y916178D02*
Y939800D01*
Y916178D02*
X498602D01*
X519684Y937260D01*
X606552D01*
X611124Y941832D01*
X625475D01*
X630682Y936625D01*
Y920750D02*
Y936625D01*
Y920750D02*
X641096Y910336D01*
X762000D01*
X770890Y919226D01*
Y929640D01*
X566420Y772160D02*
X588823D01*
X486410Y852170D02*
X566420Y772160D01*
X486410Y928370D02*
X508000Y949960D01*
X673100D01*
X437642Y1062482D02*
X463042D01*
X410210Y1035050D02*
X437642Y1062482D01*
X359410Y1035050D02*
X401447Y1077087D01*
X781050D01*
X792480Y1088517D01*
Y1114044D01*
X792226Y1114298D02*
X792480Y1114044D01*
X662728Y1114298D02*
X792226D01*
X651510Y1103080D02*
X662728Y1114298D01*
X334010Y1035050D02*
X382397Y1083437D01*
X718227D01*
X737870Y1103080D01*
X307545Y1041400D02*
Y1103080D01*
Y1041400D02*
X326595Y1022350D01*
X448310D01*
X461010Y1035050D01*
X720090Y929640D02*
X745490D01*
X643890D02*
X669290D01*
X618490Y853440D02*
X643890D01*
X694690D02*
X720090D01*
X435610Y928370D02*
X461010D01*
X359410D02*
X384810D01*
D30*
X728980Y1021080D02*
X806760Y943300D01*
Y589590D02*
Y943300D01*
X793750Y576580D02*
X806760Y589590D01*
X728640Y576580D02*
X793750D01*
X710860Y594360D02*
X728640Y576580D01*
X512623Y594360D02*
X526085Y580898D01*
X697398D01*
X710860Y594360D01*
X486410Y1035050D02*
X549360D01*
X562060Y1022350D01*
X576958Y888108D02*
X618490Y929640D01*
X446148Y888108D02*
X576958D01*
X410210Y852170D02*
X446148Y888108D01*
X359410Y852170D02*
X373380Y838200D01*
X396240D01*
X410210Y852170D01*
X351790Y463550D02*
Y474980D01*
X345186Y456946D02*
X351790Y463550D01*
X318262Y456946D02*
X345186D01*
X311658Y463550D02*
X318262Y456946D01*
X311658Y463550D02*
Y563118D01*
X393700Y645160D01*
X512623Y721360D02*
X536448D01*
X549148Y708660D01*
X417957Y728092D02*
Y759182D01*
X444398Y785622D01*
X524561D01*
X588823Y721360D01*
X452120Y450850D02*
X677672D01*
X427990Y474980D02*
X452120Y450850D01*
X427990Y500380D02*
X480822Y553212D01*
X696722D01*
X453390Y434340D02*
X475996Y411734D01*
X680466D01*
X453390Y500380D02*
X474980Y521970D01*
X756666D01*
X402590Y420624D02*
Y474980D01*
X478790D02*
X563880D01*
X565658Y473202D01*
X685800D01*
X697070Y461932D01*
Y399936D02*
Y461932D01*
X692150Y395016D02*
X697070Y399936D01*
X325582Y395016D02*
X692150D01*
X301498Y419100D02*
X325582Y395016D01*
X301498Y419100D02*
Y578358D01*
X317500Y594360D01*
X377190Y500380D02*
Y509727D01*
X512623Y645160D01*
X478790Y500380D02*
X558250D01*
X572220Y486410D01*
X478790Y1193080D02*
X521970D01*
X435610D02*
X478790D01*
X307545D02*
X350708D01*
X392834D02*
X435610D01*
X350708D02*
X392834D01*
X694690D02*
X737870D01*
X781050D01*
X521970D02*
X565150D01*
X651510D02*
X694690D01*
X565150D02*
X608330D01*
X651510D01*
X410210Y852170D02*
X435610D01*
X334010D02*
X359410D01*
X710860Y670560D02*
X787060D01*
X512623D02*
X588823D01*
Y695960D02*
X710860D01*
X317500D02*
X393700D01*
Y670560D02*
X512623D01*
D31*
X781050Y1103080D02*
D03*
X737870D02*
D03*
X694690D02*
D03*
X651510D02*
D03*
X608330D02*
D03*
X565150D02*
D03*
X521970D02*
D03*
X478790D02*
D03*
X435610D02*
D03*
X392834D02*
D03*
X350708D02*
D03*
X307545D02*
D03*
D32*
X781050Y1193080D02*
D03*
X737870D02*
D03*
X694690D02*
D03*
X651510D02*
D03*
X608330D02*
D03*
X565150D02*
D03*
X521970D02*
D03*
X478790D02*
D03*
X435610D02*
D03*
X392834D02*
D03*
X350708D02*
D03*
X307545D02*
D03*
X572220Y486410D02*
D03*
X562060Y1022350D02*
D03*
D33*
X393700Y594360D02*
D03*
Y619760D02*
D03*
Y645160D02*
D03*
Y670560D02*
D03*
Y695960D02*
D03*
Y721360D02*
D03*
Y746760D02*
D03*
Y772160D02*
D03*
X317500Y594360D02*
D03*
Y619760D02*
D03*
Y645160D02*
D03*
Y670560D02*
D03*
Y695960D02*
D03*
Y721360D02*
D03*
Y746760D02*
D03*
X588823Y594360D02*
D03*
Y619760D02*
D03*
Y645160D02*
D03*
Y670560D02*
D03*
Y695960D02*
D03*
Y721360D02*
D03*
Y746760D02*
D03*
Y772160D02*
D03*
X512623Y594360D02*
D03*
Y619760D02*
D03*
Y645160D02*
D03*
Y670560D02*
D03*
Y695960D02*
D03*
Y721360D02*
D03*
Y746760D02*
D03*
X787060Y594360D02*
D03*
Y619760D02*
D03*
Y645160D02*
D03*
Y670560D02*
D03*
Y695960D02*
D03*
Y721360D02*
D03*
Y746760D02*
D03*
Y772160D02*
D03*
X710860Y594360D02*
D03*
Y619760D02*
D03*
Y645160D02*
D03*
Y670560D02*
D03*
Y695960D02*
D03*
Y721360D02*
D03*
Y746760D02*
D03*
D34*
X317500Y772160D02*
D03*
X512623D02*
D03*
X710860D02*
D03*
D35*
X618490Y853440D02*
D03*
X643890D02*
D03*
X669290D02*
D03*
X694690D02*
D03*
X720090D02*
D03*
X745490D02*
D03*
X770890D02*
D03*
X618490Y929640D02*
D03*
X643890D02*
D03*
X669290D02*
D03*
X694690D02*
D03*
X720090D02*
D03*
X745490D02*
D03*
X334010Y852170D02*
D03*
X359410D02*
D03*
X384810D02*
D03*
X410210D02*
D03*
X435610D02*
D03*
X461010D02*
D03*
X486410D02*
D03*
X334010Y928370D02*
D03*
X359410D02*
D03*
X384810D02*
D03*
X410210D02*
D03*
X435610D02*
D03*
X461010D02*
D03*
D36*
X770890Y929640D02*
D03*
X486410Y928370D02*
D03*
D37*
X764540Y486410D02*
D03*
X739140D02*
D03*
X754380Y1021080D02*
D03*
X728980D02*
D03*
D38*
X662220Y486410D02*
D03*
X652060Y1022350D02*
D03*
D39*
X410210Y1035050D02*
D03*
Y1009650D02*
D03*
X384810Y1035050D02*
D03*
Y1009650D02*
D03*
X334010Y1035050D02*
D03*
X359410Y1009650D02*
D03*
Y1035050D02*
D03*
X435610Y1009650D02*
D03*
Y1035050D02*
D03*
X461010Y1009650D02*
D03*
X486410D02*
D03*
X461010Y1035050D02*
D03*
X486410D02*
D03*
X402590Y500380D02*
D03*
Y474980D02*
D03*
X377190Y500380D02*
D03*
Y474980D02*
D03*
X326390Y500380D02*
D03*
X351790Y474980D02*
D03*
Y500380D02*
D03*
X427990Y474980D02*
D03*
Y500380D02*
D03*
X453390Y474980D02*
D03*
X478790D02*
D03*
X453390Y500380D02*
D03*
X478790D02*
D03*
D40*
X334010Y1009650D02*
D03*
X326390Y474980D02*
D03*
D41*
X600202Y1014476D02*
D03*
X452374Y708660D02*
D03*
X736600Y980440D02*
D03*
X549148Y708660D02*
D03*
X417957Y728092D02*
D03*
X677672Y450850D02*
D03*
X696722Y553212D02*
D03*
X453390Y434340D02*
D03*
X680466Y411734D02*
D03*
X756666Y521970D02*
D03*
X633730Y781558D02*
D03*
X450850Y765048D02*
D03*
X415036Y819404D02*
D03*
X673100Y949960D02*
D03*
X463042Y1062482D02*
D03*
X402590Y420624D02*
D03*
M02*
