%TF.GenerationSoftware,Altium Limited,Altium Designer,22.9.1 (49)*%
G04 Layer_Color=255*
%FSLAX26Y26*%
%MOIN*%
%TF.SameCoordinates,9A4C5482-B669-49D6-A5E7-2A43E7F29E9E*%
%TF.FilePolarity,Positive*%
%TF.FileFunction,Pads,Top*%
%TF.Part,Single*%
G01*
G75*
%TA.AperFunction,ComponentPad*%
%ADD12R,0.053150X0.053150*%
%ADD13C,0.053150*%
%ADD14C,0.055118*%
%ADD15R,0.055118X0.055118*%
%ADD16C,0.059055*%
%ADD17R,0.059055X0.059055*%
%ADD18C,0.062992*%
%ADD19R,0.053150X0.053150*%
%ADD20C,0.064961*%
%ADD21R,0.064961X0.064961*%
D12*
X3075000Y4342834D02*
D03*
X2905000D02*
D03*
X2735000D02*
D03*
X2565000D02*
D03*
X2395000D02*
D03*
X2225000D02*
D03*
X2055000D02*
D03*
X1885000D02*
D03*
X1715000D02*
D03*
X1546592D02*
D03*
X1380740D02*
D03*
X1210808D02*
D03*
D13*
X3075000Y4697166D02*
D03*
X2905000D02*
D03*
X2735000D02*
D03*
X2565000D02*
D03*
X2395000D02*
D03*
X2225000D02*
D03*
X2055000D02*
D03*
X1885000D02*
D03*
X1715000D02*
D03*
X1546592D02*
D03*
X1380740D02*
D03*
X1210808D02*
D03*
X2252834Y1915000D02*
D03*
X2212834Y4025000D02*
D03*
D14*
X1550000Y2340000D02*
D03*
Y2440000D02*
D03*
Y2540000D02*
D03*
Y2640000D02*
D03*
Y2740000D02*
D03*
Y2840000D02*
D03*
Y2940000D02*
D03*
Y3040000D02*
D03*
X1250000Y2340000D02*
D03*
Y2440000D02*
D03*
Y2540000D02*
D03*
Y2640000D02*
D03*
Y2740000D02*
D03*
Y2840000D02*
D03*
Y2940000D02*
D03*
X2318202Y2340000D02*
D03*
Y2440000D02*
D03*
Y2540000D02*
D03*
Y2640000D02*
D03*
Y2740000D02*
D03*
Y2840000D02*
D03*
Y2940000D02*
D03*
Y3040000D02*
D03*
X2018202Y2340000D02*
D03*
Y2440000D02*
D03*
Y2540000D02*
D03*
Y2640000D02*
D03*
Y2740000D02*
D03*
Y2840000D02*
D03*
Y2940000D02*
D03*
X3098662Y2340000D02*
D03*
Y2440000D02*
D03*
Y2540000D02*
D03*
Y2640000D02*
D03*
Y2740000D02*
D03*
Y2840000D02*
D03*
Y2940000D02*
D03*
Y3040000D02*
D03*
X2798662Y2340000D02*
D03*
Y2440000D02*
D03*
Y2540000D02*
D03*
Y2640000D02*
D03*
Y2740000D02*
D03*
Y2840000D02*
D03*
Y2940000D02*
D03*
D15*
X1250000Y3040000D02*
D03*
X2018202D02*
D03*
X2798662D02*
D03*
D16*
X2435000Y3360000D02*
D03*
X2535000D02*
D03*
X2635000D02*
D03*
X2735000D02*
D03*
X2835000D02*
D03*
X2935000D02*
D03*
X3035000D02*
D03*
X2435000Y3660000D02*
D03*
X2535000D02*
D03*
X2635000D02*
D03*
X2735000D02*
D03*
X2835000D02*
D03*
X2935000D02*
D03*
X1315000Y3355000D02*
D03*
X1415000D02*
D03*
X1515000D02*
D03*
X1615000D02*
D03*
X1715000D02*
D03*
X1815000D02*
D03*
X1915000D02*
D03*
X1315000Y3655000D02*
D03*
X1415000D02*
D03*
X1515000D02*
D03*
X1615000D02*
D03*
X1715000D02*
D03*
X1815000D02*
D03*
D17*
X3035000Y3660000D02*
D03*
X1915000Y3655000D02*
D03*
D18*
X3010000Y1915000D02*
D03*
X2910000D02*
D03*
X2970000Y4020000D02*
D03*
X2870000D02*
D03*
D19*
X2607166Y1915000D02*
D03*
X2567166Y4025000D02*
D03*
D20*
X1615000Y4075000D02*
D03*
Y3975000D02*
D03*
X1515000Y4075000D02*
D03*
Y3975000D02*
D03*
X1315000Y4075000D02*
D03*
X1415000Y3975000D02*
D03*
Y4075000D02*
D03*
X1715000Y3975000D02*
D03*
Y4075000D02*
D03*
X1815000Y3975000D02*
D03*
X1915000D02*
D03*
X1815000Y4075000D02*
D03*
X1915000D02*
D03*
X1585000Y1970000D02*
D03*
Y1870000D02*
D03*
X1485000Y1970000D02*
D03*
Y1870000D02*
D03*
X1285000Y1970000D02*
D03*
X1385000Y1870000D02*
D03*
Y1970000D02*
D03*
X1685000Y1870000D02*
D03*
Y1970000D02*
D03*
X1785000Y1870000D02*
D03*
X1885000D02*
D03*
X1785000Y1970000D02*
D03*
X1885000D02*
D03*
D21*
X1315000Y3975000D02*
D03*
X1285000Y1870000D02*
D03*
%TF.MD5,b550866e68ad641bd1e9973388e89f9a*%
M02*
