%TF.GenerationSoftware,Altium Limited,Altium Designer,22.9.1 (49)*%
G04 Layer_Color=32768*
%FSLAX26Y26*%
%MOIN*%
%TF.SameCoordinates,9A4C5482-B669-49D6-A5E7-2A43E7F29E9E*%
%TF.FilePolarity,Positive*%
%TF.FileFunction,Other,Mechanical_15*%
%TF.Part,Single*%
G01*
G75*
%TA.AperFunction,NonConductor*%
%ADD36C,0.007874*%
%ADD38C,0.006000*%
%ADD39C,0.003937*%
%ADD41C,0.001968*%
D36*
X3065000Y1985000D02*
G03*
X3063011Y1842324I-104432J-69896D01*
G01*
X3025000Y4090000D02*
G03*
X3023011Y3947324I-104432J-69896D01*
G01*
X3065000Y1845000D02*
Y1985000D01*
X2950000Y1915000D02*
X2970000D01*
X2960000Y1905000D02*
Y1925000D01*
X3025000Y3950000D02*
Y4090000D01*
X2910000Y4020000D02*
X2930000D01*
X2920000Y4010000D02*
Y4030000D01*
D38*
X2960000Y1944990D02*
Y1915000D01*
X2979994D01*
X3009984Y1944990D02*
X2989990D01*
Y1915000D01*
X3009984D01*
X2989990Y1929995D02*
X2999987D01*
X3019981Y1944990D02*
Y1915000D01*
X3034976D01*
X3039974Y1919998D01*
Y1939992D01*
X3034976Y1944990D01*
X3019981D01*
X3049971Y1915000D02*
X3059968D01*
X3054969D01*
Y1944990D01*
X3049971Y1939992D01*
X3080000Y1929990D02*
Y1900000D01*
Y1909997D01*
X3099994Y1929990D01*
X3084998Y1914995D01*
X3099994Y1900000D01*
X2920000Y4049990D02*
Y4020000D01*
X2939994D01*
X2969984Y4049990D02*
X2949990D01*
Y4020000D01*
X2969984D01*
X2949990Y4034995D02*
X2959987D01*
X2979981Y4049990D02*
Y4020000D01*
X2994976D01*
X2999974Y4024998D01*
Y4044992D01*
X2994976Y4049990D01*
X2979981D01*
X3029964Y4020000D02*
X3009971D01*
X3029964Y4039994D01*
Y4044992D01*
X3024966Y4049990D01*
X3014969D01*
X3009971Y4044992D01*
X3040000Y4034990D02*
Y4005000D01*
Y4014997D01*
X3059994Y4034990D01*
X3044998Y4019995D01*
X3059994Y4005000D01*
D39*
X3055316Y4520000D02*
X3094686D01*
X3075000Y4500316D02*
Y4539686D01*
X2885316Y4520000D02*
X2924686D01*
X2905000Y4500316D02*
Y4539686D01*
X2715316Y4520000D02*
X2754686D01*
X2735000Y4500316D02*
Y4539686D01*
X2545316Y4520000D02*
X2584686D01*
X2565000Y4500316D02*
Y4539686D01*
X2375316Y4520000D02*
X2414686D01*
X2395000Y4500316D02*
Y4539686D01*
X2205316Y4520000D02*
X2244686D01*
X2225000Y4500316D02*
Y4539686D01*
X2035316Y4520000D02*
X2074686D01*
X2055000Y4500316D02*
Y4539686D01*
X1865316Y4520000D02*
X1904686D01*
X1885000Y4500316D02*
Y4539686D01*
X1695316Y4520000D02*
X1734686D01*
X1715000Y4500316D02*
Y4539686D01*
X1526908Y4520000D02*
X1566278D01*
X1546592Y4500316D02*
Y4539686D01*
X1361054Y4520000D02*
X1400424D01*
X1380740Y4500314D02*
Y4539684D01*
X1191124Y4520000D02*
X1230494D01*
X1210808Y4500316D02*
Y4539686D01*
X1400000Y2670316D02*
Y2709686D01*
X1380316Y2690000D02*
X1419686D01*
X2715316Y3510000D02*
X2754686D01*
X2735000Y3490316D02*
Y3529686D01*
X2430000Y1895316D02*
Y1934686D01*
X2410316Y1915000D02*
X2449686D01*
X2390000Y4005316D02*
Y4044686D01*
X2370316Y4025000D02*
X2409686D01*
X2168202Y2670316D02*
Y2709686D01*
X2148516Y2690000D02*
X2187886D01*
X2948662Y2670316D02*
Y2709686D01*
X2928976Y2690000D02*
X2968346D01*
X1595316Y3505000D02*
X1634686D01*
X1615000Y3485316D02*
Y3524686D01*
D41*
X3023818Y4727678D02*
X3126182D01*
X3023818Y4312322D02*
Y4727678D01*
X3126182Y4312322D02*
Y4727678D01*
X3023818Y4312322D02*
X3126182D01*
X2853818Y4727678D02*
X2956182D01*
X2853818Y4312322D02*
Y4727678D01*
X2956182Y4312322D02*
Y4727678D01*
X2853818Y4312322D02*
X2956182D01*
X2683818Y4727678D02*
X2786182D01*
X2683818Y4312322D02*
Y4727678D01*
X2786182Y4312322D02*
Y4727678D01*
X2683818Y4312322D02*
X2786182D01*
X2513818Y4727678D02*
X2616182D01*
X2513818Y4312322D02*
Y4727678D01*
X2616182Y4312322D02*
Y4727678D01*
X2513818Y4312322D02*
X2616182D01*
X2343818Y4727678D02*
X2446182D01*
X2343818Y4312322D02*
Y4727678D01*
X2446182Y4312322D02*
Y4727678D01*
X2343818Y4312322D02*
X2446182D01*
X2173818Y4727678D02*
X2276182D01*
X2173818Y4312322D02*
Y4727678D01*
X2276182Y4312322D02*
Y4727678D01*
X2173818Y4312322D02*
X2276182D01*
X2003818Y4727678D02*
X2106182D01*
X2003818Y4312322D02*
Y4727678D01*
X2106182Y4312322D02*
Y4727678D01*
X2003818Y4312322D02*
X2106182D01*
X1833818Y4727678D02*
X1936182D01*
X1833818Y4312322D02*
Y4727678D01*
X1936182Y4312322D02*
Y4727678D01*
X1833818Y4312322D02*
X1936182D01*
X1663818Y4727678D02*
X1766182D01*
X1663818Y4312322D02*
Y4727678D01*
X1766182Y4312322D02*
Y4727678D01*
X1663818Y4312322D02*
X1766182D01*
X1495412Y4727678D02*
X1597774D01*
X1495412Y4312322D02*
Y4727678D01*
X1597774Y4312322D02*
Y4727678D01*
X1495412Y4312322D02*
X1597774D01*
X1329558Y4727676D02*
X1431920D01*
X1329558Y4312322D02*
Y4727676D01*
X1431920Y4312322D02*
Y4727676D01*
X1329558Y4312322D02*
X1431920D01*
X1159628Y4727678D02*
X1261990D01*
X1159628Y4312322D02*
Y4727678D01*
X1261990Y4312322D02*
Y4727678D01*
X1159628Y4312322D02*
X1261990D01*
X1211024Y2286456D02*
X1588976D01*
X1211024Y3093544D02*
X1588976D01*
Y2286456D02*
Y3093544D01*
X1211024Y2286456D02*
Y3093544D01*
X2337362Y3319056D02*
Y3700944D01*
X3132638Y3319056D02*
Y3700944D01*
X2337362Y3319056D02*
X3132638D01*
X2337362Y3700944D02*
X3132638D01*
X2222322Y1863818D02*
Y1966182D01*
Y1863818D02*
X2637678D01*
X2222322Y1966182D02*
X2637678D01*
Y1863818D02*
Y1966182D01*
X2182322Y3973818D02*
Y4076182D01*
Y3973818D02*
X2597678D01*
X2182322Y4076182D02*
X2597678D01*
Y3973818D02*
Y4076182D01*
X1979224Y2286456D02*
X2357178D01*
X1979224Y3093544D02*
X2357178D01*
Y2286456D02*
Y3093544D01*
X1979224Y2286456D02*
Y3093544D01*
X1251220Y3914174D02*
Y4135826D01*
Y3914174D02*
X1978780D01*
Y4135826D01*
X1251220D02*
X1978780D01*
X1615000Y4005316D02*
Y4044686D01*
X1595316Y4025000D02*
X1634686D01*
X2759686Y2286456D02*
X3137638D01*
X2759686Y3093544D02*
X3137638D01*
Y2286456D02*
Y3093544D01*
X2759686Y2286456D02*
Y3093544D01*
X1217362Y3314056D02*
Y3695944D01*
X2012638Y3314056D02*
Y3695944D01*
X1217362Y3314056D02*
X2012638D01*
X1217362Y3695944D02*
X2012638D01*
X1221220Y1809174D02*
Y2030826D01*
Y1809174D02*
X1948780D01*
Y2030826D01*
X1221220D02*
X1948780D01*
X1585000Y1900316D02*
Y1939686D01*
X1565316Y1920000D02*
X1604686D01*
%TF.MD5,30b8e2b9b332e8e49416b85412c45d6e*%
M02*
