M48
;Layer_Color=9474304
;FILE_FORMAT=4:4
METRIC,TZ
;TYPE=PLATED
T1F00S00C0.8000
T2F00S00C0.8500
T3F00S00C0.8890
T4F00S00C0.9000
T5F00S00C1.0000
T6F00S00C1.1000
%
T01
X512623Y594360
Y619760
Y645160
Y670560
Y695960
Y721360
Y746760
Y772160
X588823
Y746760
Y721360
Y695960
Y670560
Y645160
Y619760
Y594360
X710860
Y619760
Y645160
Y670560
Y695960
Y721360
Y746760
Y772160
X787060
Y746760
Y721360
Y695960
Y670560
Y645160
Y619760
Y594360
X393700
Y619760
Y645160
Y670560
Y695960
Y721360
Y746760
Y772160
X317500
Y746760
Y721360
Y695960
Y670560
Y645160
Y619760
Y594360
T02
X572220Y486410
X662220
X392834Y1103080
X350708
X307545
X435610
X478790
X521970
X565150
X608330
X651510
X694690
X737870
X781050
X652060Y1022350
X562060
X565150Y1193080
X608330
X651510
X694690
X737870
X781050
X521970
X478790
X435610
X392834
X350708
X307545
T03
X402590Y420624
X453390Y434340
X677672Y450850
X680466Y411734
X696722Y553212
X756666Y521970
X633730Y781558
X549148Y708660
X452374
X417957Y728092
X450850Y765048
X415036Y819404
X463042Y1062482
X600202Y1014476
X673100Y949960
X736600Y980440
T04
X334010Y852170
X359410
X384810
Y928370
X359410
X334010
X410210
X435610
X461010
X486410
Y852170
X461010
X435610
X410210
X618490Y853440
X643890
X669290
X694690
X720090
X745490
X770890
Y929640
X745490
X720090
X694690
X669290
X643890
X618490
T05
X739140Y486410
X764540
X754380Y1021080
X728980
T06
X402590Y474980
Y500380
X427990
Y474980
X453390
X478790
Y500380
X453390
X377190
Y474980
X351790
X326390
Y500380
X351790
X359410Y1009650
X384810
Y1035050
X359410
X334010
Y1009650
X410210
Y1035050
X435610
Y1009650
X461010
X486410
Y1035050
X461010
M30
