%TF.GenerationSoftware,Altium Limited,Altium Designer,22.9.1 (49)*%
G04 Layer_Color=16711935*
%FSLAX26Y26*%
%MOIN*%
%TF.SameCoordinates,9A4C5482-B669-49D6-A5E7-2A43E7F29E9E*%
%TF.FilePolarity,Negative*%
%TF.FileFunction,Soldermask,Bot*%
%TF.Part,Single*%
G01*
G75*
%TA.AperFunction,ComponentPad*%
%ADD23R,0.061150X0.061150*%
%ADD24C,0.061150*%
%ADD25C,0.063118*%
%ADD26R,0.063118X0.063118*%
%ADD27C,0.067055*%
%ADD28R,0.067055X0.067055*%
%ADD29C,0.070992*%
%ADD30R,0.061150X0.061150*%
%ADD31C,0.072961*%
%ADD32R,0.072961X0.072961*%
%TA.AperFunction,ViaPad*%
%ADD33C,0.088000*%
D23*
X3075000Y4342834D02*
D03*
X2905000D02*
D03*
X2735000D02*
D03*
X2565000D02*
D03*
X2395000D02*
D03*
X2225000D02*
D03*
X2055000D02*
D03*
X1885000D02*
D03*
X1715000D02*
D03*
X1546592D02*
D03*
X1380740D02*
D03*
X1210808D02*
D03*
D24*
X3075000Y4697166D02*
D03*
X2905000D02*
D03*
X2735000D02*
D03*
X2565000D02*
D03*
X2395000D02*
D03*
X2225000D02*
D03*
X2055000D02*
D03*
X1885000D02*
D03*
X1715000D02*
D03*
X1546592D02*
D03*
X1380740D02*
D03*
X1210808D02*
D03*
X2252834Y1915000D02*
D03*
X2212834Y4025000D02*
D03*
D25*
X1550000Y2340000D02*
D03*
Y2440000D02*
D03*
Y2540000D02*
D03*
Y2640000D02*
D03*
Y2740000D02*
D03*
Y2840000D02*
D03*
Y2940000D02*
D03*
Y3040000D02*
D03*
X1250000Y2340000D02*
D03*
Y2440000D02*
D03*
Y2540000D02*
D03*
Y2640000D02*
D03*
Y2740000D02*
D03*
Y2840000D02*
D03*
Y2940000D02*
D03*
X2318202Y2340000D02*
D03*
Y2440000D02*
D03*
Y2540000D02*
D03*
Y2640000D02*
D03*
Y2740000D02*
D03*
Y2840000D02*
D03*
Y2940000D02*
D03*
Y3040000D02*
D03*
X2018202Y2340000D02*
D03*
Y2440000D02*
D03*
Y2540000D02*
D03*
Y2640000D02*
D03*
Y2740000D02*
D03*
Y2840000D02*
D03*
Y2940000D02*
D03*
X3098662Y2340000D02*
D03*
Y2440000D02*
D03*
Y2540000D02*
D03*
Y2640000D02*
D03*
Y2740000D02*
D03*
Y2840000D02*
D03*
Y2940000D02*
D03*
Y3040000D02*
D03*
X2798662Y2340000D02*
D03*
Y2440000D02*
D03*
Y2540000D02*
D03*
Y2640000D02*
D03*
Y2740000D02*
D03*
Y2840000D02*
D03*
Y2940000D02*
D03*
D26*
X1250000Y3040000D02*
D03*
X2018202D02*
D03*
X2798662D02*
D03*
D27*
X2435000Y3360000D02*
D03*
X2535000D02*
D03*
X2635000D02*
D03*
X2735000D02*
D03*
X2835000D02*
D03*
X2935000D02*
D03*
X3035000D02*
D03*
X2435000Y3660000D02*
D03*
X2535000D02*
D03*
X2635000D02*
D03*
X2735000D02*
D03*
X2835000D02*
D03*
X2935000D02*
D03*
X1315000Y3355000D02*
D03*
X1415000D02*
D03*
X1515000D02*
D03*
X1615000D02*
D03*
X1715000D02*
D03*
X1815000D02*
D03*
X1915000D02*
D03*
X1315000Y3655000D02*
D03*
X1415000D02*
D03*
X1515000D02*
D03*
X1615000D02*
D03*
X1715000D02*
D03*
X1815000D02*
D03*
D28*
X3035000Y3660000D02*
D03*
X1915000Y3655000D02*
D03*
D29*
X3010000Y1915000D02*
D03*
X2910000D02*
D03*
X2970000Y4020000D02*
D03*
X2870000D02*
D03*
D30*
X2607166Y1915000D02*
D03*
X2567166Y4025000D02*
D03*
D31*
X1615000Y4075000D02*
D03*
Y3975000D02*
D03*
X1515000Y4075000D02*
D03*
Y3975000D02*
D03*
X1315000Y4075000D02*
D03*
X1415000Y3975000D02*
D03*
Y4075000D02*
D03*
X1715000Y3975000D02*
D03*
Y4075000D02*
D03*
X1815000Y3975000D02*
D03*
X1915000D02*
D03*
X1815000Y4075000D02*
D03*
X1915000D02*
D03*
X1585000Y1970000D02*
D03*
Y1870000D02*
D03*
X1485000Y1970000D02*
D03*
Y1870000D02*
D03*
X1285000Y1970000D02*
D03*
X1385000Y1870000D02*
D03*
Y1970000D02*
D03*
X1685000Y1870000D02*
D03*
Y1970000D02*
D03*
X1785000Y1870000D02*
D03*
X1885000D02*
D03*
X1785000Y1970000D02*
D03*
X1885000D02*
D03*
D32*
X1315000Y3975000D02*
D03*
X1285000Y1870000D02*
D03*
D33*
X2975000Y2200000D02*
D03*
X2743000Y2265000D02*
D03*
X2363000Y3994000D02*
D03*
X1781000Y2790000D02*
D03*
X2900000Y3860000D02*
D03*
X2162000Y2790000D02*
D03*
X1645502Y2866502D02*
D03*
X2668000Y1775000D02*
D03*
X1785000Y1710000D02*
D03*
X2679000Y1621000D02*
D03*
X2495000Y3077000D02*
D03*
X1775000Y3012000D02*
D03*
X1634000Y3226000D02*
D03*
X2650000Y3740000D02*
D03*
X1823000Y4183000D02*
D03*
X1585000Y1656000D02*
D03*
%TF.MD5,82f2ad6652f80dac908e7866e80d4807*%
M02*
